%TF.GenerationSoftware,KiCad,Pcbnew,(5.1.12)-1*%
%TF.CreationDate,2022-08-25T11:39:19-06:00*%
%TF.ProjectId,SpritePCB,53707269-7465-4504-9342-2e6b69636164,rev?*%
%TF.SameCoordinates,Original*%
%TF.FileFunction,Soldermask,Bot*%
%TF.FilePolarity,Negative*%
%FSLAX46Y46*%
G04 Gerber Fmt 4.6, Leading zero omitted, Abs format (unit mm)*
G04 Created by KiCad (PCBNEW (5.1.12)-1) date 2022-08-25 11:39:19*
%MOMM*%
%LPD*%
G01*
G04 APERTURE LIST*
%ADD10O,1.350000X1.350000*%
%ADD11R,1.350000X1.350000*%
%ADD12C,1.498600*%
%ADD13C,1.244600*%
%ADD14C,5.600000*%
%ADD15C,3.800000*%
G04 APERTURE END LIST*
D10*
%TO.C,J1*%
X46300000Y-44539000D03*
X46300000Y-42539000D03*
X48300000Y-44539000D03*
X48300000Y-42539000D03*
X50300000Y-44539000D03*
X50300000Y-42539000D03*
X52300000Y-44539000D03*
X52300000Y-42539000D03*
X54300000Y-44539000D03*
X54300000Y-42539000D03*
X56300000Y-44539000D03*
X56300000Y-42539000D03*
X58300000Y-44539000D03*
X58300000Y-42539000D03*
X60300000Y-44539000D03*
X60300000Y-42539000D03*
X62300000Y-44539000D03*
X62300000Y-42539000D03*
X64300000Y-44539000D03*
X64300000Y-42539000D03*
X66300000Y-44539000D03*
X66300000Y-42539000D03*
X68300000Y-44539000D03*
D11*
X68300000Y-42539000D03*
%TD*%
D12*
%TO.C,J6*%
X35306000Y-75184001D03*
X35306000Y-77683999D03*
%TD*%
D13*
%TO.C,J7*%
X78994000Y-68580001D03*
X78994000Y-67079999D03*
%TD*%
%TO.C,J5*%
X42671999Y-84836000D03*
X44172001Y-84836000D03*
%TD*%
%TO.C,J4*%
X78994000Y-63500001D03*
X78994000Y-61999999D03*
%TD*%
%TO.C,J3*%
X78994000Y-78232000D03*
X78994000Y-76732000D03*
X78994000Y-75232001D03*
X78994000Y-73732001D03*
X78994000Y-72232002D03*
%TD*%
%TO.C,J2*%
X79938001Y-84582000D03*
X78438002Y-84582000D03*
X76938000Y-84582000D03*
X75438000Y-84582000D03*
%TD*%
D14*
%TO.C,H3*%
X64300000Y-82603886D03*
%TD*%
D15*
%TO.C,H2*%
X81000000Y-42453900D03*
%TD*%
%TO.C,H1*%
X33000000Y-42453900D03*
%TD*%
M02*
