%TF.GenerationSoftware,KiCad,Pcbnew,(5.1.12)-1*%
%TF.CreationDate,2023-01-19T10:38:35-07:00*%
%TF.ProjectId,SpritePCB,53707269-7465-4504-9342-2e6b69636164,rev?*%
%TF.SameCoordinates,Original*%
%TF.FileFunction,Profile,NP*%
%FSLAX46Y46*%
G04 Gerber Fmt 4.6, Leading zero omitted, Abs format (unit mm)*
G04 Created by KiCad (PCBNEW (5.1.12)-1) date 2023-01-19 10:38:35*
%MOMM*%
%LPD*%
G01*
G04 APERTURE LIST*
%TA.AperFunction,Profile*%
%ADD10C,0.018000*%
%TD*%
G04 APERTURE END LIST*
D10*
X54468660Y-81956520D02*
X54341660Y-81956520D01*
X45999960Y-59453700D02*
X45999960Y-59453700D01*
X45395678Y-59514700D02*
X45999960Y-59453700D01*
X44832699Y-59689633D02*
X45395678Y-59514700D01*
X44323125Y-59966391D02*
X44832699Y-59689633D01*
X43879061Y-60332872D02*
X44323125Y-59966391D01*
X43512609Y-60776969D02*
X43879061Y-60332872D01*
X43235873Y-61286578D02*
X43512609Y-60776969D01*
X43060955Y-61849593D02*
X43235873Y-61286578D01*
X42999960Y-62453910D02*
X43060955Y-61849593D01*
X43060955Y-63058200D02*
X42999960Y-62453910D01*
X43235873Y-63621183D02*
X43060955Y-63058200D01*
X43512609Y-64130757D02*
X43235873Y-63621183D01*
X43879061Y-64574819D02*
X43512609Y-64130757D01*
X44323125Y-64941268D02*
X43879061Y-64574819D01*
X44832699Y-65218001D02*
X44323125Y-64941268D01*
X45395678Y-65392915D02*
X44832699Y-65218001D01*
X45999960Y-65453910D02*
X45395678Y-65392915D01*
X46604241Y-65392915D02*
X45999960Y-65453910D01*
X47167220Y-65218001D02*
X46604241Y-65392915D01*
X47676794Y-64941268D02*
X47167220Y-65218001D01*
X48120858Y-64574819D02*
X47676794Y-64941268D01*
X48487310Y-64130757D02*
X48120858Y-64574819D01*
X48764046Y-63621183D02*
X48487310Y-64130757D01*
X48938964Y-63058200D02*
X48764046Y-63621183D01*
X48999960Y-62453910D02*
X48938964Y-63058200D01*
X48938964Y-61849593D02*
X48999960Y-62453910D01*
X48764046Y-61286578D02*
X48938964Y-61849593D01*
X48487310Y-60776969D02*
X48764046Y-61286578D01*
X48120858Y-60332872D02*
X48487310Y-60776969D01*
X47676794Y-59966391D02*
X48120858Y-60332872D01*
X47167220Y-59689633D02*
X47676794Y-59966391D01*
X46604241Y-59514700D02*
X47167220Y-59689633D01*
X45999960Y-59453700D02*
X46604241Y-59514700D01*
X60000000Y-59453700D02*
X60000000Y-59453700D01*
X59395718Y-59514700D02*
X60000000Y-59453700D01*
X58832739Y-59689633D02*
X59395718Y-59514700D01*
X58323165Y-59966391D02*
X58832739Y-59689633D01*
X57879101Y-60332872D02*
X58323165Y-59966391D01*
X57512649Y-60776969D02*
X57879101Y-60332872D01*
X57235913Y-61286578D02*
X57512649Y-60776969D01*
X57060995Y-61849593D02*
X57235913Y-61286578D01*
X57000000Y-62453910D02*
X57060995Y-61849593D01*
X57060995Y-63058200D02*
X57000000Y-62453910D01*
X57235913Y-63621183D02*
X57060995Y-63058200D01*
X57512649Y-64130757D02*
X57235913Y-63621183D01*
X57879101Y-64574819D02*
X57512649Y-64130757D01*
X58323165Y-64941268D02*
X57879101Y-64574819D01*
X58832739Y-65218001D02*
X58323165Y-64941268D01*
X59395718Y-65392915D02*
X58832739Y-65218001D01*
X60000000Y-65453910D02*
X59395718Y-65392915D01*
X60604273Y-65392915D02*
X60000000Y-65453910D01*
X61167248Y-65218001D02*
X60604273Y-65392915D01*
X61676821Y-64941268D02*
X61167248Y-65218001D01*
X62120887Y-64574819D02*
X61676821Y-64941268D01*
X62487342Y-64130757D02*
X62120887Y-64574819D01*
X62764082Y-63621183D02*
X62487342Y-64130757D01*
X62939003Y-63058200D02*
X62764082Y-63621183D01*
X63000000Y-62453910D02*
X62939003Y-63058200D01*
X62939003Y-61849593D02*
X63000000Y-62453910D01*
X62764082Y-61286578D02*
X62939003Y-61849593D01*
X62487342Y-60776969D02*
X62764082Y-61286578D01*
X62120887Y-60332872D02*
X62487342Y-60776969D01*
X61676821Y-59966391D02*
X62120887Y-60332872D01*
X61167248Y-59689633D02*
X61676821Y-59966391D01*
X60604273Y-59514700D02*
X61167248Y-59689633D01*
X60000000Y-59453700D02*
X60604273Y-59514700D01*
X35500020Y-80953830D02*
X35500020Y-80953830D01*
X34795002Y-81024993D02*
X35500020Y-80953830D01*
X34138179Y-81229070D02*
X34795002Y-81024993D01*
X33543672Y-81551937D02*
X34138179Y-81229070D01*
X33025597Y-81979473D02*
X33543672Y-81551937D01*
X32598074Y-82497557D02*
X33025597Y-81979473D01*
X32275220Y-83092065D02*
X32598074Y-82497557D01*
X32071154Y-83748877D02*
X32275220Y-83092065D01*
X31999995Y-84453870D02*
X32071154Y-83748877D01*
X32071154Y-85158862D02*
X31999995Y-84453870D01*
X32275220Y-85815671D02*
X32071154Y-85158862D01*
X32598074Y-86410177D02*
X32275220Y-85815671D01*
X33025597Y-86928257D02*
X32598074Y-86410177D01*
X33543672Y-87355790D02*
X33025597Y-86928257D01*
X34138179Y-87678654D02*
X33543672Y-87355790D01*
X34795002Y-87882729D02*
X34138179Y-87678654D01*
X35500020Y-87953892D02*
X34795002Y-87882729D01*
X36205008Y-87882729D02*
X35500020Y-87953892D01*
X36861810Y-87678654D02*
X36205008Y-87882729D01*
X37456304Y-87355790D02*
X36861810Y-87678654D01*
X37974371Y-86928257D02*
X37456304Y-87355790D01*
X38401890Y-86410177D02*
X37974371Y-86928257D01*
X38724744Y-85815671D02*
X38401890Y-86410177D01*
X38928810Y-85158862D02*
X38724744Y-85815671D01*
X38999970Y-84453870D02*
X38928810Y-85158862D01*
X38928810Y-83748877D02*
X38999970Y-84453870D01*
X38724744Y-83092065D02*
X38928810Y-83748877D01*
X38401890Y-82497557D02*
X38724744Y-83092065D01*
X37974371Y-81979473D02*
X38401890Y-82497557D01*
X37456304Y-81551937D02*
X37974371Y-81979473D01*
X36861810Y-81229070D02*
X37456304Y-81551937D01*
X36205008Y-81024993D02*
X36861810Y-81229070D01*
X35500020Y-80953830D02*
X36205008Y-81024993D01*
X49346330Y-88502784D02*
X49346330Y-88502784D01*
X49346330Y-85955160D02*
X49346330Y-88502784D01*
X49346389Y-85929330D02*
X49346330Y-85955160D01*
X49375180Y-85522992D02*
X49346389Y-85929330D01*
X49453378Y-85128423D02*
X49375180Y-85522992D01*
X49578493Y-84747619D02*
X49453378Y-85128423D01*
X49748035Y-84382571D02*
X49578493Y-84747619D01*
X50210446Y-83707717D02*
X49748035Y-84382571D01*
X50820691Y-83119807D02*
X50210446Y-83707717D01*
X51558852Y-82634787D02*
X50820691Y-83119807D01*
X52405013Y-82268602D02*
X51558852Y-82634787D01*
X53339254Y-82037198D02*
X52405013Y-82268602D01*
X54341660Y-81956520D02*
X53339254Y-82037198D01*
X55474863Y-82037818D02*
X54468660Y-81956520D01*
X56412289Y-82270959D02*
X55474863Y-82037818D01*
X57260785Y-82639812D02*
X56412289Y-82270959D01*
X58000200Y-83128245D02*
X57260785Y-82639812D01*
X58610379Y-83720127D02*
X58000200Y-83128245D01*
X59071172Y-84399328D02*
X58610379Y-83720127D01*
X59239251Y-84766632D02*
X59071172Y-84399328D01*
X59362427Y-85149716D02*
X59239251Y-84766632D01*
X59438179Y-85546564D02*
X59362427Y-85149716D01*
X59463990Y-85955160D02*
X59438179Y-85546564D01*
X59463990Y-88453848D02*
X59463990Y-85955160D01*
X59494466Y-88756161D02*
X59463990Y-88453848D01*
X59581871Y-89037736D02*
X59494466Y-88756161D01*
X59720171Y-89292539D02*
X59581871Y-89037736D01*
X59903332Y-89514540D02*
X59720171Y-89292539D01*
X60125320Y-89697706D02*
X59903332Y-89514540D01*
X60380100Y-89836007D02*
X60125320Y-89697706D01*
X60661638Y-89923411D02*
X60380100Y-89836007D01*
X60963900Y-89953886D02*
X60661638Y-89923411D01*
X81980100Y-89953886D02*
X60963900Y-89953886D01*
X82386962Y-89912814D02*
X81980100Y-89953886D01*
X82766015Y-89795033D02*
X82386962Y-89912814D01*
X83109111Y-89608691D02*
X82766015Y-89795033D01*
X83408100Y-89361939D02*
X83109111Y-89608691D01*
X83654832Y-89062926D02*
X83408100Y-89361939D01*
X83841159Y-88719803D02*
X83654832Y-89062926D01*
X83958931Y-88340719D02*
X83841159Y-88719803D01*
X84000000Y-87933825D02*
X83958931Y-88340719D01*
X84000000Y-41473800D02*
X84000000Y-87933825D01*
X83958931Y-41066937D02*
X84000000Y-41473800D01*
X83841159Y-40687884D02*
X83958931Y-41066937D01*
X83654832Y-40344788D02*
X83841159Y-40687884D01*
X83408100Y-40045800D02*
X83654832Y-40344788D01*
X83109111Y-39799067D02*
X83408100Y-40045800D01*
X82766015Y-39612740D02*
X83109111Y-39799067D01*
X82386962Y-39494968D02*
X82766015Y-39612740D01*
X81980100Y-39453900D02*
X82386962Y-39494968D01*
X32019975Y-39453900D02*
X81980100Y-39453900D01*
X31613108Y-39494968D02*
X32019975Y-39453900D01*
X31234046Y-39612740D02*
X31613108Y-39494968D01*
X30890938Y-39799067D02*
X31234046Y-39612740D01*
X30591936Y-40045800D02*
X30890938Y-39799067D01*
X30345190Y-40344788D02*
X30591936Y-40045800D01*
X30158851Y-40687884D02*
X30345190Y-40344788D01*
X30041071Y-41066937D02*
X30158851Y-40687884D01*
X30000000Y-41473800D02*
X30041071Y-41066937D01*
X30000000Y-87933825D02*
X30000000Y-41473800D01*
X30041071Y-88340719D02*
X30000000Y-87933825D01*
X30158851Y-88719803D02*
X30041071Y-88340719D01*
X30345190Y-89062926D02*
X30158851Y-88719803D01*
X30591936Y-89361939D02*
X30345190Y-89062926D01*
X30890938Y-89608691D02*
X30591936Y-89361939D01*
X31234046Y-89795033D02*
X30890938Y-89608691D01*
X31613108Y-89912814D02*
X31234046Y-89795033D01*
X32019975Y-89953886D02*
X31613108Y-89912814D01*
X47895290Y-89953886D02*
X32019975Y-89953886D01*
X48187726Y-89924406D02*
X47895290Y-89953886D01*
X48460101Y-89839856D02*
X48187726Y-89924406D01*
X48706581Y-89706069D02*
X48460101Y-89839856D01*
X48921331Y-89528881D02*
X48706581Y-89706069D01*
X49098515Y-89314124D02*
X48921331Y-89528881D01*
X49232300Y-89067633D02*
X49098515Y-89314124D01*
X49316850Y-88795241D02*
X49232300Y-89067633D01*
X49346330Y-88502784D02*
X49316850Y-88795241D01*
M02*
