%TF.GenerationSoftware,KiCad,Pcbnew,(5.1.12)-1*%
%TF.CreationDate,2023-01-19T10:38:35-07:00*%
%TF.ProjectId,SpritePCB,53707269-7465-4504-9342-2e6b69636164,rev?*%
%TF.SameCoordinates,Original*%
%TF.FileFunction,Legend,Top*%
%TF.FilePolarity,Positive*%
%FSLAX46Y46*%
G04 Gerber Fmt 4.6, Leading zero omitted, Abs format (unit mm)*
G04 Created by KiCad (PCBNEW (5.1.12)-1) date 2023-01-19 10:38:35*
%MOMM*%
%LPD*%
G01*
G04 APERTURE LIST*
%ADD10C,0.120000*%
%ADD11C,0.150000*%
%ADD12C,0.300000*%
%ADD13C,0.250000*%
G04 APERTURE END LIST*
D10*
X75184000Y-61341000D02*
X75438000Y-60325000D01*
X76708000Y-60706000D02*
X75184000Y-61341000D01*
X75819000Y-59563000D02*
X76708000Y-60706000D01*
X75438000Y-60325000D02*
X75819000Y-59563000D01*
X73787000Y-59690000D02*
X75438000Y-60325000D01*
D11*
X67211285Y-57897000D02*
X67175571Y-57861285D01*
X67104142Y-57754142D01*
X67068428Y-57682714D01*
X67032714Y-57575571D01*
X66996999Y-57397000D01*
X66996999Y-57254142D01*
X67032714Y-57075571D01*
X67068428Y-56968428D01*
X67104142Y-56897000D01*
X67175571Y-56789857D01*
X67211285Y-56754142D01*
X67389857Y-56861285D02*
X67818428Y-56861285D01*
X67604142Y-57611285D02*
X67604142Y-56861285D01*
X68068428Y-57611285D02*
X68068428Y-56861285D01*
X68389857Y-57611285D02*
X68389857Y-57218428D01*
X68354142Y-57147000D01*
X68282714Y-57111285D01*
X68175571Y-57111285D01*
X68104142Y-57147000D01*
X68068428Y-57182714D01*
X68747000Y-57611285D02*
X68747000Y-57111285D01*
X68747000Y-56861285D02*
X68711285Y-56897000D01*
X68747000Y-56932714D01*
X68782714Y-56897000D01*
X68747000Y-56861285D01*
X68747000Y-56932714D01*
X69068428Y-57575571D02*
X69139857Y-57611285D01*
X69282714Y-57611285D01*
X69354142Y-57575571D01*
X69389857Y-57504142D01*
X69389857Y-57468428D01*
X69354142Y-57397000D01*
X69282714Y-57361285D01*
X69175571Y-57361285D01*
X69104142Y-57325571D01*
X69068428Y-57254142D01*
X69068428Y-57218428D01*
X69104142Y-57147000D01*
X69175571Y-57111285D01*
X69282714Y-57111285D01*
X69354142Y-57147000D01*
X70389857Y-57611285D02*
X70318428Y-57575571D01*
X70282714Y-57539857D01*
X70247000Y-57468428D01*
X70247000Y-57254142D01*
X70282714Y-57182714D01*
X70318428Y-57147000D01*
X70389857Y-57111285D01*
X70497000Y-57111285D01*
X70568428Y-57147000D01*
X70604142Y-57182714D01*
X70639857Y-57254142D01*
X70639857Y-57468428D01*
X70604142Y-57539857D01*
X70568428Y-57575571D01*
X70497000Y-57611285D01*
X70389857Y-57611285D01*
X70961285Y-57111285D02*
X70961285Y-57611285D01*
X70961285Y-57182714D02*
X70997000Y-57147000D01*
X71068428Y-57111285D01*
X71175571Y-57111285D01*
X71247000Y-57147000D01*
X71282714Y-57218428D01*
X71282714Y-57611285D01*
X71925571Y-57575571D02*
X71854142Y-57611285D01*
X71711285Y-57611285D01*
X71639857Y-57575571D01*
X71604142Y-57504142D01*
X71604142Y-57218428D01*
X71639857Y-57147000D01*
X71711285Y-57111285D01*
X71854142Y-57111285D01*
X71925571Y-57147000D01*
X71961285Y-57218428D01*
X71961285Y-57289857D01*
X71604142Y-57361285D01*
X73175571Y-57575571D02*
X73104142Y-57611285D01*
X72961285Y-57611285D01*
X72889857Y-57575571D01*
X72854142Y-57539857D01*
X72818428Y-57468428D01*
X72818428Y-57254142D01*
X72854142Y-57182714D01*
X72889857Y-57147000D01*
X72961285Y-57111285D01*
X73104142Y-57111285D01*
X73175571Y-57147000D01*
X73604142Y-57611285D02*
X73532714Y-57575571D01*
X73497000Y-57539857D01*
X73461285Y-57468428D01*
X73461285Y-57254142D01*
X73497000Y-57182714D01*
X73532714Y-57147000D01*
X73604142Y-57111285D01*
X73711285Y-57111285D01*
X73782714Y-57147000D01*
X73818428Y-57182714D01*
X73854142Y-57254142D01*
X73854142Y-57468428D01*
X73818428Y-57539857D01*
X73782714Y-57575571D01*
X73711285Y-57611285D01*
X73604142Y-57611285D01*
X74282714Y-57611285D02*
X74211285Y-57575571D01*
X74175571Y-57539857D01*
X74139857Y-57468428D01*
X74139857Y-57254142D01*
X74175571Y-57182714D01*
X74211285Y-57147000D01*
X74282714Y-57111285D01*
X74389857Y-57111285D01*
X74461285Y-57147000D01*
X74497000Y-57182714D01*
X74532714Y-57254142D01*
X74532714Y-57468428D01*
X74497000Y-57539857D01*
X74461285Y-57575571D01*
X74389857Y-57611285D01*
X74282714Y-57611285D01*
X74961285Y-57611285D02*
X74889857Y-57575571D01*
X74854142Y-57504142D01*
X74854142Y-56861285D01*
X75211285Y-57575571D02*
X75282714Y-57611285D01*
X75425571Y-57611285D01*
X75497000Y-57575571D01*
X75532714Y-57504142D01*
X75532714Y-57468428D01*
X75497000Y-57397000D01*
X75425571Y-57361285D01*
X75318428Y-57361285D01*
X75247000Y-57325571D01*
X75211285Y-57254142D01*
X75211285Y-57218428D01*
X75247000Y-57147000D01*
X75318428Y-57111285D01*
X75425571Y-57111285D01*
X75497000Y-57147000D01*
X67979142Y-58386285D02*
X68157714Y-58886285D01*
X68336285Y-58386285D02*
X68157714Y-58886285D01*
X68086285Y-59064857D01*
X68050571Y-59100571D01*
X67979142Y-59136285D01*
X68729142Y-58886285D02*
X68657714Y-58850571D01*
X68622000Y-58814857D01*
X68586285Y-58743428D01*
X68586285Y-58529142D01*
X68622000Y-58457714D01*
X68657714Y-58422000D01*
X68729142Y-58386285D01*
X68836285Y-58386285D01*
X68907714Y-58422000D01*
X68943428Y-58457714D01*
X68979142Y-58529142D01*
X68979142Y-58743428D01*
X68943428Y-58814857D01*
X68907714Y-58850571D01*
X68836285Y-58886285D01*
X68729142Y-58886285D01*
X69622000Y-58386285D02*
X69622000Y-58886285D01*
X69300571Y-58386285D02*
X69300571Y-58779142D01*
X69336285Y-58850571D01*
X69407714Y-58886285D01*
X69514857Y-58886285D01*
X69586285Y-58850571D01*
X69622000Y-58814857D01*
X69979142Y-58886285D02*
X69979142Y-58386285D01*
X69979142Y-58529142D02*
X70014857Y-58457714D01*
X70050571Y-58422000D01*
X70122000Y-58386285D01*
X70193428Y-58386285D01*
X71014857Y-58386285D02*
X71014857Y-59136285D01*
X71014857Y-58422000D02*
X71086285Y-58386285D01*
X71229142Y-58386285D01*
X71300571Y-58422000D01*
X71336285Y-58457714D01*
X71372000Y-58529142D01*
X71372000Y-58743428D01*
X71336285Y-58814857D01*
X71300571Y-58850571D01*
X71229142Y-58886285D01*
X71086285Y-58886285D01*
X71014857Y-58850571D01*
X71800571Y-58886285D02*
X71729142Y-58850571D01*
X71693428Y-58779142D01*
X71693428Y-58136285D01*
X72407714Y-58886285D02*
X72407714Y-58493428D01*
X72372000Y-58422000D01*
X72300571Y-58386285D01*
X72157714Y-58386285D01*
X72086285Y-58422000D01*
X72407714Y-58850571D02*
X72336285Y-58886285D01*
X72157714Y-58886285D01*
X72086285Y-58850571D01*
X72050571Y-58779142D01*
X72050571Y-58707714D01*
X72086285Y-58636285D01*
X72157714Y-58600571D01*
X72336285Y-58600571D01*
X72407714Y-58564857D01*
X72729142Y-58850571D02*
X72800571Y-58886285D01*
X72943428Y-58886285D01*
X73014857Y-58850571D01*
X73050571Y-58779142D01*
X73050571Y-58743428D01*
X73014857Y-58672000D01*
X72943428Y-58636285D01*
X72836285Y-58636285D01*
X72764857Y-58600571D01*
X72729142Y-58529142D01*
X72729142Y-58493428D01*
X72764857Y-58422000D01*
X72836285Y-58386285D01*
X72943428Y-58386285D01*
X73014857Y-58422000D01*
X73264857Y-58386285D02*
X73550571Y-58386285D01*
X73372000Y-58136285D02*
X73372000Y-58779142D01*
X73407714Y-58850571D01*
X73479142Y-58886285D01*
X73550571Y-58886285D01*
X73800571Y-58886285D02*
X73800571Y-58386285D01*
X73800571Y-58136285D02*
X73764857Y-58172000D01*
X73800571Y-58207714D01*
X73836285Y-58172000D01*
X73800571Y-58136285D01*
X73800571Y-58207714D01*
X74479142Y-58850571D02*
X74407714Y-58886285D01*
X74264857Y-58886285D01*
X74193428Y-58850571D01*
X74157714Y-58814857D01*
X74122000Y-58743428D01*
X74122000Y-58529142D01*
X74157714Y-58457714D01*
X74193428Y-58422000D01*
X74264857Y-58386285D01*
X74407714Y-58386285D01*
X74479142Y-58422000D01*
X69639857Y-59661285D02*
X69925571Y-59661285D01*
X69747000Y-59411285D02*
X69747000Y-60054142D01*
X69782714Y-60125571D01*
X69854142Y-60161285D01*
X69925571Y-60161285D01*
X70175571Y-60161285D02*
X70175571Y-59661285D01*
X70175571Y-59804142D02*
X70211285Y-59732714D01*
X70247000Y-59697000D01*
X70318428Y-59661285D01*
X70389857Y-59661285D01*
X70961285Y-60161285D02*
X70961285Y-59768428D01*
X70925571Y-59697000D01*
X70854142Y-59661285D01*
X70711285Y-59661285D01*
X70639857Y-59697000D01*
X70961285Y-60125571D02*
X70889857Y-60161285D01*
X70711285Y-60161285D01*
X70639857Y-60125571D01*
X70604142Y-60054142D01*
X70604142Y-59982714D01*
X70639857Y-59911285D01*
X70711285Y-59875571D01*
X70889857Y-59875571D01*
X70961285Y-59839857D01*
X71282714Y-60125571D02*
X71354142Y-60161285D01*
X71497000Y-60161285D01*
X71568428Y-60125571D01*
X71604142Y-60054142D01*
X71604142Y-60018428D01*
X71568428Y-59947000D01*
X71497000Y-59911285D01*
X71389857Y-59911285D01*
X71318428Y-59875571D01*
X71282714Y-59804142D01*
X71282714Y-59768428D01*
X71318428Y-59697000D01*
X71389857Y-59661285D01*
X71497000Y-59661285D01*
X71568428Y-59697000D01*
X71925571Y-60161285D02*
X71925571Y-59411285D01*
X72247000Y-60161285D02*
X72247000Y-59768428D01*
X72211285Y-59697000D01*
X72139857Y-59661285D01*
X72032714Y-59661285D01*
X71961285Y-59697000D01*
X71925571Y-59732714D01*
X72532714Y-60447000D02*
X72568428Y-60411285D01*
X72639857Y-60304142D01*
X72675571Y-60232714D01*
X72711285Y-60125571D01*
X72747000Y-59947000D01*
X72747000Y-59804142D01*
X72711285Y-59625571D01*
X72675571Y-59518428D01*
X72639857Y-59447000D01*
X72568428Y-59339857D01*
X72532714Y-59304142D01*
D10*
X74803000Y-68326000D02*
X75311000Y-67310000D01*
X76962000Y-68326000D02*
X74803000Y-68326000D01*
X75819000Y-66548000D02*
X76962000Y-68326000D01*
X75311000Y-67310000D02*
X75819000Y-66548000D01*
X73025000Y-65913000D02*
X75311000Y-67310000D01*
X75565000Y-64770000D02*
X75057000Y-63754000D01*
X76454000Y-62992000D02*
X75565000Y-64770000D01*
X74549000Y-62865000D02*
X76454000Y-62992000D01*
X75057000Y-63754000D02*
X74549000Y-62865000D01*
X72898000Y-64770000D02*
X75057000Y-63754000D01*
X74803000Y-74803000D02*
X75184000Y-73660000D01*
X76835000Y-74422000D02*
X74803000Y-74803000D01*
X75438000Y-72898000D02*
X76835000Y-74422000D01*
X75184000Y-73660000D02*
X75438000Y-72898000D01*
X73533000Y-73152000D02*
X75184000Y-73660000D01*
X71374000Y-82169000D02*
X72263000Y-81280000D01*
X73533000Y-82550000D02*
X71374000Y-82169000D01*
X72898000Y-80518000D02*
X73533000Y-82550000D01*
X72263000Y-81280000D02*
X72898000Y-80518000D01*
X69596000Y-79248000D02*
X72263000Y-81280000D01*
X46736000Y-82169000D02*
X45720000Y-81534000D01*
X44958000Y-82804000D02*
X46736000Y-82169000D01*
X44958000Y-81026000D02*
X44958000Y-82804000D01*
X45720000Y-81534000D02*
X44958000Y-81026000D01*
X46863000Y-80137000D02*
X45720000Y-81534000D01*
X36703000Y-70993000D02*
X35814000Y-70866000D01*
X35560000Y-72136000D02*
X36703000Y-70993000D01*
X35052000Y-70739000D02*
X35560000Y-72136000D01*
X35814000Y-70866000D02*
X35052000Y-70739000D01*
X36322000Y-68580000D02*
X35814000Y-70866000D01*
D11*
X75214452Y-48745666D02*
X75690642Y-48745666D01*
X75119214Y-49031380D02*
X75452547Y-48031380D01*
X75785880Y-49031380D01*
X76119214Y-48364714D02*
X76119214Y-49364714D01*
X76119214Y-48412333D02*
X76214452Y-48364714D01*
X76404928Y-48364714D01*
X76500166Y-48412333D01*
X76547785Y-48459952D01*
X76595404Y-48555190D01*
X76595404Y-48840904D01*
X76547785Y-48936142D01*
X76500166Y-48983761D01*
X76404928Y-49031380D01*
X76214452Y-49031380D01*
X76119214Y-48983761D01*
X77023976Y-48364714D02*
X77023976Y-49364714D01*
X77023976Y-48412333D02*
X77119214Y-48364714D01*
X77309690Y-48364714D01*
X77404928Y-48412333D01*
X77452547Y-48459952D01*
X77500166Y-48555190D01*
X77500166Y-48840904D01*
X77452547Y-48936142D01*
X77404928Y-48983761D01*
X77309690Y-49031380D01*
X77119214Y-49031380D01*
X77023976Y-48983761D01*
X78357309Y-49031380D02*
X78357309Y-48507571D01*
X78309690Y-48412333D01*
X78214452Y-48364714D01*
X78023976Y-48364714D01*
X77928738Y-48412333D01*
X78357309Y-48983761D02*
X78262071Y-49031380D01*
X78023976Y-49031380D01*
X77928738Y-48983761D01*
X77881119Y-48888523D01*
X77881119Y-48793285D01*
X77928738Y-48698047D01*
X78023976Y-48650428D01*
X78262071Y-48650428D01*
X78357309Y-48602809D01*
X78833500Y-49031380D02*
X78833500Y-48364714D01*
X78833500Y-48555190D02*
X78881119Y-48459952D01*
X78928738Y-48412333D01*
X79023976Y-48364714D01*
X79119214Y-48364714D01*
X79833500Y-48983761D02*
X79738261Y-49031380D01*
X79547785Y-49031380D01*
X79452547Y-48983761D01*
X79404928Y-48888523D01*
X79404928Y-48507571D01*
X79452547Y-48412333D01*
X79547785Y-48364714D01*
X79738261Y-48364714D01*
X79833500Y-48412333D01*
X79881119Y-48507571D01*
X79881119Y-48602809D01*
X79404928Y-48698047D01*
X80309690Y-48364714D02*
X80309690Y-49031380D01*
X80309690Y-48459952D02*
X80357309Y-48412333D01*
X80452547Y-48364714D01*
X80595404Y-48364714D01*
X80690642Y-48412333D01*
X80738261Y-48507571D01*
X80738261Y-49031380D01*
X81071595Y-48364714D02*
X81452547Y-48364714D01*
X81214452Y-48031380D02*
X81214452Y-48888523D01*
X81262071Y-48983761D01*
X81357309Y-49031380D01*
X81452547Y-49031380D01*
X81928738Y-49031380D02*
X81833500Y-48983761D01*
X81785880Y-48888523D01*
X81785880Y-48031380D01*
X82214452Y-48364714D02*
X82452547Y-49031380D01*
X82690642Y-48364714D02*
X82452547Y-49031380D01*
X82357309Y-49269476D01*
X82309690Y-49317095D01*
X82214452Y-49364714D01*
X75357309Y-50681380D02*
X75357309Y-49681380D01*
X75357309Y-50633761D02*
X75262071Y-50681380D01*
X75071595Y-50681380D01*
X74976357Y-50633761D01*
X74928738Y-50586142D01*
X74881119Y-50490904D01*
X74881119Y-50205190D01*
X74928738Y-50109952D01*
X74976357Y-50062333D01*
X75071595Y-50014714D01*
X75262071Y-50014714D01*
X75357309Y-50062333D01*
X76214452Y-50633761D02*
X76119214Y-50681380D01*
X75928738Y-50681380D01*
X75833500Y-50633761D01*
X75785880Y-50538523D01*
X75785880Y-50157571D01*
X75833500Y-50062333D01*
X75928738Y-50014714D01*
X76119214Y-50014714D01*
X76214452Y-50062333D01*
X76262071Y-50157571D01*
X76262071Y-50252809D01*
X75785880Y-50348047D01*
X77119214Y-50633761D02*
X77023976Y-50681380D01*
X76833500Y-50681380D01*
X76738261Y-50633761D01*
X76690642Y-50586142D01*
X76643023Y-50490904D01*
X76643023Y-50205190D01*
X76690642Y-50109952D01*
X76738261Y-50062333D01*
X76833500Y-50014714D01*
X77023976Y-50014714D01*
X77119214Y-50062333D01*
X77690642Y-50681380D02*
X77595404Y-50633761D01*
X77547785Y-50586142D01*
X77500166Y-50490904D01*
X77500166Y-50205190D01*
X77547785Y-50109952D01*
X77595404Y-50062333D01*
X77690642Y-50014714D01*
X77833500Y-50014714D01*
X77928738Y-50062333D01*
X77976357Y-50109952D01*
X78023976Y-50205190D01*
X78023976Y-50490904D01*
X77976357Y-50586142D01*
X77928738Y-50633761D01*
X77833500Y-50681380D01*
X77690642Y-50681380D01*
X78881119Y-50014714D02*
X78881119Y-50681380D01*
X78452547Y-50014714D02*
X78452547Y-50538523D01*
X78500166Y-50633761D01*
X78595404Y-50681380D01*
X78738261Y-50681380D01*
X78833500Y-50633761D01*
X78881119Y-50586142D01*
X79357309Y-50014714D02*
X79357309Y-51014714D01*
X79357309Y-50062333D02*
X79452547Y-50014714D01*
X79643023Y-50014714D01*
X79738261Y-50062333D01*
X79785880Y-50109952D01*
X79833500Y-50205190D01*
X79833500Y-50490904D01*
X79785880Y-50586142D01*
X79738261Y-50633761D01*
X79643023Y-50681380D01*
X79452547Y-50681380D01*
X79357309Y-50633761D01*
X80404928Y-50681380D02*
X80309690Y-50633761D01*
X80262071Y-50538523D01*
X80262071Y-49681380D01*
X80785880Y-50681380D02*
X80785880Y-50014714D01*
X80785880Y-49681380D02*
X80738261Y-49729000D01*
X80785880Y-49776619D01*
X80833500Y-49729000D01*
X80785880Y-49681380D01*
X80785880Y-49776619D01*
X81262071Y-50014714D02*
X81262071Y-50681380D01*
X81262071Y-50109952D02*
X81309690Y-50062333D01*
X81404928Y-50014714D01*
X81547785Y-50014714D01*
X81643023Y-50062333D01*
X81690642Y-50157571D01*
X81690642Y-50681380D01*
X82595404Y-50014714D02*
X82595404Y-50824238D01*
X82547785Y-50919476D01*
X82500166Y-50967095D01*
X82404928Y-51014714D01*
X82262071Y-51014714D01*
X82166833Y-50967095D01*
X82595404Y-50633761D02*
X82500166Y-50681380D01*
X82309690Y-50681380D01*
X82214452Y-50633761D01*
X82166833Y-50586142D01*
X82119214Y-50490904D01*
X82119214Y-50205190D01*
X82166833Y-50109952D01*
X82214452Y-50062333D01*
X82309690Y-50014714D01*
X82500166Y-50014714D01*
X82595404Y-50062333D01*
X79833500Y-52331380D02*
X79833500Y-51664714D01*
X79833500Y-51331380D02*
X79785880Y-51379000D01*
X79833500Y-51426619D01*
X79881119Y-51379000D01*
X79833500Y-51331380D01*
X79833500Y-51426619D01*
X80262071Y-52283761D02*
X80357309Y-52331380D01*
X80547785Y-52331380D01*
X80643023Y-52283761D01*
X80690642Y-52188523D01*
X80690642Y-52140904D01*
X80643023Y-52045666D01*
X80547785Y-51998047D01*
X80404928Y-51998047D01*
X80309690Y-51950428D01*
X80262071Y-51855190D01*
X80262071Y-51807571D01*
X80309690Y-51712333D01*
X80404928Y-51664714D01*
X80547785Y-51664714D01*
X80643023Y-51712333D01*
X81119214Y-51664714D02*
X81119214Y-52331380D01*
X81119214Y-51759952D02*
X81166833Y-51712333D01*
X81262071Y-51664714D01*
X81404928Y-51664714D01*
X81500166Y-51712333D01*
X81547785Y-51807571D01*
X81547785Y-52331380D01*
X82071595Y-51331380D02*
X81976357Y-51521857D01*
X82357309Y-51664714D02*
X82738261Y-51664714D01*
X82500166Y-51331380D02*
X82500166Y-52188523D01*
X82547785Y-52283761D01*
X82643023Y-52331380D01*
X82738261Y-52331380D01*
X75023976Y-53981380D02*
X75023976Y-53314714D01*
X75023976Y-52981380D02*
X74976357Y-53029000D01*
X75023976Y-53076619D01*
X75071595Y-53029000D01*
X75023976Y-52981380D01*
X75023976Y-53076619D01*
X75500166Y-53981380D02*
X75500166Y-53314714D01*
X75500166Y-53409952D02*
X75547785Y-53362333D01*
X75643023Y-53314714D01*
X75785880Y-53314714D01*
X75881119Y-53362333D01*
X75928738Y-53457571D01*
X75928738Y-53981380D01*
X75928738Y-53457571D02*
X75976357Y-53362333D01*
X76071595Y-53314714D01*
X76214452Y-53314714D01*
X76309690Y-53362333D01*
X76357309Y-53457571D01*
X76357309Y-53981380D01*
X76833500Y-53314714D02*
X76833500Y-54314714D01*
X76833500Y-53362333D02*
X76928738Y-53314714D01*
X77119214Y-53314714D01*
X77214452Y-53362333D01*
X77262071Y-53409952D01*
X77309690Y-53505190D01*
X77309690Y-53790904D01*
X77262071Y-53886142D01*
X77214452Y-53933761D01*
X77119214Y-53981380D01*
X76928738Y-53981380D01*
X76833500Y-53933761D01*
X77881119Y-53981380D02*
X77785880Y-53933761D01*
X77738261Y-53886142D01*
X77690642Y-53790904D01*
X77690642Y-53505190D01*
X77738261Y-53409952D01*
X77785880Y-53362333D01*
X77881119Y-53314714D01*
X78023976Y-53314714D01*
X78119214Y-53362333D01*
X78166833Y-53409952D01*
X78214452Y-53505190D01*
X78214452Y-53790904D01*
X78166833Y-53886142D01*
X78119214Y-53933761D01*
X78023976Y-53981380D01*
X77881119Y-53981380D01*
X78643023Y-53981380D02*
X78643023Y-53314714D01*
X78643023Y-53505190D02*
X78690642Y-53409952D01*
X78738261Y-53362333D01*
X78833500Y-53314714D01*
X78928738Y-53314714D01*
X79119214Y-53314714D02*
X79500166Y-53314714D01*
X79262071Y-52981380D02*
X79262071Y-53838523D01*
X79309690Y-53933761D01*
X79404928Y-53981380D01*
X79500166Y-53981380D01*
X80262071Y-53981380D02*
X80262071Y-53457571D01*
X80214452Y-53362333D01*
X80119214Y-53314714D01*
X79928738Y-53314714D01*
X79833500Y-53362333D01*
X80262071Y-53933761D02*
X80166833Y-53981380D01*
X79928738Y-53981380D01*
X79833500Y-53933761D01*
X79785880Y-53838523D01*
X79785880Y-53743285D01*
X79833500Y-53648047D01*
X79928738Y-53600428D01*
X80166833Y-53600428D01*
X80262071Y-53552809D01*
X80738261Y-53314714D02*
X80738261Y-53981380D01*
X80738261Y-53409952D02*
X80785880Y-53362333D01*
X80881119Y-53314714D01*
X81023976Y-53314714D01*
X81119214Y-53362333D01*
X81166833Y-53457571D01*
X81166833Y-53981380D01*
X81500166Y-53314714D02*
X81881119Y-53314714D01*
X81643023Y-52981380D02*
X81643023Y-53838523D01*
X81690642Y-53933761D01*
X81785880Y-53981380D01*
X81881119Y-53981380D01*
X82357309Y-53886142D02*
X82404928Y-53933761D01*
X82357309Y-53981380D01*
X82309690Y-53933761D01*
X82357309Y-53886142D01*
X82357309Y-53981380D01*
X82166833Y-53029000D02*
X82262071Y-52981380D01*
X82500166Y-52981380D01*
X82595404Y-53029000D01*
X82643023Y-53124238D01*
X82643023Y-53219476D01*
X82595404Y-53314714D01*
X82547785Y-53362333D01*
X82452547Y-53409952D01*
X82404928Y-53457571D01*
X82357309Y-53552809D01*
X82357309Y-53600428D01*
X65588000Y-65000666D02*
X66064190Y-65000666D01*
X65492761Y-65286380D02*
X65826095Y-64286380D01*
X66159428Y-65286380D01*
X66492761Y-65286380D02*
X66492761Y-64286380D01*
X67064190Y-65286380D01*
X67064190Y-64286380D01*
X67540380Y-65286380D02*
X67540380Y-64286380D01*
X68111809Y-65286380D01*
X68111809Y-64286380D01*
X68778476Y-64286380D02*
X68968952Y-64286380D01*
X69064190Y-64334000D01*
X69159428Y-64429238D01*
X69207047Y-64619714D01*
X69207047Y-64953047D01*
X69159428Y-65143523D01*
X69064190Y-65238761D01*
X68968952Y-65286380D01*
X68778476Y-65286380D01*
X68683238Y-65238761D01*
X68588000Y-65143523D01*
X68540380Y-64953047D01*
X68540380Y-64619714D01*
X68588000Y-64429238D01*
X68683238Y-64334000D01*
X68778476Y-64286380D01*
X69826095Y-64810190D02*
X69826095Y-65286380D01*
X69492761Y-64286380D02*
X69826095Y-64810190D01*
X70159428Y-64286380D01*
X70492761Y-65286380D02*
X70492761Y-64286380D01*
X70968952Y-65286380D02*
X70968952Y-64286380D01*
X71540380Y-65286380D01*
X71540380Y-64286380D01*
X72540380Y-64334000D02*
X72445142Y-64286380D01*
X72302285Y-64286380D01*
X72159428Y-64334000D01*
X72064190Y-64429238D01*
X72016571Y-64524476D01*
X71968952Y-64714952D01*
X71968952Y-64857809D01*
X72016571Y-65048285D01*
X72064190Y-65143523D01*
X72159428Y-65238761D01*
X72302285Y-65286380D01*
X72397523Y-65286380D01*
X72540380Y-65238761D01*
X72588000Y-65191142D01*
X72588000Y-64857809D01*
X72397523Y-64857809D01*
X67111809Y-66936380D02*
X67111809Y-65936380D01*
X67683238Y-66936380D01*
X67683238Y-65936380D01*
X68349904Y-65936380D02*
X68540380Y-65936380D01*
X68635619Y-65984000D01*
X68730857Y-66079238D01*
X68778476Y-66269714D01*
X68778476Y-66603047D01*
X68730857Y-66793523D01*
X68635619Y-66888761D01*
X68540380Y-66936380D01*
X68349904Y-66936380D01*
X68254666Y-66888761D01*
X68159428Y-66793523D01*
X68111809Y-66603047D01*
X68111809Y-66269714D01*
X68159428Y-66079238D01*
X68254666Y-65984000D01*
X68349904Y-65936380D01*
X69207047Y-66936380D02*
X69207047Y-65936380D01*
X69635619Y-66888761D02*
X69778476Y-66936380D01*
X70016571Y-66936380D01*
X70111809Y-66888761D01*
X70159428Y-66841142D01*
X70207047Y-66745904D01*
X70207047Y-66650666D01*
X70159428Y-66555428D01*
X70111809Y-66507809D01*
X70016571Y-66460190D01*
X69826095Y-66412571D01*
X69730857Y-66364952D01*
X69683238Y-66317333D01*
X69635619Y-66222095D01*
X69635619Y-66126857D01*
X69683238Y-66031619D01*
X69730857Y-65984000D01*
X69826095Y-65936380D01*
X70064190Y-65936380D01*
X70207047Y-65984000D01*
X70635619Y-66412571D02*
X70968952Y-66412571D01*
X71111809Y-66936380D02*
X70635619Y-66936380D01*
X70635619Y-65936380D01*
X71111809Y-65936380D01*
X64357761Y-71493571D02*
X64500619Y-71541190D01*
X64548238Y-71588809D01*
X64595857Y-71684047D01*
X64595857Y-71826904D01*
X64548238Y-71922142D01*
X64500619Y-71969761D01*
X64405380Y-72017380D01*
X64024428Y-72017380D01*
X64024428Y-71017380D01*
X64357761Y-71017380D01*
X64453000Y-71065000D01*
X64500619Y-71112619D01*
X64548238Y-71207857D01*
X64548238Y-71303095D01*
X64500619Y-71398333D01*
X64453000Y-71445952D01*
X64357761Y-71493571D01*
X64024428Y-71493571D01*
X65167285Y-72017380D02*
X65072047Y-71969761D01*
X65024428Y-71874523D01*
X65024428Y-71017380D01*
X65548238Y-72017380D02*
X65548238Y-71350714D01*
X65548238Y-71017380D02*
X65500619Y-71065000D01*
X65548238Y-71112619D01*
X65595857Y-71065000D01*
X65548238Y-71017380D01*
X65548238Y-71112619D01*
X66024428Y-71350714D02*
X66024428Y-72017380D01*
X66024428Y-71445952D02*
X66072047Y-71398333D01*
X66167285Y-71350714D01*
X66310142Y-71350714D01*
X66405380Y-71398333D01*
X66453000Y-71493571D01*
X66453000Y-72017380D01*
X66929190Y-72017380D02*
X66929190Y-71017380D01*
X67024428Y-71636428D02*
X67310142Y-72017380D01*
X67310142Y-71350714D02*
X66929190Y-71731666D01*
X67643476Y-71350714D02*
X67881571Y-72017380D01*
X68119666Y-71350714D02*
X67881571Y-72017380D01*
X67786333Y-72255476D01*
X67738714Y-72303095D01*
X67643476Y-72350714D01*
X68500619Y-71636428D02*
X69262523Y-71636428D01*
X69738714Y-72017380D02*
X69738714Y-71017380D01*
X69738714Y-71398333D02*
X69833952Y-71350714D01*
X70024428Y-71350714D01*
X70119666Y-71398333D01*
X70167285Y-71445952D01*
X70214904Y-71541190D01*
X70214904Y-71826904D01*
X70167285Y-71922142D01*
X70119666Y-71969761D01*
X70024428Y-72017380D01*
X69833952Y-72017380D01*
X69738714Y-71969761D01*
X70786333Y-72017380D02*
X70691095Y-71969761D01*
X70643476Y-71874523D01*
X70643476Y-71017380D01*
X71167285Y-72017380D02*
X71167285Y-71350714D01*
X71167285Y-71017380D02*
X71119666Y-71065000D01*
X71167285Y-71112619D01*
X71214904Y-71065000D01*
X71167285Y-71017380D01*
X71167285Y-71112619D01*
X71643476Y-71350714D02*
X71643476Y-72017380D01*
X71643476Y-71445952D02*
X71691095Y-71398333D01*
X71786333Y-71350714D01*
X71929190Y-71350714D01*
X72024428Y-71398333D01*
X72072047Y-71493571D01*
X72072047Y-72017380D01*
X72548238Y-72017380D02*
X72548238Y-71017380D01*
X72643476Y-71636428D02*
X72929190Y-72017380D01*
X72929190Y-71350714D02*
X72548238Y-71731666D01*
X64381571Y-73619761D02*
X64286333Y-73667380D01*
X64095857Y-73667380D01*
X64000619Y-73619761D01*
X63953000Y-73572142D01*
X63905380Y-73476904D01*
X63905380Y-73191190D01*
X63953000Y-73095952D01*
X64000619Y-73048333D01*
X64095857Y-73000714D01*
X64286333Y-73000714D01*
X64381571Y-73048333D01*
X64953000Y-73667380D02*
X64857761Y-73619761D01*
X64810142Y-73524523D01*
X64810142Y-72667380D01*
X65333952Y-73667380D02*
X65333952Y-73000714D01*
X65333952Y-72667380D02*
X65286333Y-72715000D01*
X65333952Y-72762619D01*
X65381571Y-72715000D01*
X65333952Y-72667380D01*
X65333952Y-72762619D01*
X66238714Y-73619761D02*
X66143476Y-73667380D01*
X65953000Y-73667380D01*
X65857761Y-73619761D01*
X65810142Y-73572142D01*
X65762523Y-73476904D01*
X65762523Y-73191190D01*
X65810142Y-73095952D01*
X65857761Y-73048333D01*
X65953000Y-73000714D01*
X66143476Y-73000714D01*
X66238714Y-73048333D01*
X66667285Y-73667380D02*
X66667285Y-72667380D01*
X66762523Y-73286428D02*
X67048238Y-73667380D01*
X67048238Y-73000714D02*
X66667285Y-73381666D01*
X67381571Y-73000714D02*
X67619666Y-73667380D01*
X67857761Y-73000714D02*
X67619666Y-73667380D01*
X67524428Y-73905476D01*
X67476809Y-73953095D01*
X67381571Y-74000714D01*
X68238714Y-73286428D02*
X69000619Y-73286428D01*
X69905380Y-73619761D02*
X69810142Y-73667380D01*
X69619666Y-73667380D01*
X69524428Y-73619761D01*
X69476809Y-73572142D01*
X69429190Y-73476904D01*
X69429190Y-73191190D01*
X69476809Y-73095952D01*
X69524428Y-73048333D01*
X69619666Y-73000714D01*
X69810142Y-73000714D01*
X69905380Y-73048333D01*
X70476809Y-73667380D02*
X70381571Y-73619761D01*
X70333952Y-73524523D01*
X70333952Y-72667380D01*
X71286333Y-73667380D02*
X71286333Y-73143571D01*
X71238714Y-73048333D01*
X71143476Y-73000714D01*
X70953000Y-73000714D01*
X70857761Y-73048333D01*
X71286333Y-73619761D02*
X71191095Y-73667380D01*
X70953000Y-73667380D01*
X70857761Y-73619761D01*
X70810142Y-73524523D01*
X70810142Y-73429285D01*
X70857761Y-73334047D01*
X70953000Y-73286428D01*
X71191095Y-73286428D01*
X71286333Y-73238809D01*
X72191095Y-73619761D02*
X72095857Y-73667380D01*
X71905380Y-73667380D01*
X71810142Y-73619761D01*
X71762523Y-73572142D01*
X71714904Y-73476904D01*
X71714904Y-73191190D01*
X71762523Y-73095952D01*
X71810142Y-73048333D01*
X71905380Y-73000714D01*
X72095857Y-73000714D01*
X72191095Y-73048333D01*
X72619666Y-73667380D02*
X72619666Y-72667380D01*
X72714904Y-73286428D02*
X73000619Y-73667380D01*
X73000619Y-73000714D02*
X72619666Y-73381666D01*
X61198761Y-77351380D02*
X61198761Y-76351380D01*
X61198761Y-76827571D02*
X61770190Y-76827571D01*
X61770190Y-77351380D02*
X61770190Y-76351380D01*
X62674952Y-77351380D02*
X62674952Y-76827571D01*
X62627333Y-76732333D01*
X62532095Y-76684714D01*
X62341619Y-76684714D01*
X62246380Y-76732333D01*
X62674952Y-77303761D02*
X62579714Y-77351380D01*
X62341619Y-77351380D01*
X62246380Y-77303761D01*
X62198761Y-77208523D01*
X62198761Y-77113285D01*
X62246380Y-77018047D01*
X62341619Y-76970428D01*
X62579714Y-76970428D01*
X62674952Y-76922809D01*
X63151142Y-77351380D02*
X63151142Y-76351380D01*
X63579714Y-77351380D02*
X63579714Y-76827571D01*
X63532095Y-76732333D01*
X63436857Y-76684714D01*
X63294000Y-76684714D01*
X63198761Y-76732333D01*
X63151142Y-76779952D01*
X64484476Y-77351380D02*
X64484476Y-76827571D01*
X64436857Y-76732333D01*
X64341619Y-76684714D01*
X64151142Y-76684714D01*
X64055904Y-76732333D01*
X64484476Y-77303761D02*
X64389238Y-77351380D01*
X64151142Y-77351380D01*
X64055904Y-77303761D01*
X64008285Y-77208523D01*
X64008285Y-77113285D01*
X64055904Y-77018047D01*
X64151142Y-76970428D01*
X64389238Y-76970428D01*
X64484476Y-76922809D01*
X64960666Y-77351380D02*
X64960666Y-76351380D01*
X65389238Y-77351380D02*
X65389238Y-76827571D01*
X65341619Y-76732333D01*
X65246380Y-76684714D01*
X65103523Y-76684714D01*
X65008285Y-76732333D01*
X64960666Y-76779952D01*
X66294000Y-77351380D02*
X66294000Y-76827571D01*
X66246380Y-76732333D01*
X66151142Y-76684714D01*
X65960666Y-76684714D01*
X65865428Y-76732333D01*
X66294000Y-77303761D02*
X66198761Y-77351380D01*
X65960666Y-77351380D01*
X65865428Y-77303761D01*
X65817809Y-77208523D01*
X65817809Y-77113285D01*
X65865428Y-77018047D01*
X65960666Y-76970428D01*
X66198761Y-76970428D01*
X66294000Y-76922809D01*
X67532095Y-77351380D02*
X67532095Y-76684714D01*
X67532095Y-76779952D02*
X67579714Y-76732333D01*
X67674952Y-76684714D01*
X67817809Y-76684714D01*
X67913047Y-76732333D01*
X67960666Y-76827571D01*
X67960666Y-77351380D01*
X67960666Y-76827571D02*
X68008285Y-76732333D01*
X68103523Y-76684714D01*
X68246380Y-76684714D01*
X68341619Y-76732333D01*
X68389238Y-76827571D01*
X68389238Y-77351380D01*
X69008285Y-77351380D02*
X68913047Y-77303761D01*
X68865428Y-77256142D01*
X68817809Y-77160904D01*
X68817809Y-76875190D01*
X68865428Y-76779952D01*
X68913047Y-76732333D01*
X69008285Y-76684714D01*
X69151142Y-76684714D01*
X69246380Y-76732333D01*
X69294000Y-76779952D01*
X69341619Y-76875190D01*
X69341619Y-77160904D01*
X69294000Y-77256142D01*
X69246380Y-77303761D01*
X69151142Y-77351380D01*
X69008285Y-77351380D01*
X69627333Y-76684714D02*
X70008285Y-76684714D01*
X69770190Y-76351380D02*
X69770190Y-77208523D01*
X69817809Y-77303761D01*
X69913047Y-77351380D01*
X70008285Y-77351380D01*
X70484476Y-77351380D02*
X70389238Y-77303761D01*
X70341619Y-77256142D01*
X70294000Y-77160904D01*
X70294000Y-76875190D01*
X70341619Y-76779952D01*
X70389238Y-76732333D01*
X70484476Y-76684714D01*
X70627333Y-76684714D01*
X70722571Y-76732333D01*
X70770190Y-76779952D01*
X70817809Y-76875190D01*
X70817809Y-77160904D01*
X70770190Y-77256142D01*
X70722571Y-77303761D01*
X70627333Y-77351380D01*
X70484476Y-77351380D01*
X71246380Y-77351380D02*
X71246380Y-76684714D01*
X71246380Y-76875190D02*
X71294000Y-76779952D01*
X71341619Y-76732333D01*
X71436857Y-76684714D01*
X71532095Y-76684714D01*
X63674952Y-78334714D02*
X63674952Y-79144238D01*
X63627333Y-79239476D01*
X63579714Y-79287095D01*
X63484476Y-79334714D01*
X63341619Y-79334714D01*
X63246380Y-79287095D01*
X63674952Y-78953761D02*
X63579714Y-79001380D01*
X63389238Y-79001380D01*
X63294000Y-78953761D01*
X63246380Y-78906142D01*
X63198761Y-78810904D01*
X63198761Y-78525190D01*
X63246380Y-78429952D01*
X63294000Y-78382333D01*
X63389238Y-78334714D01*
X63579714Y-78334714D01*
X63674952Y-78382333D01*
X64294000Y-79001380D02*
X64198761Y-78953761D01*
X64151142Y-78906142D01*
X64103523Y-78810904D01*
X64103523Y-78525190D01*
X64151142Y-78429952D01*
X64198761Y-78382333D01*
X64294000Y-78334714D01*
X64436857Y-78334714D01*
X64532095Y-78382333D01*
X64579714Y-78429952D01*
X64627333Y-78525190D01*
X64627333Y-78810904D01*
X64579714Y-78906142D01*
X64532095Y-78953761D01*
X64436857Y-79001380D01*
X64294000Y-79001380D01*
X65817809Y-79001380D02*
X65817809Y-78001380D01*
X65817809Y-78382333D02*
X65913047Y-78334714D01*
X66103523Y-78334714D01*
X66198761Y-78382333D01*
X66246380Y-78429952D01*
X66294000Y-78525190D01*
X66294000Y-78810904D01*
X66246380Y-78906142D01*
X66198761Y-78953761D01*
X66103523Y-79001380D01*
X65913047Y-79001380D01*
X65817809Y-78953761D01*
X66722571Y-79001380D02*
X66722571Y-78334714D01*
X66722571Y-78525190D02*
X66770190Y-78429952D01*
X66817809Y-78382333D01*
X66913047Y-78334714D01*
X67008285Y-78334714D01*
X67341619Y-79001380D02*
X67341619Y-78334714D01*
X67341619Y-78525190D02*
X67389238Y-78429952D01*
X67436857Y-78382333D01*
X67532095Y-78334714D01*
X67627333Y-78334714D01*
X67960666Y-79001380D02*
X67960666Y-78334714D01*
X67960666Y-78525190D02*
X68008285Y-78429952D01*
X68055904Y-78382333D01*
X68151142Y-78334714D01*
X68246380Y-78334714D01*
X68579714Y-79001380D02*
X68579714Y-78334714D01*
X68579714Y-78525190D02*
X68627333Y-78429952D01*
X68674952Y-78382333D01*
X68770190Y-78334714D01*
X68865428Y-78334714D01*
X69198761Y-79001380D02*
X69198761Y-78334714D01*
X69198761Y-78525190D02*
X69246380Y-78429952D01*
X69294000Y-78382333D01*
X69389238Y-78334714D01*
X69484476Y-78334714D01*
X44434809Y-77415380D02*
X44434809Y-76415380D01*
X44434809Y-76891571D02*
X45006238Y-76891571D01*
X45006238Y-77415380D02*
X45006238Y-76415380D01*
X45625285Y-77415380D02*
X45530047Y-77367761D01*
X45482428Y-77320142D01*
X45434809Y-77224904D01*
X45434809Y-76939190D01*
X45482428Y-76843952D01*
X45530047Y-76796333D01*
X45625285Y-76748714D01*
X45768142Y-76748714D01*
X45863380Y-76796333D01*
X45911000Y-76843952D01*
X45958619Y-76939190D01*
X45958619Y-77224904D01*
X45911000Y-77320142D01*
X45863380Y-77367761D01*
X45768142Y-77415380D01*
X45625285Y-77415380D01*
X46244333Y-76748714D02*
X46625285Y-76748714D01*
X46387190Y-76415380D02*
X46387190Y-77272523D01*
X46434809Y-77367761D01*
X46530047Y-77415380D01*
X46625285Y-77415380D01*
X46958619Y-77034428D02*
X47720523Y-77034428D01*
X48149095Y-77367761D02*
X48244333Y-77415380D01*
X48434809Y-77415380D01*
X48530047Y-77367761D01*
X48577666Y-77272523D01*
X48577666Y-77224904D01*
X48530047Y-77129666D01*
X48434809Y-77082047D01*
X48291952Y-77082047D01*
X48196714Y-77034428D01*
X48149095Y-76939190D01*
X48149095Y-76891571D01*
X48196714Y-76796333D01*
X48291952Y-76748714D01*
X48434809Y-76748714D01*
X48530047Y-76796333D01*
X49387190Y-77367761D02*
X49291952Y-77415380D01*
X49101476Y-77415380D01*
X49006238Y-77367761D01*
X48958619Y-77272523D01*
X48958619Y-76891571D01*
X49006238Y-76796333D01*
X49101476Y-76748714D01*
X49291952Y-76748714D01*
X49387190Y-76796333D01*
X49434809Y-76891571D01*
X49434809Y-76986809D01*
X48958619Y-77082047D01*
X49863380Y-76748714D02*
X49863380Y-77415380D01*
X49863380Y-76843952D02*
X49911000Y-76796333D01*
X50006238Y-76748714D01*
X50149095Y-76748714D01*
X50244333Y-76796333D01*
X50291952Y-76891571D01*
X50291952Y-77415380D01*
X50720523Y-77367761D02*
X50815761Y-77415380D01*
X51006238Y-77415380D01*
X51101476Y-77367761D01*
X51149095Y-77272523D01*
X51149095Y-77224904D01*
X51101476Y-77129666D01*
X51006238Y-77082047D01*
X50863380Y-77082047D01*
X50768142Y-77034428D01*
X50720523Y-76939190D01*
X50720523Y-76891571D01*
X50768142Y-76796333D01*
X50863380Y-76748714D01*
X51006238Y-76748714D01*
X51101476Y-76796333D01*
X51482428Y-76748714D02*
X51720523Y-77415380D01*
X51958619Y-76748714D02*
X51720523Y-77415380D01*
X51625285Y-77653476D01*
X51577666Y-77701095D01*
X51482428Y-77748714D01*
X52339571Y-77034428D02*
X53101476Y-77034428D01*
X53577666Y-77415380D02*
X53577666Y-76415380D01*
X53577666Y-76796333D02*
X53672904Y-76748714D01*
X53863380Y-76748714D01*
X53958619Y-76796333D01*
X54006238Y-76843952D01*
X54053857Y-76939190D01*
X54053857Y-77224904D01*
X54006238Y-77320142D01*
X53958619Y-77367761D01*
X53863380Y-77415380D01*
X53672904Y-77415380D01*
X53577666Y-77367761D01*
X54625285Y-77415380D02*
X54530047Y-77367761D01*
X54482428Y-77320142D01*
X54434809Y-77224904D01*
X54434809Y-76939190D01*
X54482428Y-76843952D01*
X54530047Y-76796333D01*
X54625285Y-76748714D01*
X54768142Y-76748714D01*
X54863380Y-76796333D01*
X54911000Y-76843952D01*
X54958619Y-76939190D01*
X54958619Y-77224904D01*
X54911000Y-77320142D01*
X54863380Y-77367761D01*
X54768142Y-77415380D01*
X54625285Y-77415380D01*
X55387190Y-77415380D02*
X55387190Y-76748714D01*
X55387190Y-76415380D02*
X55339571Y-76463000D01*
X55387190Y-76510619D01*
X55434809Y-76463000D01*
X55387190Y-76415380D01*
X55387190Y-76510619D01*
X47053857Y-78398714D02*
X47053857Y-79398714D01*
X47053857Y-78446333D02*
X47149095Y-78398714D01*
X47339571Y-78398714D01*
X47434809Y-78446333D01*
X47482428Y-78493952D01*
X47530047Y-78589190D01*
X47530047Y-78874904D01*
X47482428Y-78970142D01*
X47434809Y-79017761D01*
X47339571Y-79065380D01*
X47149095Y-79065380D01*
X47053857Y-79017761D01*
X48101476Y-79065380D02*
X48006238Y-79017761D01*
X47958619Y-78922523D01*
X47958619Y-78065380D01*
X48911000Y-78398714D02*
X48911000Y-79065380D01*
X48482428Y-78398714D02*
X48482428Y-78922523D01*
X48530047Y-79017761D01*
X48625285Y-79065380D01*
X48768142Y-79065380D01*
X48863380Y-79017761D01*
X48911000Y-78970142D01*
X49815761Y-78398714D02*
X49815761Y-79208238D01*
X49768142Y-79303476D01*
X49720523Y-79351095D01*
X49625285Y-79398714D01*
X49482428Y-79398714D01*
X49387190Y-79351095D01*
X49815761Y-79017761D02*
X49720523Y-79065380D01*
X49530047Y-79065380D01*
X49434809Y-79017761D01*
X49387190Y-78970142D01*
X49339571Y-78874904D01*
X49339571Y-78589190D01*
X49387190Y-78493952D01*
X49434809Y-78446333D01*
X49530047Y-78398714D01*
X49720523Y-78398714D01*
X49815761Y-78446333D01*
X50244333Y-79017761D02*
X50339571Y-79065380D01*
X50530047Y-79065380D01*
X50625285Y-79017761D01*
X50672904Y-78922523D01*
X50672904Y-78874904D01*
X50625285Y-78779666D01*
X50530047Y-78732047D01*
X50387190Y-78732047D01*
X50291952Y-78684428D01*
X50244333Y-78589190D01*
X50244333Y-78541571D01*
X50291952Y-78446333D01*
X50387190Y-78398714D01*
X50530047Y-78398714D01*
X50625285Y-78446333D01*
X51863380Y-79065380D02*
X51863380Y-78398714D01*
X51863380Y-78065380D02*
X51815761Y-78113000D01*
X51863380Y-78160619D01*
X51911000Y-78113000D01*
X51863380Y-78065380D01*
X51863380Y-78160619D01*
X52339571Y-78398714D02*
X52339571Y-79065380D01*
X52339571Y-78493952D02*
X52387190Y-78446333D01*
X52482428Y-78398714D01*
X52625285Y-78398714D01*
X52720523Y-78446333D01*
X52768142Y-78541571D01*
X52768142Y-79065380D01*
X48530047Y-80715380D02*
X48530047Y-79715380D01*
X48958619Y-80715380D02*
X48958619Y-80191571D01*
X48911000Y-80096333D01*
X48815761Y-80048714D01*
X48672904Y-80048714D01*
X48577666Y-80096333D01*
X48530047Y-80143952D01*
X49815761Y-80667761D02*
X49720523Y-80715380D01*
X49530047Y-80715380D01*
X49434809Y-80667761D01*
X49387190Y-80572523D01*
X49387190Y-80191571D01*
X49434809Y-80096333D01*
X49530047Y-80048714D01*
X49720523Y-80048714D01*
X49815761Y-80096333D01*
X49863380Y-80191571D01*
X49863380Y-80286809D01*
X49387190Y-80382047D01*
X50291952Y-80715380D02*
X50291952Y-80048714D01*
X50291952Y-80239190D02*
X50339571Y-80143952D01*
X50387190Y-80096333D01*
X50482428Y-80048714D01*
X50577666Y-80048714D01*
X51291952Y-80667761D02*
X51196714Y-80715380D01*
X51006238Y-80715380D01*
X50911000Y-80667761D01*
X50863380Y-80572523D01*
X50863380Y-80191571D01*
X50911000Y-80096333D01*
X51006238Y-80048714D01*
X51196714Y-80048714D01*
X51291952Y-80096333D01*
X51339571Y-80191571D01*
X51339571Y-80286809D01*
X50863380Y-80382047D01*
X32909285Y-66175380D02*
X32909285Y-65175380D01*
X32909285Y-65651571D02*
X33480714Y-65651571D01*
X33480714Y-66175380D02*
X33480714Y-65175380D01*
X34099761Y-66175380D02*
X34004523Y-66127761D01*
X33956904Y-66080142D01*
X33909285Y-65984904D01*
X33909285Y-65699190D01*
X33956904Y-65603952D01*
X34004523Y-65556333D01*
X34099761Y-65508714D01*
X34242619Y-65508714D01*
X34337857Y-65556333D01*
X34385476Y-65603952D01*
X34433095Y-65699190D01*
X34433095Y-65984904D01*
X34385476Y-66080142D01*
X34337857Y-66127761D01*
X34242619Y-66175380D01*
X34099761Y-66175380D01*
X34718809Y-65508714D02*
X35099761Y-65508714D01*
X34861666Y-65175380D02*
X34861666Y-66032523D01*
X34909285Y-66127761D01*
X35004523Y-66175380D01*
X35099761Y-66175380D01*
X36052142Y-65508714D02*
X36433095Y-65508714D01*
X36195000Y-65175380D02*
X36195000Y-66032523D01*
X36242619Y-66127761D01*
X36337857Y-66175380D01*
X36433095Y-66175380D01*
X36766428Y-66175380D02*
X36766428Y-65175380D01*
X37195000Y-66175380D02*
X37195000Y-65651571D01*
X37147380Y-65556333D01*
X37052142Y-65508714D01*
X36909285Y-65508714D01*
X36814047Y-65556333D01*
X36766428Y-65603952D01*
X37671190Y-66175380D02*
X37671190Y-65508714D01*
X37671190Y-65175380D02*
X37623571Y-65223000D01*
X37671190Y-65270619D01*
X37718809Y-65223000D01*
X37671190Y-65175380D01*
X37671190Y-65270619D01*
X38147380Y-65508714D02*
X38147380Y-66175380D01*
X38147380Y-65603952D02*
X38195000Y-65556333D01*
X38290238Y-65508714D01*
X38433095Y-65508714D01*
X38528333Y-65556333D01*
X38575952Y-65651571D01*
X38575952Y-66175380D01*
X39480714Y-65508714D02*
X39480714Y-66318238D01*
X39433095Y-66413476D01*
X39385476Y-66461095D01*
X39290238Y-66508714D01*
X39147380Y-66508714D01*
X39052142Y-66461095D01*
X39480714Y-66127761D02*
X39385476Y-66175380D01*
X39195000Y-66175380D01*
X39099761Y-66127761D01*
X39052142Y-66080142D01*
X39004523Y-65984904D01*
X39004523Y-65699190D01*
X39052142Y-65603952D01*
X39099761Y-65556333D01*
X39195000Y-65508714D01*
X39385476Y-65508714D01*
X39480714Y-65556333D01*
X33123571Y-67158714D02*
X33123571Y-67968238D01*
X33075952Y-68063476D01*
X33028333Y-68111095D01*
X32933095Y-68158714D01*
X32790238Y-68158714D01*
X32695000Y-68111095D01*
X33123571Y-67777761D02*
X33028333Y-67825380D01*
X32837857Y-67825380D01*
X32742619Y-67777761D01*
X32695000Y-67730142D01*
X32647380Y-67634904D01*
X32647380Y-67349190D01*
X32695000Y-67253952D01*
X32742619Y-67206333D01*
X32837857Y-67158714D01*
X33028333Y-67158714D01*
X33123571Y-67206333D01*
X33742619Y-67825380D02*
X33647380Y-67777761D01*
X33599761Y-67730142D01*
X33552142Y-67634904D01*
X33552142Y-67349190D01*
X33599761Y-67253952D01*
X33647380Y-67206333D01*
X33742619Y-67158714D01*
X33885476Y-67158714D01*
X33980714Y-67206333D01*
X34028333Y-67253952D01*
X34075952Y-67349190D01*
X34075952Y-67634904D01*
X34028333Y-67730142D01*
X33980714Y-67777761D01*
X33885476Y-67825380D01*
X33742619Y-67825380D01*
X34885476Y-67777761D02*
X34790238Y-67825380D01*
X34599761Y-67825380D01*
X34504523Y-67777761D01*
X34456904Y-67682523D01*
X34456904Y-67301571D01*
X34504523Y-67206333D01*
X34599761Y-67158714D01*
X34790238Y-67158714D01*
X34885476Y-67206333D01*
X34933095Y-67301571D01*
X34933095Y-67396809D01*
X34456904Y-67492047D01*
X35314047Y-67777761D02*
X35409285Y-67825380D01*
X35599761Y-67825380D01*
X35695000Y-67777761D01*
X35742619Y-67682523D01*
X35742619Y-67634904D01*
X35695000Y-67539666D01*
X35599761Y-67492047D01*
X35456904Y-67492047D01*
X35361666Y-67444428D01*
X35314047Y-67349190D01*
X35314047Y-67301571D01*
X35361666Y-67206333D01*
X35456904Y-67158714D01*
X35599761Y-67158714D01*
X35695000Y-67206333D01*
X36933095Y-67825380D02*
X36933095Y-66825380D01*
X37361666Y-67825380D02*
X37361666Y-67301571D01*
X37314047Y-67206333D01*
X37218809Y-67158714D01*
X37075952Y-67158714D01*
X36980714Y-67206333D01*
X36933095Y-67253952D01*
X38218809Y-67777761D02*
X38123571Y-67825380D01*
X37933095Y-67825380D01*
X37837857Y-67777761D01*
X37790238Y-67682523D01*
X37790238Y-67301571D01*
X37837857Y-67206333D01*
X37933095Y-67158714D01*
X38123571Y-67158714D01*
X38218809Y-67206333D01*
X38266428Y-67301571D01*
X38266428Y-67396809D01*
X37790238Y-67492047D01*
X38695000Y-67825380D02*
X38695000Y-67158714D01*
X38695000Y-67349190D02*
X38742619Y-67253952D01*
X38790238Y-67206333D01*
X38885476Y-67158714D01*
X38980714Y-67158714D01*
X39695000Y-67777761D02*
X39599761Y-67825380D01*
X39409285Y-67825380D01*
X39314047Y-67777761D01*
X39266428Y-67682523D01*
X39266428Y-67301571D01*
X39314047Y-67206333D01*
X39409285Y-67158714D01*
X39599761Y-67158714D01*
X39695000Y-67206333D01*
X39742619Y-67301571D01*
X39742619Y-67396809D01*
X39266428Y-67492047D01*
D10*
X54229000Y-48260000D02*
X53340000Y-48260000D01*
X53340000Y-46990000D02*
X54229000Y-48260000D01*
X52451000Y-48260000D02*
X53340000Y-46990000D01*
X53340000Y-48260000D02*
X52451000Y-48260000D01*
X53340000Y-52070000D02*
X53340000Y-48260000D01*
D12*
X49836571Y-54323142D02*
X50050857Y-54394571D01*
X50408000Y-54394571D01*
X50550857Y-54323142D01*
X50622285Y-54251714D01*
X50693714Y-54108857D01*
X50693714Y-53966000D01*
X50622285Y-53823142D01*
X50550857Y-53751714D01*
X50408000Y-53680285D01*
X50122285Y-53608857D01*
X49979428Y-53537428D01*
X49908000Y-53466000D01*
X49836571Y-53323142D01*
X49836571Y-53180285D01*
X49908000Y-53037428D01*
X49979428Y-52966000D01*
X50122285Y-52894571D01*
X50479428Y-52894571D01*
X50693714Y-52966000D01*
X51336571Y-54394571D02*
X51336571Y-52894571D01*
X51979428Y-54394571D02*
X51979428Y-53608857D01*
X51908000Y-53466000D01*
X51765142Y-53394571D01*
X51550857Y-53394571D01*
X51408000Y-53466000D01*
X51336571Y-53537428D01*
X52693714Y-54394571D02*
X52693714Y-53394571D01*
X52693714Y-52894571D02*
X52622285Y-52966000D01*
X52693714Y-53037428D01*
X52765142Y-52966000D01*
X52693714Y-52894571D01*
X52693714Y-53037428D01*
X53193714Y-53394571D02*
X53765142Y-53394571D01*
X53408000Y-52894571D02*
X53408000Y-54180285D01*
X53479428Y-54323142D01*
X53622285Y-54394571D01*
X53765142Y-54394571D01*
X54050857Y-53394571D02*
X54622285Y-53394571D01*
X54265142Y-52894571D02*
X54265142Y-54180285D01*
X54336571Y-54323142D01*
X54479428Y-54394571D01*
X54622285Y-54394571D01*
X54979428Y-53394571D02*
X55336571Y-54394571D01*
X55693714Y-53394571D02*
X55336571Y-54394571D01*
X55193714Y-54751714D01*
X55122285Y-54823142D01*
X54979428Y-54894571D01*
X57408000Y-54394571D02*
X57408000Y-52894571D01*
X57979428Y-52894571D01*
X58122285Y-52966000D01*
X58193714Y-53037428D01*
X58265142Y-53180285D01*
X58265142Y-53394571D01*
X58193714Y-53537428D01*
X58122285Y-53608857D01*
X57979428Y-53680285D01*
X57408000Y-53680285D01*
X58908000Y-54394571D02*
X58908000Y-53394571D01*
X58908000Y-53680285D02*
X58979428Y-53537428D01*
X59050857Y-53466000D01*
X59193714Y-53394571D01*
X59336571Y-53394571D01*
X59836571Y-54394571D02*
X59836571Y-53394571D01*
X59836571Y-52894571D02*
X59765142Y-52966000D01*
X59836571Y-53037428D01*
X59908000Y-52966000D01*
X59836571Y-52894571D01*
X59836571Y-53037428D01*
X60550857Y-53394571D02*
X60550857Y-54394571D01*
X60550857Y-53537428D02*
X60622285Y-53466000D01*
X60765142Y-53394571D01*
X60979428Y-53394571D01*
X61122285Y-53466000D01*
X61193714Y-53608857D01*
X61193714Y-54394571D01*
X61693714Y-53394571D02*
X62265142Y-53394571D01*
X61908000Y-52894571D02*
X61908000Y-54180285D01*
X61979428Y-54323142D01*
X62122285Y-54394571D01*
X62265142Y-54394571D01*
X63336571Y-54323142D02*
X63193714Y-54394571D01*
X62908000Y-54394571D01*
X62765142Y-54323142D01*
X62693714Y-54180285D01*
X62693714Y-53608857D01*
X62765142Y-53466000D01*
X62908000Y-53394571D01*
X63193714Y-53394571D01*
X63336571Y-53466000D01*
X63408000Y-53608857D01*
X63408000Y-53751714D01*
X62693714Y-53894571D01*
X64050857Y-54394571D02*
X64050857Y-53394571D01*
X64050857Y-53680285D02*
X64122285Y-53537428D01*
X64193714Y-53466000D01*
X64336571Y-53394571D01*
X64479428Y-53394571D01*
X53015142Y-55516000D02*
X52872285Y-55444571D01*
X52658000Y-55444571D01*
X52443714Y-55516000D01*
X52300857Y-55658857D01*
X52229428Y-55801714D01*
X52158000Y-56087428D01*
X52158000Y-56301714D01*
X52229428Y-56587428D01*
X52300857Y-56730285D01*
X52443714Y-56873142D01*
X52658000Y-56944571D01*
X52800857Y-56944571D01*
X53015142Y-56873142D01*
X53086571Y-56801714D01*
X53086571Y-56301714D01*
X52800857Y-56301714D01*
X53943714Y-56944571D02*
X53800857Y-56873142D01*
X53729428Y-56801714D01*
X53658000Y-56658857D01*
X53658000Y-56230285D01*
X53729428Y-56087428D01*
X53800857Y-56016000D01*
X53943714Y-55944571D01*
X54158000Y-55944571D01*
X54300857Y-56016000D01*
X54372285Y-56087428D01*
X54443714Y-56230285D01*
X54443714Y-56658857D01*
X54372285Y-56801714D01*
X54300857Y-56873142D01*
X54158000Y-56944571D01*
X53943714Y-56944571D01*
X55658000Y-56873142D02*
X55515142Y-56944571D01*
X55229428Y-56944571D01*
X55086571Y-56873142D01*
X55015142Y-56730285D01*
X55015142Y-56158857D01*
X55086571Y-56016000D01*
X55229428Y-55944571D01*
X55515142Y-55944571D01*
X55658000Y-56016000D01*
X55729428Y-56158857D01*
X55729428Y-56301714D01*
X55015142Y-56444571D01*
X56300857Y-56873142D02*
X56443714Y-56944571D01*
X56729428Y-56944571D01*
X56872285Y-56873142D01*
X56943714Y-56730285D01*
X56943714Y-56658857D01*
X56872285Y-56516000D01*
X56729428Y-56444571D01*
X56515142Y-56444571D01*
X56372285Y-56373142D01*
X56300857Y-56230285D01*
X56300857Y-56158857D01*
X56372285Y-56016000D01*
X56515142Y-55944571D01*
X56729428Y-55944571D01*
X56872285Y-56016000D01*
X58729428Y-56944571D02*
X58729428Y-55444571D01*
X58729428Y-56158857D02*
X59586571Y-56158857D01*
X59586571Y-56944571D02*
X59586571Y-55444571D01*
X60872285Y-56873142D02*
X60729428Y-56944571D01*
X60443714Y-56944571D01*
X60300857Y-56873142D01*
X60229428Y-56730285D01*
X60229428Y-56158857D01*
X60300857Y-56016000D01*
X60443714Y-55944571D01*
X60729428Y-55944571D01*
X60872285Y-56016000D01*
X60943714Y-56158857D01*
X60943714Y-56301714D01*
X60229428Y-56444571D01*
X61586571Y-56944571D02*
X61586571Y-55944571D01*
X61586571Y-56230285D02*
X61658000Y-56087428D01*
X61729428Y-56016000D01*
X61872285Y-55944571D01*
X62015142Y-55944571D01*
X63086571Y-56873142D02*
X62943714Y-56944571D01*
X62658000Y-56944571D01*
X62515142Y-56873142D01*
X62443714Y-56730285D01*
X62443714Y-56158857D01*
X62515142Y-56016000D01*
X62658000Y-55944571D01*
X62943714Y-55944571D01*
X63086571Y-56016000D01*
X63158000Y-56158857D01*
X63158000Y-56301714D01*
X62443714Y-56444571D01*
D13*
X31941333Y-52308476D02*
X32774666Y-52308476D01*
X32238952Y-53558476D01*
X33250857Y-53082285D02*
X34203238Y-53082285D01*
X34798476Y-52308476D02*
X34798476Y-53320380D01*
X34858000Y-53439428D01*
X34917523Y-53498952D01*
X35036571Y-53558476D01*
X35274666Y-53558476D01*
X35393714Y-53498952D01*
X35453238Y-53439428D01*
X35512761Y-53320380D01*
X35512761Y-52308476D01*
X36108000Y-52725142D02*
X36108000Y-53975142D01*
X36108000Y-52784666D02*
X36227047Y-52725142D01*
X36465142Y-52725142D01*
X36584190Y-52784666D01*
X36643714Y-52844190D01*
X36703238Y-52963238D01*
X36703238Y-53320380D01*
X36643714Y-53439428D01*
X36584190Y-53498952D01*
X36465142Y-53558476D01*
X36227047Y-53558476D01*
X36108000Y-53498952D01*
X38131809Y-53201333D02*
X38727047Y-53201333D01*
X38012761Y-53558476D02*
X38429428Y-52308476D01*
X38846095Y-53558476D01*
X39262761Y-53558476D02*
X39262761Y-52725142D01*
X39262761Y-52844190D02*
X39322285Y-52784666D01*
X39441333Y-52725142D01*
X39619904Y-52725142D01*
X39738952Y-52784666D01*
X39798476Y-52903714D01*
X39798476Y-53558476D01*
X39798476Y-52903714D02*
X39858000Y-52784666D01*
X39977047Y-52725142D01*
X40155619Y-52725142D01*
X40274666Y-52784666D01*
X40334190Y-52903714D01*
X40334190Y-53558476D01*
X41465142Y-53558476D02*
X41465142Y-52903714D01*
X41405619Y-52784666D01*
X41286571Y-52725142D01*
X41048476Y-52725142D01*
X40929428Y-52784666D01*
X41465142Y-53498952D02*
X41346095Y-53558476D01*
X41048476Y-53558476D01*
X40929428Y-53498952D01*
X40869904Y-53379904D01*
X40869904Y-53260857D01*
X40929428Y-53141809D01*
X41048476Y-53082285D01*
X41346095Y-53082285D01*
X41465142Y-53022761D01*
X41881809Y-52725142D02*
X42358000Y-52725142D01*
X42060380Y-52308476D02*
X42060380Y-53379904D01*
X42119904Y-53498952D01*
X42238952Y-53558476D01*
X42358000Y-53558476D01*
X43250857Y-53498952D02*
X43131809Y-53558476D01*
X42893714Y-53558476D01*
X42774666Y-53498952D01*
X42715142Y-53379904D01*
X42715142Y-52903714D01*
X42774666Y-52784666D01*
X42893714Y-52725142D01*
X43131809Y-52725142D01*
X43250857Y-52784666D01*
X43310380Y-52903714D01*
X43310380Y-53022761D01*
X42715142Y-53141809D01*
X44381809Y-52725142D02*
X44381809Y-53558476D01*
X43846095Y-52725142D02*
X43846095Y-53379904D01*
X43905619Y-53498952D01*
X44024666Y-53558476D01*
X44203238Y-53558476D01*
X44322285Y-53498952D01*
X44381809Y-53439428D01*
X44977047Y-53558476D02*
X44977047Y-52725142D01*
X44977047Y-52963238D02*
X45036571Y-52844190D01*
X45096095Y-52784666D01*
X45215142Y-52725142D01*
X45334190Y-52725142D01*
X35036571Y-55028714D02*
X35453238Y-55028714D01*
X35631809Y-55683476D02*
X35036571Y-55683476D01*
X35036571Y-54433476D01*
X35631809Y-54433476D01*
X36048476Y-55683476D02*
X36703238Y-54850142D01*
X36048476Y-54850142D02*
X36703238Y-55683476D01*
X37000857Y-54850142D02*
X37477047Y-54850142D01*
X37179428Y-54433476D02*
X37179428Y-55504904D01*
X37238952Y-55623952D01*
X37358000Y-55683476D01*
X37477047Y-55683476D01*
X37893714Y-55683476D02*
X37893714Y-54850142D01*
X37893714Y-55088238D02*
X37953238Y-54969190D01*
X38012761Y-54909666D01*
X38131809Y-54850142D01*
X38250857Y-54850142D01*
X39203238Y-54850142D02*
X39203238Y-55683476D01*
X38667523Y-54850142D02*
X38667523Y-55504904D01*
X38727047Y-55623952D01*
X38846095Y-55683476D01*
X39024666Y-55683476D01*
X39143714Y-55623952D01*
X39203238Y-55564428D01*
X40334190Y-55683476D02*
X40334190Y-54433476D01*
X40334190Y-55623952D02*
X40215142Y-55683476D01*
X39977047Y-55683476D01*
X39858000Y-55623952D01*
X39798476Y-55564428D01*
X39738952Y-55445380D01*
X39738952Y-55088238D01*
X39798476Y-54969190D01*
X39858000Y-54909666D01*
X39977047Y-54850142D01*
X40215142Y-54850142D01*
X40334190Y-54909666D01*
X41405619Y-55623952D02*
X41286571Y-55683476D01*
X41048476Y-55683476D01*
X40929428Y-55623952D01*
X40869904Y-55504904D01*
X40869904Y-55028714D01*
X40929428Y-54909666D01*
X41048476Y-54850142D01*
X41286571Y-54850142D01*
X41405619Y-54909666D01*
X41465142Y-55028714D01*
X41465142Y-55147761D01*
X40869904Y-55266809D01*
X42000857Y-55683476D02*
X42000857Y-54850142D01*
X42000857Y-55088238D02*
X42060380Y-54969190D01*
X42119904Y-54909666D01*
X42238952Y-54850142D01*
X42358000Y-54850142D01*
X31286571Y-57808476D02*
X30869904Y-57213238D01*
X30572285Y-57808476D02*
X30572285Y-56558476D01*
X31048476Y-56558476D01*
X31167523Y-56618000D01*
X31227047Y-56677523D01*
X31286571Y-56796571D01*
X31286571Y-56975142D01*
X31227047Y-57094190D01*
X31167523Y-57153714D01*
X31048476Y-57213238D01*
X30572285Y-57213238D01*
X32298476Y-57748952D02*
X32179428Y-57808476D01*
X31941333Y-57808476D01*
X31822285Y-57748952D01*
X31762761Y-57629904D01*
X31762761Y-57153714D01*
X31822285Y-57034666D01*
X31941333Y-56975142D01*
X32179428Y-56975142D01*
X32298476Y-57034666D01*
X32358000Y-57153714D01*
X32358000Y-57272761D01*
X31762761Y-57391809D01*
X32893714Y-56975142D02*
X32893714Y-58225142D01*
X32893714Y-57034666D02*
X33012761Y-56975142D01*
X33250857Y-56975142D01*
X33369904Y-57034666D01*
X33429428Y-57094190D01*
X33488952Y-57213238D01*
X33488952Y-57570380D01*
X33429428Y-57689428D01*
X33369904Y-57748952D01*
X33250857Y-57808476D01*
X33012761Y-57808476D01*
X32893714Y-57748952D01*
X34203238Y-57808476D02*
X34084190Y-57748952D01*
X34024666Y-57629904D01*
X34024666Y-56558476D01*
X35215142Y-57808476D02*
X35215142Y-57153714D01*
X35155619Y-57034666D01*
X35036571Y-56975142D01*
X34798476Y-56975142D01*
X34679428Y-57034666D01*
X35215142Y-57748952D02*
X35096095Y-57808476D01*
X34798476Y-57808476D01*
X34679428Y-57748952D01*
X34619904Y-57629904D01*
X34619904Y-57510857D01*
X34679428Y-57391809D01*
X34798476Y-57332285D01*
X35096095Y-57332285D01*
X35215142Y-57272761D01*
X36346095Y-57748952D02*
X36227047Y-57808476D01*
X35988952Y-57808476D01*
X35869904Y-57748952D01*
X35810380Y-57689428D01*
X35750857Y-57570380D01*
X35750857Y-57213238D01*
X35810380Y-57094190D01*
X35869904Y-57034666D01*
X35988952Y-56975142D01*
X36227047Y-56975142D01*
X36346095Y-57034666D01*
X37358000Y-57748952D02*
X37238952Y-57808476D01*
X37000857Y-57808476D01*
X36881809Y-57748952D01*
X36822285Y-57629904D01*
X36822285Y-57153714D01*
X36881809Y-57034666D01*
X37000857Y-56975142D01*
X37238952Y-56975142D01*
X37358000Y-57034666D01*
X37417523Y-57153714D01*
X37417523Y-57272761D01*
X36822285Y-57391809D01*
X37953238Y-57808476D02*
X37953238Y-56975142D01*
X37953238Y-57094190D02*
X38012761Y-57034666D01*
X38131809Y-56975142D01*
X38310380Y-56975142D01*
X38429428Y-57034666D01*
X38488952Y-57153714D01*
X38488952Y-57808476D01*
X38488952Y-57153714D02*
X38548476Y-57034666D01*
X38667523Y-56975142D01*
X38846095Y-56975142D01*
X38965142Y-57034666D01*
X39024666Y-57153714D01*
X39024666Y-57808476D01*
X40096095Y-57748952D02*
X39977047Y-57808476D01*
X39738952Y-57808476D01*
X39619904Y-57748952D01*
X39560380Y-57629904D01*
X39560380Y-57153714D01*
X39619904Y-57034666D01*
X39738952Y-56975142D01*
X39977047Y-56975142D01*
X40096095Y-57034666D01*
X40155619Y-57153714D01*
X40155619Y-57272761D01*
X39560380Y-57391809D01*
X40691333Y-56975142D02*
X40691333Y-57808476D01*
X40691333Y-57094190D02*
X40750857Y-57034666D01*
X40869904Y-56975142D01*
X41048476Y-56975142D01*
X41167523Y-57034666D01*
X41227047Y-57153714D01*
X41227047Y-57808476D01*
X41643714Y-56975142D02*
X42119904Y-56975142D01*
X41822285Y-56558476D02*
X41822285Y-57629904D01*
X41881809Y-57748952D01*
X42000857Y-57808476D01*
X42119904Y-57808476D01*
X43488952Y-57808476D02*
X43488952Y-56558476D01*
X43965142Y-56558476D01*
X44084190Y-56618000D01*
X44143714Y-56677523D01*
X44203238Y-56796571D01*
X44203238Y-56975142D01*
X44143714Y-57094190D01*
X44084190Y-57153714D01*
X43965142Y-57213238D01*
X43488952Y-57213238D01*
X45453238Y-57689428D02*
X45393714Y-57748952D01*
X45215142Y-57808476D01*
X45096095Y-57808476D01*
X44917523Y-57748952D01*
X44798476Y-57629904D01*
X44738952Y-57510857D01*
X44679428Y-57272761D01*
X44679428Y-57094190D01*
X44738952Y-56856095D01*
X44798476Y-56737047D01*
X44917523Y-56618000D01*
X45096095Y-56558476D01*
X45215142Y-56558476D01*
X45393714Y-56618000D01*
X45453238Y-56677523D01*
X46405619Y-57153714D02*
X46584190Y-57213238D01*
X46643714Y-57272761D01*
X46703238Y-57391809D01*
X46703238Y-57570380D01*
X46643714Y-57689428D01*
X46584190Y-57748952D01*
X46465142Y-57808476D01*
X45988952Y-57808476D01*
X45988952Y-56558476D01*
X46405619Y-56558476D01*
X46524666Y-56618000D01*
X46584190Y-56677523D01*
X46643714Y-56796571D01*
X46643714Y-56915619D01*
X46584190Y-57034666D01*
X46524666Y-57094190D01*
X46405619Y-57153714D01*
X45988952Y-57153714D01*
D12*
X33612000Y-48282714D02*
X33540571Y-48354142D01*
X33326285Y-48425571D01*
X33183428Y-48425571D01*
X32969142Y-48354142D01*
X32826285Y-48211285D01*
X32754857Y-48068428D01*
X32683428Y-47782714D01*
X32683428Y-47568428D01*
X32754857Y-47282714D01*
X32826285Y-47139857D01*
X32969142Y-46997000D01*
X33183428Y-46925571D01*
X33326285Y-46925571D01*
X33540571Y-46997000D01*
X33612000Y-47068428D01*
X34112000Y-47425571D02*
X34397714Y-48425571D01*
X34683428Y-47711285D01*
X34969142Y-48425571D01*
X35254857Y-47425571D01*
X35826285Y-48425571D02*
X35826285Y-47425571D01*
X35826285Y-47711285D02*
X35897714Y-47568428D01*
X35969142Y-47497000D01*
X36112000Y-47425571D01*
X36254857Y-47425571D01*
X36969142Y-48425571D02*
X36826285Y-48354142D01*
X36754857Y-48282714D01*
X36683428Y-48139857D01*
X36683428Y-47711285D01*
X36754857Y-47568428D01*
X36826285Y-47497000D01*
X36969142Y-47425571D01*
X37183428Y-47425571D01*
X37326285Y-47497000D01*
X37397714Y-47568428D01*
X37469142Y-47711285D01*
X37469142Y-48139857D01*
X37397714Y-48282714D01*
X37326285Y-48354142D01*
X37183428Y-48425571D01*
X36969142Y-48425571D01*
X38112000Y-47425571D02*
X38112000Y-48425571D01*
X38112000Y-47568428D02*
X38183428Y-47497000D01*
X38326285Y-47425571D01*
X38540571Y-47425571D01*
X38683428Y-47497000D01*
X38754857Y-47639857D01*
X38754857Y-48425571D01*
X40112000Y-47425571D02*
X40112000Y-48639857D01*
X40040571Y-48782714D01*
X39969142Y-48854142D01*
X39826285Y-48925571D01*
X39612000Y-48925571D01*
X39469142Y-48854142D01*
X40112000Y-48354142D02*
X39969142Y-48425571D01*
X39683428Y-48425571D01*
X39540571Y-48354142D01*
X39469142Y-48282714D01*
X39397714Y-48139857D01*
X39397714Y-47711285D01*
X39469142Y-47568428D01*
X39540571Y-47497000D01*
X39683428Y-47425571D01*
X39969142Y-47425571D01*
X40112000Y-47497000D01*
X41469142Y-48425571D02*
X41469142Y-47639857D01*
X41397714Y-47497000D01*
X41254857Y-47425571D01*
X40969142Y-47425571D01*
X40826285Y-47497000D01*
X41469142Y-48354142D02*
X41326285Y-48425571D01*
X40969142Y-48425571D01*
X40826285Y-48354142D01*
X40754857Y-48211285D01*
X40754857Y-48068428D01*
X40826285Y-47925571D01*
X40969142Y-47854142D01*
X41326285Y-47854142D01*
X41469142Y-47782714D01*
X42397714Y-48425571D02*
X42254857Y-48354142D01*
X42183428Y-48211285D01*
X42183428Y-46925571D01*
X42969142Y-48425571D02*
X42969142Y-47425571D01*
X42969142Y-46925571D02*
X42897714Y-46997000D01*
X42969142Y-47068428D01*
X43040571Y-46997000D01*
X42969142Y-46925571D01*
X42969142Y-47068428D01*
X43469142Y-47425571D02*
X44040571Y-47425571D01*
X43683428Y-46925571D02*
X43683428Y-48211285D01*
X43754857Y-48354142D01*
X43897714Y-48425571D01*
X44040571Y-48425571D01*
X44397714Y-47425571D02*
X44754857Y-48425571D01*
X45112000Y-47425571D02*
X44754857Y-48425571D01*
X44612000Y-48782714D01*
X44540571Y-48854142D01*
X44397714Y-48925571D01*
X32361999Y-50832714D02*
X32290571Y-50904142D01*
X32076285Y-50975571D01*
X31933428Y-50975571D01*
X31719142Y-50904142D01*
X31576285Y-50761285D01*
X31504857Y-50618428D01*
X31433428Y-50332714D01*
X31433428Y-50118428D01*
X31504857Y-49832714D01*
X31576285Y-49689857D01*
X31719142Y-49547000D01*
X31933428Y-49475571D01*
X32076285Y-49475571D01*
X32290571Y-49547000D01*
X32361999Y-49618428D01*
X33862000Y-50975571D02*
X33361999Y-50261285D01*
X33004857Y-50975571D02*
X33004857Y-49475571D01*
X33576285Y-49475571D01*
X33719142Y-49547000D01*
X33790571Y-49618428D01*
X33862000Y-49761285D01*
X33862000Y-49975571D01*
X33790571Y-50118428D01*
X33719142Y-50189857D01*
X33576285Y-50261285D01*
X33004857Y-50261285D01*
X34504857Y-50975571D02*
X34504857Y-49475571D01*
X35219142Y-50404142D02*
X36362000Y-50404142D01*
X37004857Y-49618428D02*
X37076285Y-49547000D01*
X37219142Y-49475571D01*
X37576285Y-49475571D01*
X37719142Y-49547000D01*
X37790571Y-49618428D01*
X37862000Y-49761285D01*
X37862000Y-49904142D01*
X37790571Y-50118428D01*
X36933428Y-50975571D01*
X37862000Y-50975571D01*
X39290571Y-50975571D02*
X38433428Y-50975571D01*
X38862000Y-50975571D02*
X38862000Y-49475571D01*
X38719142Y-49689857D01*
X38576285Y-49832714D01*
X38433428Y-49904142D01*
X40576285Y-49475571D02*
X40290571Y-49475571D01*
X40147714Y-49547000D01*
X40076285Y-49618428D01*
X39933428Y-49832714D01*
X39862000Y-50118428D01*
X39862000Y-50689857D01*
X39933428Y-50832714D01*
X40004857Y-50904142D01*
X40147714Y-50975571D01*
X40433428Y-50975571D01*
X40576285Y-50904142D01*
X40647714Y-50832714D01*
X40719142Y-50689857D01*
X40719142Y-50332714D01*
X40647714Y-50189857D01*
X40576285Y-50118428D01*
X40433428Y-50047000D01*
X40147714Y-50047000D01*
X40004857Y-50118428D01*
X39933428Y-50189857D01*
X39862000Y-50332714D01*
X42147714Y-50975571D02*
X41290571Y-50975571D01*
X41719142Y-50975571D02*
X41719142Y-49475571D01*
X41576285Y-49689857D01*
X41433428Y-49832714D01*
X41290571Y-49904142D01*
X42576285Y-49475571D02*
X43076285Y-50975571D01*
X43576285Y-49475571D01*
X44862000Y-50975571D02*
X44004857Y-50975571D01*
X44433428Y-50975571D02*
X44433428Y-49475571D01*
X44290571Y-49689857D01*
X44147714Y-49832714D01*
X44004857Y-49904142D01*
X45790571Y-49475571D02*
X45933428Y-49475571D01*
X46076285Y-49547000D01*
X46147714Y-49618428D01*
X46219142Y-49761285D01*
X46290571Y-50047000D01*
X46290571Y-50404142D01*
X46219142Y-50689857D01*
X46147714Y-50832714D01*
X46076285Y-50904142D01*
X45933428Y-50975571D01*
X45790571Y-50975571D01*
X45647714Y-50904142D01*
X45576285Y-50832714D01*
X45504857Y-50689857D01*
X45433428Y-50404142D01*
X45433428Y-50047000D01*
X45504857Y-49761285D01*
X45576285Y-49618428D01*
X45647714Y-49547000D01*
X45790571Y-49475571D01*
D10*
%TO.C,J1*%
X44758000Y-41485000D02*
X44758000Y-45605000D01*
X66818000Y-41485000D02*
X44758000Y-41485000D01*
X68878000Y-45605000D02*
X44758000Y-45605000D01*
X66818000Y-41485000D02*
X66818000Y-43545000D01*
X66818000Y-43545000D02*
X68878000Y-43545000D01*
X68878000Y-43545000D02*
X68878000Y-45605000D01*
X67818000Y-41485000D02*
X68878000Y-41485000D01*
X68878000Y-41485000D02*
X68878000Y-42545000D01*
%TO.C,J6*%
X27572000Y-72610900D02*
X27572000Y-80307100D01*
X27572000Y-80307100D02*
X39383000Y-80307100D01*
X39383000Y-80307100D02*
X39383000Y-72610900D01*
X39383000Y-72610900D02*
X27572000Y-72610900D01*
X36957000Y-75184000D02*
G75*
G03*
X36957000Y-75184000I-381000J0D01*
G01*
%TO.C,J7*%
X83715400Y-70204900D02*
X83715400Y-65455100D01*
X83715400Y-65455100D02*
X77467000Y-65455100D01*
X77467000Y-65455100D02*
X77467000Y-70204900D01*
X77467000Y-70204900D02*
X83715400Y-70204900D01*
X78105000Y-68580001D02*
G75*
G03*
X78105000Y-68580001I-381000J0D01*
G01*
%TO.C,J5*%
X41047100Y-89557400D02*
X45796900Y-89557400D01*
X45796900Y-89557400D02*
X45796900Y-83309000D01*
X45796900Y-83309000D02*
X41047100Y-83309000D01*
X41047100Y-83309000D02*
X41047100Y-89557400D01*
X43052999Y-83566000D02*
G75*
G03*
X43052999Y-83566000I-381000J0D01*
G01*
%TO.C,J4*%
X83715400Y-65124900D02*
X83715400Y-60375100D01*
X83715400Y-60375100D02*
X77467000Y-60375100D01*
X77467000Y-60375100D02*
X77467000Y-65124900D01*
X77467000Y-65124900D02*
X83715400Y-65124900D01*
X78105000Y-63500001D02*
G75*
G03*
X78105000Y-63500001I-381000J0D01*
G01*
%TO.C,J3*%
X83715400Y-79854801D02*
X83715400Y-70609201D01*
X83715400Y-70609201D02*
X77467000Y-70609201D01*
X77467000Y-70609201D02*
X77467000Y-79854801D01*
X77467000Y-79854801D02*
X83715400Y-79854801D01*
X78105000Y-78242000D02*
G75*
G03*
X78105000Y-78242000I-381000J0D01*
G01*
%TO.C,J2*%
X73764209Y-89354200D02*
X81562009Y-89354200D01*
X81562009Y-89354200D02*
X81562009Y-83055000D01*
X81562009Y-83055000D02*
X73764209Y-83055000D01*
X73764209Y-83055000D02*
X73764209Y-89354200D01*
X75819000Y-83312000D02*
G75*
G03*
X75819000Y-83312000I-381000J0D01*
G01*
%TO.C,C51*%
X72353000Y-49834748D02*
X72353000Y-51257252D01*
X69633000Y-49834748D02*
X69633000Y-51257252D01*
%TO.C,J1*%
D11*
X55826666Y-46321380D02*
X55826666Y-47035666D01*
X55779047Y-47178523D01*
X55683809Y-47273761D01*
X55540952Y-47321380D01*
X55445714Y-47321380D01*
X56826666Y-47321380D02*
X56255238Y-47321380D01*
X56540952Y-47321380D02*
X56540952Y-46321380D01*
X56445714Y-46464238D01*
X56350476Y-46559476D01*
X56255238Y-46607095D01*
%TO.C,J6*%
X30654666Y-70572380D02*
X30654666Y-71286666D01*
X30607047Y-71429523D01*
X30511809Y-71524761D01*
X30368952Y-71572380D01*
X30273714Y-71572380D01*
X31559428Y-70572380D02*
X31368952Y-70572380D01*
X31273714Y-70620000D01*
X31226095Y-70667619D01*
X31130857Y-70810476D01*
X31083238Y-71000952D01*
X31083238Y-71381904D01*
X31130857Y-71477142D01*
X31178476Y-71524761D01*
X31273714Y-71572380D01*
X31464190Y-71572380D01*
X31559428Y-71524761D01*
X31607047Y-71477142D01*
X31654666Y-71381904D01*
X31654666Y-71143809D01*
X31607047Y-71048571D01*
X31559428Y-71000952D01*
X31464190Y-70953333D01*
X31273714Y-70953333D01*
X31178476Y-71000952D01*
X31130857Y-71048571D01*
X31083238Y-71143809D01*
X37298380Y-75184000D02*
X37536476Y-75184000D01*
X37441238Y-75422095D02*
X37536476Y-75184000D01*
X37441238Y-74945904D01*
X37726952Y-75326857D02*
X37536476Y-75184000D01*
X37726952Y-75041142D01*
%TO.C,J7*%
X82343666Y-58888380D02*
X82343666Y-59602666D01*
X82296047Y-59745523D01*
X82200809Y-59840761D01*
X82057952Y-59888380D01*
X81962714Y-59888380D01*
X82724619Y-58888380D02*
X83391285Y-58888380D01*
X82962714Y-59888380D01*
X78446380Y-68580000D02*
X78684476Y-68580000D01*
X78589238Y-68818095D02*
X78684476Y-68580000D01*
X78589238Y-68341904D01*
X78874952Y-68722857D02*
X78684476Y-68580000D01*
X78874952Y-68437142D01*
%TO.C,J5*%
X46910666Y-88479380D02*
X46910666Y-89193666D01*
X46863047Y-89336523D01*
X46767809Y-89431761D01*
X46624952Y-89479380D01*
X46529714Y-89479380D01*
X47863047Y-88479380D02*
X47386857Y-88479380D01*
X47339238Y-88955571D01*
X47386857Y-88907952D01*
X47482095Y-88860333D01*
X47720190Y-88860333D01*
X47815428Y-88907952D01*
X47863047Y-88955571D01*
X47910666Y-89050809D01*
X47910666Y-89288904D01*
X47863047Y-89384142D01*
X47815428Y-89431761D01*
X47720190Y-89479380D01*
X47482095Y-89479380D01*
X47386857Y-89431761D01*
X47339238Y-89384142D01*
X42672000Y-84288380D02*
X42672000Y-84526476D01*
X42433904Y-84431238D02*
X42672000Y-84526476D01*
X42910095Y-84431238D01*
X42529142Y-84716952D02*
X42672000Y-84526476D01*
X42814857Y-84716952D01*
%TO.C,J4*%
X82343666Y-57364380D02*
X82343666Y-58078666D01*
X82296047Y-58221523D01*
X82200809Y-58316761D01*
X82057952Y-58364380D01*
X81962714Y-58364380D01*
X83248428Y-57697714D02*
X83248428Y-58364380D01*
X83010333Y-57316761D02*
X82772238Y-58031047D01*
X83391285Y-58031047D01*
X78446380Y-63500000D02*
X78684476Y-63500000D01*
X78589238Y-63738095D02*
X78684476Y-63500000D01*
X78589238Y-63261904D01*
X78874952Y-63642857D02*
X78684476Y-63500000D01*
X78874952Y-63357142D01*
%TO.C,J3*%
X81962666Y-80224380D02*
X81962666Y-80938666D01*
X81915047Y-81081523D01*
X81819809Y-81176761D01*
X81676952Y-81224380D01*
X81581714Y-81224380D01*
X82343619Y-80224380D02*
X82962666Y-80224380D01*
X82629333Y-80605333D01*
X82772190Y-80605333D01*
X82867428Y-80652952D01*
X82915047Y-80700571D01*
X82962666Y-80795809D01*
X82962666Y-81033904D01*
X82915047Y-81129142D01*
X82867428Y-81176761D01*
X82772190Y-81224380D01*
X82486476Y-81224380D01*
X82391238Y-81176761D01*
X82343619Y-81129142D01*
X78446380Y-78232000D02*
X78684476Y-78232000D01*
X78589238Y-78470095D02*
X78684476Y-78232000D01*
X78589238Y-77993904D01*
X78874952Y-78374857D02*
X78684476Y-78232000D01*
X78874952Y-78089142D01*
%TO.C,J2*%
X71929666Y-88225380D02*
X71929666Y-88939666D01*
X71882047Y-89082523D01*
X71786809Y-89177761D01*
X71643952Y-89225380D01*
X71548714Y-89225380D01*
X72358238Y-88320619D02*
X72405857Y-88273000D01*
X72501095Y-88225380D01*
X72739190Y-88225380D01*
X72834428Y-88273000D01*
X72882047Y-88320619D01*
X72929666Y-88415857D01*
X72929666Y-88511095D01*
X72882047Y-88653952D01*
X72310619Y-89225380D01*
X72929666Y-89225380D01*
X74168000Y-84034380D02*
X74168000Y-84272476D01*
X73929904Y-84177238D02*
X74168000Y-84272476D01*
X74406095Y-84177238D01*
X74025142Y-84462952D02*
X74168000Y-84272476D01*
X74310857Y-84462952D01*
%TO.C,C51*%
X70350142Y-54205142D02*
X70302523Y-54252761D01*
X70159666Y-54300380D01*
X70064428Y-54300380D01*
X69921571Y-54252761D01*
X69826333Y-54157523D01*
X69778714Y-54062285D01*
X69731095Y-53871809D01*
X69731095Y-53728952D01*
X69778714Y-53538476D01*
X69826333Y-53443238D01*
X69921571Y-53348000D01*
X70064428Y-53300380D01*
X70159666Y-53300380D01*
X70302523Y-53348000D01*
X70350142Y-53395619D01*
X71254904Y-53300380D02*
X70778714Y-53300380D01*
X70731095Y-53776571D01*
X70778714Y-53728952D01*
X70873952Y-53681333D01*
X71112047Y-53681333D01*
X71207285Y-53728952D01*
X71254904Y-53776571D01*
X71302523Y-53871809D01*
X71302523Y-54109904D01*
X71254904Y-54205142D01*
X71207285Y-54252761D01*
X71112047Y-54300380D01*
X70873952Y-54300380D01*
X70778714Y-54252761D01*
X70731095Y-54205142D01*
X72254904Y-54300380D02*
X71683476Y-54300380D01*
X71969190Y-54300380D02*
X71969190Y-53300380D01*
X71873952Y-53443238D01*
X71778714Y-53538476D01*
X71683476Y-53586095D01*
%TD*%
M02*
