M48
; DRILL file {KiCad (5.1.12)-1} date 01/19/23 10:38:33
; FORMAT={-:-/ absolute / inch / decimal}
; #@! TF.CreationDate,2023-01-19T10:38:33-07:00
; #@! TF.GenerationSoftware,Kicad,Pcbnew,(5.1.12)-1
; #@! TF.FileFunction,Plated,1,2,PTH
FMAT,2
INCH
T1C0.0157
T2C0.0290
T3C0.0315
T4C0.0390
T5C0.1024
T6C0.1260
%
G90
G05
T1
X1.8228Y-1.9322
X1.8228Y-2.0453
X2.14Y-2.115
X2.175Y-2.08
X2.235Y-2.195
X2.25Y-2.24
X2.295Y-2.15
X2.705Y-2.545
X2.77Y-2.545
X2.81Y-2.545
X2.885Y-2.61
X2.885Y-2.67
X2.895Y-2.41
X2.895Y-2.47
T2
X1.68Y-3.34
X1.7391Y-3.34
X2.97Y-3.33
X3.0291Y-3.33
X3.0881Y-3.33
X3.11Y-2.4409
X3.11Y-2.5
X3.11Y-2.6409
X3.11Y-2.7
X3.11Y-2.8438
X3.11Y-2.9028
X3.11Y-2.9619
X3.11Y-3.0209
X3.11Y-3.08
X3.1472Y-3.33
T3
X1.8039Y-1.675
X1.8039Y-1.7537
X1.8826Y-1.675
X1.8826Y-1.7537
X1.9613Y-1.675
X1.9613Y-1.7537
X2.0401Y-1.675
X2.0401Y-1.7537
X2.1188Y-1.675
X2.1188Y-1.7537
X2.1976Y-1.675
X2.1976Y-1.7537
X2.2763Y-1.675
X2.2763Y-1.7537
X2.355Y-1.675
X2.355Y-1.7537
X2.4338Y-1.675
X2.4338Y-1.7537
X2.5125Y-1.675
X2.5125Y-1.7537
X2.5913Y-1.675
X2.5913Y-1.7537
X2.67Y-1.675
X2.67Y-1.7537
T4
X1.39Y-2.96
X1.39Y-3.0584
T5
X1.2992Y-1.6714
X3.189Y-1.6714
T6
X2.595Y-3.29
T0
M30
