%TF.GenerationSoftware,KiCad,Pcbnew,(5.1.12)-1*%
%TF.CreationDate,2022-08-25T11:39:19-06:00*%
%TF.ProjectId,SpritePCB,53707269-7465-4504-9342-2e6b69636164,rev?*%
%TF.SameCoordinates,Original*%
%TF.FileFunction,Copper,L1,Top*%
%TF.FilePolarity,Positive*%
%FSLAX46Y46*%
G04 Gerber Fmt 4.6, Leading zero omitted, Abs format (unit mm)*
G04 Created by KiCad (PCBNEW (5.1.12)-1) date 2022-08-25 11:39:19*
%MOMM*%
%LPD*%
G01*
G04 APERTURE LIST*
%TA.AperFunction,ComponentPad*%
%ADD10O,1.350000X1.350000*%
%TD*%
%TA.AperFunction,ComponentPad*%
%ADD11R,1.350000X1.350000*%
%TD*%
%TA.AperFunction,ComponentPad*%
%ADD12C,1.498600*%
%TD*%
%TA.AperFunction,ComponentPad*%
%ADD13C,1.244600*%
%TD*%
%TA.AperFunction,ComponentPad*%
%ADD14C,5.600000*%
%TD*%
%TA.AperFunction,ComponentPad*%
%ADD15C,3.800000*%
%TD*%
%TA.AperFunction,ViaPad*%
%ADD16C,0.800000*%
%TD*%
%TA.AperFunction,Conductor*%
%ADD17C,1.000000*%
%TD*%
%TA.AperFunction,Conductor*%
%ADD18C,2.000000*%
%TD*%
%TA.AperFunction,Conductor*%
%ADD19C,3.500000*%
%TD*%
%TA.AperFunction,Conductor*%
%ADD20C,2.250000*%
%TD*%
%TA.AperFunction,Conductor*%
%ADD21C,2.500000*%
%TD*%
%TA.AperFunction,Conductor*%
%ADD22C,0.250000*%
%TD*%
%TA.AperFunction,Conductor*%
%ADD23C,0.225000*%
%TD*%
%TA.AperFunction,Conductor*%
%ADD24C,0.254000*%
%TD*%
%TA.AperFunction,Conductor*%
%ADD25C,0.100000*%
%TD*%
G04 APERTURE END LIST*
D10*
%TO.P,J1,24*%
%TO.N,/HEATER_FAN_COM*%
X46300000Y-44539000D03*
%TO.P,J1,23*%
X46300000Y-42539000D03*
%TO.P,J1,22*%
X48300000Y-44539000D03*
%TO.P,J1,21*%
X48300000Y-42539000D03*
%TO.P,J1,20*%
%TO.N,/HEATER_2*%
X50300000Y-44539000D03*
%TO.P,J1,19*%
X50300000Y-42539000D03*
%TO.P,J1,18*%
X52300000Y-44539000D03*
%TO.P,J1,17*%
X52300000Y-42539000D03*
%TO.P,J1,16*%
%TO.N,/FAN1_1*%
X54300000Y-44539000D03*
%TO.P,J1,15*%
%TO.N,/FAN2_1*%
X54300000Y-42539000D03*
%TO.P,J1,14*%
%TO.N,/MNT_HOLE_F*%
X56300000Y-44539000D03*
%TO.P,J1,13*%
%TO.N,/CRTOUCH_3*%
X56300000Y-42539000D03*
%TO.P,J1,12*%
%TO.N,/CRTOUCH_5*%
X58300000Y-44539000D03*
%TO.P,J1,11*%
%TO.N,/CRTOUCH_2*%
X58300000Y-42539000D03*
%TO.P,J1,10*%
%TO.N,/MNT_HOLE_F*%
X60300000Y-44539000D03*
%TO.P,J1,9*%
%TO.N,/THERM_1*%
X60300000Y-42539000D03*
%TO.P,J1,8*%
%TO.N,/THERM_2*%
X62300000Y-44539000D03*
%TO.P,J1,7*%
%TO.N,/MNT_HOLE_F*%
X62300000Y-42539000D03*
%TO.P,J1,6*%
%TO.N,/MOTOR_2*%
X64300000Y-44539000D03*
%TO.P,J1,5*%
%TO.N,/MOTOR_1*%
X64300000Y-42539000D03*
%TO.P,J1,4*%
%TO.N,/MOTOR_4*%
X66300000Y-44539000D03*
%TO.P,J1,3*%
%TO.N,/MOTOR_3*%
X66300000Y-42539000D03*
%TO.P,J1,2*%
%TO.N,/MNT_HOLE*%
X68300000Y-44539000D03*
D11*
%TO.P,J1,1*%
X68300000Y-42539000D03*
%TD*%
D12*
%TO.P,J6,1*%
%TO.N,/HEATER_FAN_COM*%
X35306000Y-75184001D03*
%TO.P,J6,2*%
%TO.N,/HEATER_2*%
X35306000Y-77683999D03*
%TD*%
D13*
%TO.P,J7,1*%
%TO.N,/FAN1_1*%
X78994000Y-68580001D03*
%TO.P,J7,2*%
%TO.N,/HEATER_FAN_COM*%
X78994000Y-67079999D03*
%TD*%
%TO.P,J5,1*%
%TO.N,/THERM_1*%
X42671999Y-84836000D03*
%TO.P,J5,2*%
%TO.N,/THERM_2*%
X44172001Y-84836000D03*
%TD*%
%TO.P,J4,1*%
%TO.N,/FAN2_1*%
X78994000Y-63500001D03*
%TO.P,J4,2*%
%TO.N,/HEATER_FAN_COM*%
X78994000Y-61999999D03*
%TD*%
%TO.P,J3,1*%
%TO.N,/MNT_HOLE_F*%
X78994000Y-78232000D03*
%TO.P,J3,2*%
%TO.N,/CRTOUCH_2*%
X78994000Y-76732000D03*
%TO.P,J3,3*%
%TO.N,/CRTOUCH_3*%
X78994000Y-75232001D03*
%TO.P,J3,4*%
%TO.N,/MNT_HOLE_F*%
X78994000Y-73732001D03*
%TO.P,J3,5*%
%TO.N,/CRTOUCH_5*%
X78994000Y-72232002D03*
%TD*%
%TO.P,J2,4*%
%TO.N,/MOTOR_4*%
X79938001Y-84582000D03*
%TO.P,J2,3*%
%TO.N,/MOTOR_3*%
X78438002Y-84582000D03*
%TO.P,J2,2*%
%TO.N,/MOTOR_2*%
X76938000Y-84582000D03*
%TO.P,J2,1*%
%TO.N,/MOTOR_1*%
X75438000Y-84582000D03*
%TD*%
D14*
%TO.P,H3,1*%
%TO.N,/MNT_HOLE*%
X64300000Y-82603886D03*
%TD*%
D15*
%TO.P,H2,1*%
%TO.N,/MNT_HOLE*%
X81000000Y-42453900D03*
%TD*%
%TO.P,H1,1*%
%TO.N,/MNT_HOLE*%
X33000000Y-42453900D03*
%TD*%
%TO.P,C51,2*%
%TO.N,/MNT_HOLE_F*%
%TA.AperFunction,SMDPad,CuDef*%
G36*
G01*
X69892998Y-51446000D02*
X72093002Y-51446000D01*
G75*
G02*
X72343000Y-51695998I0J-249998D01*
G01*
X72343000Y-52521002D01*
G75*
G02*
X72093002Y-52771000I-249998J0D01*
G01*
X69892998Y-52771000D01*
G75*
G02*
X69643000Y-52521002I0J249998D01*
G01*
X69643000Y-51695998D01*
G75*
G02*
X69892998Y-51446000I249998J0D01*
G01*
G37*
%TD.AperFunction*%
%TO.P,C51,1*%
%TO.N,/MNT_HOLE*%
%TA.AperFunction,SMDPad,CuDef*%
G36*
G01*
X69892998Y-48321000D02*
X72093002Y-48321000D01*
G75*
G02*
X72343000Y-48570998I0J-249998D01*
G01*
X72343000Y-49396002D01*
G75*
G02*
X72093002Y-49646000I-249998J0D01*
G01*
X69892998Y-49646000D01*
G75*
G02*
X69643000Y-49396002I0J249998D01*
G01*
X69643000Y-48570998D01*
G75*
G02*
X69892998Y-48321000I249998J0D01*
G01*
G37*
%TD.AperFunction*%
%TD*%
D16*
%TO.N,/HEATER_FAN_COM*%
X73279000Y-66294000D03*
X73533000Y-61214000D03*
X46300000Y-51950035D03*
X46300000Y-49077000D03*
%TO.N,/CRTOUCH_3*%
X70358000Y-64643000D03*
X56769000Y-55753000D03*
%TO.N,/FAN1_1*%
X73279000Y-67818000D03*
X54356000Y-53721000D03*
%TO.N,/FAN2_1*%
X73533000Y-62738000D03*
X55245000Y-52832000D03*
%TO.N,/CRTOUCH_5*%
X71374000Y-64643000D03*
X58293000Y-54610000D03*
%TO.N,/CRTOUCH_2*%
X68707000Y-64643000D03*
X57150000Y-56896000D03*
%TD*%
D17*
%TO.N,/MNT_HOLE*%
X66314901Y-40553901D02*
X68300000Y-42539000D01*
X34899999Y-40553901D02*
X66314901Y-40553901D01*
X33000000Y-42453900D02*
X34899999Y-40553901D01*
X68300000Y-42539000D02*
X68300000Y-44539000D01*
D18*
X68300000Y-46290500D02*
X70993000Y-48983500D01*
X68300000Y-44539000D02*
X68300000Y-46290500D01*
D19*
X70993000Y-48983500D02*
X70993000Y-46990000D01*
X75529100Y-42453900D02*
X81000000Y-42453900D01*
X70993000Y-46990000D02*
X75529100Y-42453900D01*
X81000000Y-42453900D02*
X69433100Y-42453900D01*
X81000000Y-42453900D02*
X72354100Y-42453900D01*
X72354100Y-42453900D02*
X69977000Y-44831000D01*
D18*
%TO.N,/HEATER_FAN_COM*%
X46300000Y-42539000D02*
X48174999Y-42539000D01*
X46300000Y-42539000D02*
X46300000Y-44539000D01*
X46300000Y-44539000D02*
X48174999Y-44539000D01*
X48300000Y-42539000D02*
X48300000Y-44539000D01*
D20*
X35306000Y-75184001D02*
X36365671Y-75184000D01*
D21*
X46300000Y-51950035D02*
X38481000Y-59769035D01*
X38481000Y-73068671D02*
X36440682Y-75108989D01*
X36440682Y-75108989D02*
X36365671Y-75108989D01*
X38481000Y-59769035D02*
X38481000Y-73068671D01*
D22*
X78994000Y-67079999D02*
X74064999Y-67079999D01*
X74064999Y-67079999D02*
X73279000Y-66294000D01*
X78994000Y-61999999D02*
X74318999Y-61999999D01*
X74318999Y-61999999D02*
X73533000Y-61214000D01*
D21*
X46300000Y-49077000D02*
X46300000Y-51950035D01*
X46300000Y-44539000D02*
X46300000Y-49077000D01*
D22*
%TO.N,/CRTOUCH_3*%
X75611591Y-75232001D02*
X70358000Y-69978410D01*
X78994000Y-75232001D02*
X75611591Y-75232001D01*
X70358000Y-69978410D02*
X70358000Y-64643000D01*
D23*
X57287501Y-55234499D02*
X56769000Y-55753000D01*
X57287501Y-43526501D02*
X57287501Y-55234499D01*
X56300000Y-42539000D02*
X57287501Y-43526501D01*
D22*
%TO.N,/THERM_2*%
X44172001Y-84836000D02*
X55856001Y-73152000D01*
X55856001Y-61867118D02*
X62230000Y-55493119D01*
X55856001Y-73152000D02*
X55856001Y-61867118D01*
X62300000Y-45650000D02*
X62300000Y-44539000D01*
X62230000Y-45720000D02*
X62300000Y-45650000D01*
X62230000Y-55493119D02*
X62230000Y-45720000D01*
%TO.N,/THERM_1*%
X60300000Y-42539000D02*
X61300001Y-43539001D01*
X61300000Y-44058998D02*
X61300000Y-55786709D01*
X61300001Y-43539001D02*
X61300000Y-44058998D01*
X61300000Y-55786709D02*
X55372000Y-61714709D01*
X43687999Y-83820000D02*
X42671999Y-84836000D01*
X44450000Y-83820000D02*
X43687999Y-83820000D01*
X55372000Y-72898000D02*
X44450000Y-83820000D01*
X55372000Y-61714709D02*
X55372000Y-72898000D01*
%TO.N,/MOTOR_3*%
X78438002Y-84490002D02*
X78438002Y-84582000D01*
X65300000Y-71352000D02*
X78438002Y-84490002D01*
X65300000Y-43539000D02*
X65300000Y-71352000D01*
X66300000Y-42539000D02*
X65300000Y-43539000D01*
%TO.N,/MOTOR_4*%
X66300000Y-70943999D02*
X79938001Y-84582000D01*
X66300000Y-44539000D02*
X66300000Y-70943999D01*
%TO.N,/MOTOR_1*%
X63300000Y-60398000D02*
X63500000Y-60598000D01*
X63300000Y-43539000D02*
X63300000Y-60398000D01*
X64300000Y-42539000D02*
X63300000Y-43539000D01*
X63500000Y-72644000D02*
X75438000Y-84582000D01*
X63500000Y-60598000D02*
X63500000Y-72644000D01*
%TO.N,/MOTOR_2*%
X64300000Y-71944000D02*
X76938000Y-84582000D01*
X64300000Y-44539000D02*
X64300000Y-71944000D01*
%TO.N,/FAN1_1*%
X78994000Y-68580001D02*
X78113934Y-68580000D01*
X74041000Y-68580000D02*
X73279000Y-67818000D01*
X78113934Y-68580000D02*
X74041000Y-68580000D01*
X54300000Y-53665000D02*
X54356000Y-53721000D01*
X54300000Y-44539000D02*
X54300000Y-53665000D01*
%TO.N,/FAN2_1*%
X78994000Y-63500001D02*
X74295001Y-63500001D01*
X74295001Y-63500001D02*
X73533000Y-62738000D01*
X54300000Y-42539000D02*
X54300000Y-43058998D01*
D23*
X55287501Y-52789499D02*
X55245000Y-52832000D01*
X55287501Y-43526501D02*
X55287501Y-52789499D01*
X54300000Y-42539000D02*
X55287501Y-43526501D01*
D22*
%TO.N,/CRTOUCH_5*%
X78994000Y-72232002D02*
X73248002Y-72232002D01*
X71374000Y-70358000D02*
X71374000Y-64643000D01*
X73248002Y-72232002D02*
X71374000Y-70358000D01*
X58300000Y-54603000D02*
X58293000Y-54610000D01*
X58300000Y-44539000D02*
X58300000Y-54603000D01*
%TO.N,/CRTOUCH_2*%
X78994000Y-76732000D02*
X75589000Y-76732000D01*
X68707000Y-69850000D02*
X68707000Y-64643000D01*
X75589000Y-76732000D02*
X68707000Y-69850000D01*
D23*
X59287501Y-55813001D02*
X58204502Y-56896000D01*
X58204502Y-56896000D02*
X57150000Y-56896000D01*
X59287501Y-43526501D02*
X59287501Y-55813001D01*
X58300000Y-42539000D02*
X59287501Y-43526501D01*
D21*
%TO.N,/HEATER_2*%
X41487637Y-60580788D02*
X50875009Y-51193416D01*
X41487637Y-75018361D02*
X41487637Y-60580788D01*
X38821999Y-77683999D02*
X41487637Y-75018361D01*
D20*
X35306000Y-77683999D02*
X38821999Y-77683999D01*
D18*
X52300000Y-42539000D02*
X52300000Y-44539000D01*
X52300000Y-42539000D02*
X50500010Y-42539000D01*
X52300000Y-44539000D02*
X50500010Y-44539000D01*
D21*
X50875009Y-44913999D02*
X50750010Y-44789000D01*
X50750010Y-44789000D02*
X50750010Y-42800000D01*
X50875009Y-51193416D02*
X50875009Y-44913999D01*
%TD*%
D24*
%TO.N,/MNT_HOLE_F*%
X44782148Y-41910285D02*
X44688657Y-42218484D01*
X44657089Y-42539000D01*
X44665000Y-42619323D01*
X44665001Y-43599116D01*
X44550061Y-43814153D01*
X44442275Y-44169477D01*
X44415000Y-44446404D01*
X44415001Y-48984394D01*
X44415000Y-48984404D01*
X44415001Y-51169241D01*
X37213582Y-58370661D01*
X37141655Y-58429690D01*
X36906097Y-58716718D01*
X36731061Y-59044188D01*
X36711518Y-59108614D01*
X36624181Y-59396526D01*
X36623275Y-59399512D01*
X36596000Y-59676439D01*
X36596000Y-59676446D01*
X36586881Y-59769035D01*
X36596000Y-59861624D01*
X36596001Y-72287878D01*
X35459877Y-73424002D01*
X35219546Y-73424002D01*
X34960979Y-73449469D01*
X34629218Y-73550107D01*
X34323465Y-73713536D01*
X34055470Y-73933474D01*
X33835534Y-74201469D01*
X33672105Y-74507222D01*
X33571467Y-74838983D01*
X33537486Y-75184002D01*
X33571468Y-75529022D01*
X33672106Y-75860783D01*
X33835535Y-76166536D01*
X34055037Y-76433999D01*
X33835534Y-76701465D01*
X33672105Y-77007218D01*
X33571467Y-77338979D01*
X33537485Y-77683999D01*
X33571467Y-78029019D01*
X33672105Y-78360780D01*
X33835534Y-78666533D01*
X34055471Y-78934528D01*
X34323466Y-79154465D01*
X34629219Y-79317894D01*
X34960980Y-79418532D01*
X35219547Y-79443999D01*
X38130321Y-79443999D01*
X38452475Y-79541724D01*
X38821999Y-79578118D01*
X39191523Y-79541724D01*
X39546847Y-79433937D01*
X39874316Y-79258901D01*
X40089419Y-79082371D01*
X42755055Y-76416735D01*
X42826982Y-76357706D01*
X43062540Y-76070678D01*
X43237576Y-75743209D01*
X43345362Y-75387885D01*
X43372637Y-75110958D01*
X43372637Y-75110949D01*
X43381756Y-75018362D01*
X43372637Y-74925775D01*
X43372637Y-64976330D01*
X43377725Y-64983990D01*
X43401375Y-65007768D01*
X43402489Y-65009118D01*
X43423718Y-65030233D01*
X43444765Y-65051393D01*
X43446111Y-65052504D01*
X43469893Y-65076157D01*
X43494919Y-65092781D01*
X43887853Y-65417037D01*
X43909291Y-65438762D01*
X43936652Y-65457307D01*
X43937632Y-65458116D01*
X43963027Y-65475185D01*
X43987984Y-65492100D01*
X43989085Y-65492698D01*
X44016533Y-65511146D01*
X44044712Y-65522907D01*
X44497538Y-65768823D01*
X44523826Y-65786645D01*
X44553136Y-65799017D01*
X44553162Y-65799031D01*
X44587091Y-65813349D01*
X44611409Y-65823614D01*
X44611430Y-65823620D01*
X44640748Y-65835993D01*
X44671865Y-65842397D01*
X45175714Y-65998940D01*
X45206331Y-66011709D01*
X45267074Y-66023944D01*
X45327926Y-66036474D01*
X45361106Y-66036697D01*
X45905365Y-66091634D01*
X45938092Y-66098061D01*
X45999960Y-66097911D01*
X46061828Y-66098061D01*
X46094556Y-66091634D01*
X46638815Y-66036697D01*
X46671991Y-66036474D01*
X46732753Y-66023963D01*
X46793588Y-66011709D01*
X46824208Y-65998939D01*
X47328053Y-65842397D01*
X47359170Y-65835993D01*
X47388488Y-65823620D01*
X47388509Y-65823614D01*
X47412827Y-65813349D01*
X47446756Y-65799031D01*
X47446782Y-65799017D01*
X47476092Y-65786645D01*
X47502381Y-65768823D01*
X47955208Y-65522907D01*
X47983385Y-65511146D01*
X48010829Y-65492701D01*
X48011935Y-65492100D01*
X48037010Y-65475104D01*
X48062286Y-65458116D01*
X48063262Y-65457311D01*
X48090628Y-65438762D01*
X48112071Y-65417032D01*
X48505001Y-65092780D01*
X48530026Y-65076157D01*
X48553806Y-65052505D01*
X48555154Y-65051393D01*
X48576264Y-65030169D01*
X48597429Y-65009118D01*
X48598538Y-65007774D01*
X48622194Y-64983990D01*
X48638820Y-64958961D01*
X48963078Y-64566031D01*
X48984802Y-64544593D01*
X49003347Y-64517233D01*
X49004155Y-64516254D01*
X49021131Y-64490997D01*
X49038141Y-64465901D01*
X49038744Y-64464790D01*
X49057185Y-64437353D01*
X49068943Y-64409184D01*
X49314869Y-63956343D01*
X49332689Y-63930058D01*
X49345059Y-63900753D01*
X49345075Y-63900723D01*
X49361281Y-63862322D01*
X49369658Y-63842475D01*
X49369663Y-63842458D01*
X49382037Y-63813137D01*
X49388441Y-63782020D01*
X49544987Y-63278168D01*
X49557758Y-63247547D01*
X49569995Y-63186796D01*
X49582523Y-63125955D01*
X49582746Y-63092773D01*
X49637684Y-62548506D01*
X49644111Y-62515780D01*
X49643961Y-62453911D01*
X49644111Y-62392042D01*
X49637684Y-62359317D01*
X49582746Y-61815021D01*
X49582524Y-61781849D01*
X49570005Y-61721046D01*
X49557759Y-61660249D01*
X49544992Y-61629636D01*
X49388443Y-61125745D01*
X49382042Y-61094642D01*
X49369672Y-61065327D01*
X49369662Y-61065295D01*
X49356020Y-61032974D01*
X49345083Y-61007055D01*
X49345067Y-61007025D01*
X49332694Y-60977712D01*
X49314876Y-60951428D01*
X49068952Y-60498560D01*
X49057197Y-60470395D01*
X49038756Y-60442956D01*
X49038151Y-60441841D01*
X49021124Y-60416719D01*
X49004170Y-60391492D01*
X49003362Y-60390512D01*
X48984814Y-60363147D01*
X48963092Y-60341710D01*
X48638833Y-59948747D01*
X48622211Y-59923722D01*
X48598559Y-59899940D01*
X48597446Y-59898591D01*
X48576239Y-59877497D01*
X48555174Y-59856316D01*
X48553827Y-59855204D01*
X48530045Y-59831549D01*
X48505021Y-59814925D01*
X48112087Y-59490641D01*
X48090647Y-59468913D01*
X48063284Y-59450365D01*
X48062308Y-59449559D01*
X48037127Y-59432633D01*
X48011956Y-59415571D01*
X48010841Y-59414965D01*
X47983409Y-59396527D01*
X47955245Y-59384770D01*
X47502406Y-59138826D01*
X47476110Y-59120998D01*
X47446795Y-59108623D01*
X47446778Y-59108614D01*
X47421714Y-59098036D01*
X47388528Y-59084027D01*
X47388503Y-59084019D01*
X47359193Y-59071649D01*
X47328081Y-59065244D01*
X46824224Y-58908682D01*
X46793593Y-58895907D01*
X46732642Y-58883629D01*
X46672011Y-58871143D01*
X46638833Y-58870919D01*
X46126964Y-58819248D01*
X46126206Y-58819018D01*
X46093780Y-58815824D01*
X46061822Y-58809548D01*
X45999960Y-58809698D01*
X45938098Y-58809548D01*
X45921388Y-58812830D01*
X52142432Y-52591786D01*
X52214354Y-52532761D01*
X52290243Y-52440291D01*
X52449912Y-52245733D01*
X52566259Y-52028063D01*
X52624948Y-51918264D01*
X52732734Y-51562940D01*
X52760009Y-51286013D01*
X52760009Y-51286012D01*
X52769129Y-51193416D01*
X52760009Y-51100819D01*
X52760009Y-46108028D01*
X52928715Y-46056852D01*
X53212752Y-45905031D01*
X53461714Y-45700714D01*
X53539265Y-45606217D01*
X53540000Y-45606709D01*
X53540001Y-53079278D01*
X53438795Y-53230744D01*
X53360774Y-53419102D01*
X53321000Y-53619061D01*
X53321000Y-53822939D01*
X53360774Y-54022898D01*
X53438795Y-54211256D01*
X53552063Y-54380774D01*
X53696226Y-54524937D01*
X53865744Y-54638205D01*
X54054102Y-54716226D01*
X54254061Y-54756000D01*
X54457939Y-54756000D01*
X54657898Y-54716226D01*
X54846256Y-54638205D01*
X55015774Y-54524937D01*
X55159937Y-54380774D01*
X55273205Y-54211256D01*
X55351226Y-54022898D01*
X55383690Y-53859690D01*
X55546898Y-53827226D01*
X55735256Y-53749205D01*
X55904774Y-53635937D01*
X56048937Y-53491774D01*
X56162205Y-53322256D01*
X56240226Y-53133898D01*
X56280000Y-52933939D01*
X56280000Y-52730061D01*
X56240226Y-52530102D01*
X56162205Y-52341744D01*
X56048937Y-52172226D01*
X56035001Y-52158290D01*
X56035001Y-45767555D01*
X56173000Y-45683224D01*
X56173000Y-44666000D01*
X56153000Y-44666000D01*
X56153000Y-44412000D01*
X56173000Y-44412000D01*
X56173000Y-44392000D01*
X56427000Y-44392000D01*
X56427000Y-44412000D01*
X56447000Y-44412000D01*
X56447000Y-44666000D01*
X56427000Y-44666000D01*
X56427000Y-45683224D01*
X56540001Y-45752279D01*
X56540002Y-54743273D01*
X56467102Y-54757774D01*
X56278744Y-54835795D01*
X56109226Y-54949063D01*
X55965063Y-55093226D01*
X55851795Y-55262744D01*
X55773774Y-55451102D01*
X55734000Y-55651061D01*
X55734000Y-55854939D01*
X55773774Y-56054898D01*
X55851795Y-56243256D01*
X55965063Y-56412774D01*
X56109226Y-56556937D01*
X56156958Y-56588830D01*
X56154774Y-56594102D01*
X56115000Y-56794061D01*
X56115000Y-56997939D01*
X56154774Y-57197898D01*
X56232795Y-57386256D01*
X56346063Y-57555774D01*
X56490226Y-57699937D01*
X56659744Y-57813205D01*
X56848102Y-57891226D01*
X57048061Y-57931000D01*
X57251939Y-57931000D01*
X57451898Y-57891226D01*
X57640256Y-57813205D01*
X57809774Y-57699937D01*
X57866211Y-57643500D01*
X58167797Y-57643500D01*
X58204502Y-57647115D01*
X58241207Y-57643500D01*
X58241217Y-57643500D01*
X58351037Y-57632684D01*
X58391497Y-57620411D01*
X54861003Y-61150905D01*
X54831999Y-61174708D01*
X54788701Y-61227467D01*
X54737026Y-61290433D01*
X54680751Y-61395715D01*
X54666454Y-61422463D01*
X54622997Y-61565724D01*
X54612000Y-61677377D01*
X54612000Y-61677387D01*
X54608324Y-61714709D01*
X54612000Y-61752031D01*
X54612001Y-72583197D01*
X44135199Y-83060000D01*
X43725321Y-83060000D01*
X43687999Y-83056324D01*
X43650676Y-83060000D01*
X43650666Y-83060000D01*
X43539013Y-83070997D01*
X43401228Y-83112793D01*
X43395752Y-83114454D01*
X43263722Y-83185026D01*
X43195339Y-83241147D01*
X43147998Y-83279999D01*
X43124200Y-83308997D01*
X42844764Y-83588433D01*
X42795832Y-83578700D01*
X42548166Y-83578700D01*
X42305258Y-83627017D01*
X42076444Y-83721795D01*
X41870517Y-83859391D01*
X41695390Y-84034518D01*
X41557794Y-84240445D01*
X41463016Y-84469259D01*
X41414699Y-84712167D01*
X41414699Y-84959833D01*
X41463016Y-85202741D01*
X41557794Y-85431555D01*
X41695390Y-85637482D01*
X41870517Y-85812609D01*
X42076444Y-85950205D01*
X42305258Y-86044983D01*
X42548166Y-86093300D01*
X42795832Y-86093300D01*
X43038740Y-86044983D01*
X43267554Y-85950205D01*
X43422000Y-85847007D01*
X43576446Y-85950205D01*
X43805260Y-86044983D01*
X44048168Y-86093300D01*
X44295834Y-86093300D01*
X44538742Y-86044983D01*
X44767556Y-85950205D01*
X44973483Y-85812609D01*
X45148610Y-85637482D01*
X45286206Y-85431555D01*
X45380984Y-85202741D01*
X45429301Y-84959833D01*
X45429301Y-84712167D01*
X45419568Y-84663234D01*
X56367005Y-73715798D01*
X56396002Y-73692001D01*
X56490975Y-73576276D01*
X56561547Y-73444247D01*
X56605004Y-73300986D01*
X56616001Y-73189333D01*
X56616001Y-73189324D01*
X56619677Y-73152001D01*
X56616001Y-73114678D01*
X56616001Y-63803802D01*
X56617922Y-63813136D01*
X56630294Y-63842453D01*
X56630301Y-63842475D01*
X56640544Y-63866742D01*
X56654884Y-63900721D01*
X56654896Y-63900744D01*
X56667270Y-63930058D01*
X56685095Y-63956350D01*
X56931013Y-64409177D01*
X56942773Y-64437352D01*
X56961218Y-64464795D01*
X56961818Y-64465900D01*
X56978789Y-64490938D01*
X56995803Y-64516252D01*
X56996610Y-64517230D01*
X57015157Y-64544593D01*
X57036884Y-64566033D01*
X57361143Y-64958967D01*
X57377765Y-64983990D01*
X57401415Y-65007768D01*
X57402529Y-65009118D01*
X57423758Y-65030233D01*
X57444805Y-65051393D01*
X57446151Y-65052504D01*
X57469933Y-65076157D01*
X57494959Y-65092781D01*
X57887893Y-65417037D01*
X57909331Y-65438762D01*
X57936692Y-65457307D01*
X57937672Y-65458116D01*
X57963067Y-65475185D01*
X57988024Y-65492100D01*
X57989125Y-65492698D01*
X58016573Y-65511146D01*
X58044752Y-65522907D01*
X58497578Y-65768823D01*
X58523866Y-65786645D01*
X58553176Y-65799017D01*
X58553202Y-65799031D01*
X58587131Y-65813349D01*
X58611449Y-65823614D01*
X58611470Y-65823620D01*
X58640788Y-65835993D01*
X58671905Y-65842397D01*
X59175754Y-65998940D01*
X59206371Y-66011709D01*
X59267114Y-66023944D01*
X59327966Y-66036474D01*
X59361146Y-66036697D01*
X59905407Y-66091634D01*
X59938133Y-66098061D01*
X60000001Y-66097911D01*
X60061868Y-66098061D01*
X60094596Y-66091634D01*
X60638847Y-66036697D01*
X60672025Y-66036474D01*
X60732832Y-66023954D01*
X60793621Y-66011709D01*
X60824241Y-65998939D01*
X61328079Y-65842398D01*
X61359198Y-65835993D01*
X61388520Y-65823619D01*
X61388539Y-65823613D01*
X61411205Y-65814046D01*
X61446784Y-65799031D01*
X61446812Y-65799016D01*
X61476122Y-65786644D01*
X61502412Y-65768821D01*
X61955243Y-65522903D01*
X61983411Y-65511146D01*
X62010850Y-65492705D01*
X62011963Y-65492100D01*
X62037116Y-65475051D01*
X62062312Y-65458117D01*
X62063288Y-65457311D01*
X62090655Y-65438762D01*
X62112096Y-65417035D01*
X62505032Y-65092779D01*
X62530053Y-65076159D01*
X62553831Y-65052509D01*
X62555183Y-65051394D01*
X62576292Y-65030171D01*
X62597457Y-65009120D01*
X62598569Y-65007772D01*
X62622222Y-64983991D01*
X62638844Y-64958968D01*
X62740000Y-64836390D01*
X62740001Y-72606668D01*
X62736324Y-72644000D01*
X62750998Y-72792985D01*
X62794454Y-72936246D01*
X62865026Y-73068276D01*
X62910957Y-73124242D01*
X62960000Y-73184001D01*
X62988998Y-73207799D01*
X74190433Y-84409235D01*
X74180700Y-84458167D01*
X74180700Y-84705833D01*
X74229017Y-84948741D01*
X74323795Y-85177555D01*
X74461391Y-85383482D01*
X74636518Y-85558609D01*
X74842445Y-85696205D01*
X75071259Y-85790983D01*
X75314167Y-85839300D01*
X75561833Y-85839300D01*
X75804741Y-85790983D01*
X76033555Y-85696205D01*
X76188000Y-85593008D01*
X76342445Y-85696205D01*
X76571259Y-85790983D01*
X76814167Y-85839300D01*
X77061833Y-85839300D01*
X77304741Y-85790983D01*
X77533555Y-85696205D01*
X77688001Y-85593007D01*
X77842447Y-85696205D01*
X78071261Y-85790983D01*
X78314169Y-85839300D01*
X78561835Y-85839300D01*
X78804743Y-85790983D01*
X79033557Y-85696205D01*
X79188002Y-85593009D01*
X79342446Y-85696205D01*
X79571260Y-85790983D01*
X79814168Y-85839300D01*
X80061834Y-85839300D01*
X80304742Y-85790983D01*
X80533556Y-85696205D01*
X80739483Y-85558609D01*
X80914610Y-85383482D01*
X81052206Y-85177555D01*
X81146984Y-84948741D01*
X81195301Y-84705833D01*
X81195301Y-84458167D01*
X81146984Y-84215259D01*
X81052206Y-83986445D01*
X80914610Y-83780518D01*
X80739483Y-83605391D01*
X80533556Y-83467795D01*
X80304742Y-83373017D01*
X80061834Y-83324700D01*
X79814168Y-83324700D01*
X79765236Y-83334433D01*
X75528520Y-79097717D01*
X78307888Y-79097717D01*
X78357908Y-79323571D01*
X78583085Y-79426692D01*
X78824054Y-79483901D01*
X79071553Y-79493001D01*
X79316073Y-79453642D01*
X79548215Y-79367335D01*
X79630092Y-79323571D01*
X79680112Y-79097717D01*
X78994000Y-78411605D01*
X78307888Y-79097717D01*
X75528520Y-79097717D01*
X67060000Y-70629198D01*
X67060000Y-64541061D01*
X67672000Y-64541061D01*
X67672000Y-64744939D01*
X67711774Y-64944898D01*
X67789795Y-65133256D01*
X67903063Y-65302774D01*
X67947001Y-65346712D01*
X67947000Y-69812677D01*
X67943324Y-69850000D01*
X67947000Y-69887322D01*
X67947000Y-69887332D01*
X67957997Y-69998985D01*
X67978251Y-70065754D01*
X68001454Y-70142246D01*
X68072026Y-70274276D01*
X68100544Y-70309025D01*
X68166999Y-70390001D01*
X68196003Y-70413804D01*
X75025201Y-77243003D01*
X75048999Y-77272001D01*
X75164724Y-77366974D01*
X75296753Y-77437546D01*
X75440014Y-77481003D01*
X75551667Y-77492000D01*
X75551675Y-77492000D01*
X75589000Y-77495676D01*
X75626325Y-77492000D01*
X77989674Y-77492000D01*
X78017391Y-77533482D01*
X78047654Y-77563745D01*
X77902429Y-77595908D01*
X77799308Y-77821085D01*
X77742099Y-78062054D01*
X77732999Y-78309553D01*
X77772358Y-78554073D01*
X77858665Y-78786215D01*
X77902429Y-78868092D01*
X78128283Y-78918112D01*
X78814395Y-78232000D01*
X78800253Y-78217858D01*
X78979858Y-78038253D01*
X78994000Y-78052395D01*
X79008143Y-78038253D01*
X79187748Y-78217858D01*
X79173605Y-78232000D01*
X79859717Y-78918112D01*
X80085571Y-78868092D01*
X80188692Y-78642915D01*
X80245901Y-78401946D01*
X80255001Y-78154447D01*
X80215642Y-77909927D01*
X80129335Y-77677785D01*
X80085571Y-77595908D01*
X79940346Y-77563745D01*
X79970609Y-77533482D01*
X80108205Y-77327555D01*
X80202983Y-77098741D01*
X80251300Y-76855833D01*
X80251300Y-76608167D01*
X80202983Y-76365259D01*
X80108205Y-76136445D01*
X80005009Y-75982001D01*
X80108205Y-75827556D01*
X80202983Y-75598742D01*
X80251300Y-75355834D01*
X80251300Y-75108168D01*
X80202983Y-74865260D01*
X80108205Y-74636446D01*
X79970609Y-74430519D01*
X79940346Y-74400256D01*
X80085571Y-74368093D01*
X80188692Y-74142916D01*
X80245901Y-73901947D01*
X80255001Y-73654448D01*
X80215642Y-73409928D01*
X80129335Y-73177786D01*
X80085571Y-73095909D01*
X79940347Y-73063746D01*
X79970609Y-73033484D01*
X80108205Y-72827557D01*
X80202983Y-72598743D01*
X80251300Y-72355835D01*
X80251300Y-72108169D01*
X80202983Y-71865261D01*
X80108205Y-71636447D01*
X79970609Y-71430520D01*
X79795482Y-71255393D01*
X79589555Y-71117797D01*
X79360741Y-71023019D01*
X79117833Y-70974702D01*
X78870167Y-70974702D01*
X78627259Y-71023019D01*
X78398445Y-71117797D01*
X78192518Y-71255393D01*
X78017391Y-71430520D01*
X77989674Y-71472002D01*
X73562804Y-71472002D01*
X72134000Y-70043199D01*
X72134000Y-66192061D01*
X72244000Y-66192061D01*
X72244000Y-66395939D01*
X72283774Y-66595898D01*
X72361795Y-66784256D01*
X72475063Y-66953774D01*
X72577289Y-67056000D01*
X72475063Y-67158226D01*
X72361795Y-67327744D01*
X72283774Y-67516102D01*
X72244000Y-67716061D01*
X72244000Y-67919939D01*
X72283774Y-68119898D01*
X72361795Y-68308256D01*
X72475063Y-68477774D01*
X72619226Y-68621937D01*
X72788744Y-68735205D01*
X72977102Y-68813226D01*
X73177061Y-68853000D01*
X73239198Y-68853000D01*
X73477201Y-69091002D01*
X73500999Y-69120001D01*
X73616724Y-69214974D01*
X73748753Y-69285546D01*
X73892014Y-69329003D01*
X74003667Y-69340000D01*
X74003675Y-69340000D01*
X74041000Y-69343676D01*
X74078325Y-69340000D01*
X77989673Y-69340000D01*
X78017391Y-69381483D01*
X78192518Y-69556610D01*
X78398445Y-69694206D01*
X78627259Y-69788984D01*
X78870167Y-69837301D01*
X79117833Y-69837301D01*
X79360741Y-69788984D01*
X79589555Y-69694206D01*
X79795482Y-69556610D01*
X79970609Y-69381483D01*
X80108205Y-69175556D01*
X80202983Y-68946742D01*
X80251300Y-68703834D01*
X80251300Y-68456168D01*
X80202983Y-68213260D01*
X80108205Y-67984446D01*
X80005007Y-67830000D01*
X80108205Y-67675554D01*
X80202983Y-67446740D01*
X80251300Y-67203832D01*
X80251300Y-66956166D01*
X80202983Y-66713258D01*
X80108205Y-66484444D01*
X79970609Y-66278517D01*
X79795482Y-66103390D01*
X79589555Y-65965794D01*
X79360741Y-65871016D01*
X79117833Y-65822699D01*
X78870167Y-65822699D01*
X78627259Y-65871016D01*
X78398445Y-65965794D01*
X78192518Y-66103390D01*
X78017391Y-66278517D01*
X77989674Y-66319999D01*
X74379801Y-66319999D01*
X74314000Y-66254198D01*
X74314000Y-66192061D01*
X74274226Y-65992102D01*
X74196205Y-65803744D01*
X74082937Y-65634226D01*
X73938774Y-65490063D01*
X73769256Y-65376795D01*
X73580898Y-65298774D01*
X73380939Y-65259000D01*
X73177061Y-65259000D01*
X72977102Y-65298774D01*
X72788744Y-65376795D01*
X72619226Y-65490063D01*
X72475063Y-65634226D01*
X72361795Y-65803744D01*
X72283774Y-65992102D01*
X72244000Y-66192061D01*
X72134000Y-66192061D01*
X72134000Y-65346711D01*
X72177937Y-65302774D01*
X72291205Y-65133256D01*
X72369226Y-64944898D01*
X72409000Y-64744939D01*
X72409000Y-64541061D01*
X72369226Y-64341102D01*
X72291205Y-64152744D01*
X72177937Y-63983226D01*
X72033774Y-63839063D01*
X71864256Y-63725795D01*
X71675898Y-63647774D01*
X71475939Y-63608000D01*
X71272061Y-63608000D01*
X71072102Y-63647774D01*
X70883744Y-63725795D01*
X70866000Y-63737651D01*
X70848256Y-63725795D01*
X70659898Y-63647774D01*
X70459939Y-63608000D01*
X70256061Y-63608000D01*
X70056102Y-63647774D01*
X69867744Y-63725795D01*
X69698226Y-63839063D01*
X69554063Y-63983226D01*
X69532500Y-64015497D01*
X69510937Y-63983226D01*
X69366774Y-63839063D01*
X69197256Y-63725795D01*
X69008898Y-63647774D01*
X68808939Y-63608000D01*
X68605061Y-63608000D01*
X68405102Y-63647774D01*
X68216744Y-63725795D01*
X68047226Y-63839063D01*
X67903063Y-63983226D01*
X67789795Y-64152744D01*
X67711774Y-64341102D01*
X67672000Y-64541061D01*
X67060000Y-64541061D01*
X67060000Y-61112061D01*
X72498000Y-61112061D01*
X72498000Y-61315939D01*
X72537774Y-61515898D01*
X72615795Y-61704256D01*
X72729063Y-61873774D01*
X72831289Y-61976000D01*
X72729063Y-62078226D01*
X72615795Y-62247744D01*
X72537774Y-62436102D01*
X72498000Y-62636061D01*
X72498000Y-62839939D01*
X72537774Y-63039898D01*
X72615795Y-63228256D01*
X72729063Y-63397774D01*
X72873226Y-63541937D01*
X73042744Y-63655205D01*
X73231102Y-63733226D01*
X73431061Y-63773000D01*
X73493198Y-63773000D01*
X73731202Y-64011003D01*
X73755000Y-64040002D01*
X73783998Y-64063800D01*
X73870724Y-64134975D01*
X73981009Y-64193924D01*
X74002754Y-64205547D01*
X74146015Y-64249004D01*
X74257668Y-64260001D01*
X74257677Y-64260001D01*
X74295000Y-64263677D01*
X74332323Y-64260001D01*
X77989674Y-64260001D01*
X78017391Y-64301483D01*
X78192518Y-64476610D01*
X78398445Y-64614206D01*
X78627259Y-64708984D01*
X78870167Y-64757301D01*
X79117833Y-64757301D01*
X79360741Y-64708984D01*
X79589555Y-64614206D01*
X79795482Y-64476610D01*
X79970609Y-64301483D01*
X80108205Y-64095556D01*
X80202983Y-63866742D01*
X80251300Y-63623834D01*
X80251300Y-63376168D01*
X80202983Y-63133260D01*
X80108205Y-62904446D01*
X80005007Y-62750000D01*
X80108205Y-62595554D01*
X80202983Y-62366740D01*
X80251300Y-62123832D01*
X80251300Y-61876166D01*
X80202983Y-61633258D01*
X80108205Y-61404444D01*
X79970609Y-61198517D01*
X79795482Y-61023390D01*
X79589555Y-60885794D01*
X79360741Y-60791016D01*
X79117833Y-60742699D01*
X78870167Y-60742699D01*
X78627259Y-60791016D01*
X78398445Y-60885794D01*
X78192518Y-61023390D01*
X78017391Y-61198517D01*
X77989674Y-61239999D01*
X74633801Y-61239999D01*
X74568000Y-61174198D01*
X74568000Y-61112061D01*
X74528226Y-60912102D01*
X74450205Y-60723744D01*
X74336937Y-60554226D01*
X74192774Y-60410063D01*
X74023256Y-60296795D01*
X73834898Y-60218774D01*
X73634939Y-60179000D01*
X73431061Y-60179000D01*
X73231102Y-60218774D01*
X73042744Y-60296795D01*
X72873226Y-60410063D01*
X72729063Y-60554226D01*
X72615795Y-60723744D01*
X72537774Y-60912102D01*
X72498000Y-61112061D01*
X67060000Y-61112061D01*
X67060000Y-52771000D01*
X69004928Y-52771000D01*
X69017188Y-52895482D01*
X69053498Y-53015180D01*
X69112463Y-53125494D01*
X69191815Y-53222185D01*
X69288506Y-53301537D01*
X69398820Y-53360502D01*
X69518518Y-53396812D01*
X69643000Y-53409072D01*
X70707250Y-53406000D01*
X70866000Y-53247250D01*
X70866000Y-52235500D01*
X71120000Y-52235500D01*
X71120000Y-53247250D01*
X71278750Y-53406000D01*
X72343000Y-53409072D01*
X72467482Y-53396812D01*
X72587180Y-53360502D01*
X72697494Y-53301537D01*
X72794185Y-53222185D01*
X72873537Y-53125494D01*
X72932502Y-53015180D01*
X72968812Y-52895482D01*
X72981072Y-52771000D01*
X72978000Y-52394250D01*
X72819250Y-52235500D01*
X71120000Y-52235500D01*
X70866000Y-52235500D01*
X69166750Y-52235500D01*
X69008000Y-52394250D01*
X69004928Y-52771000D01*
X67060000Y-52771000D01*
X67060000Y-47356821D01*
X67138287Y-47452214D01*
X67200682Y-47503420D01*
X68608000Y-48910739D01*
X68608000Y-49100656D01*
X68642510Y-49451041D01*
X68778887Y-49900615D01*
X69000351Y-50314945D01*
X69298391Y-50678109D01*
X69484200Y-50830598D01*
X69398820Y-50856498D01*
X69288506Y-50915463D01*
X69191815Y-50994815D01*
X69112463Y-51091506D01*
X69053498Y-51201820D01*
X69017188Y-51321518D01*
X69004928Y-51446000D01*
X69008000Y-51822750D01*
X69166750Y-51981500D01*
X70866000Y-51981500D01*
X70866000Y-51961500D01*
X71120000Y-51961500D01*
X71120000Y-51981500D01*
X72819250Y-51981500D01*
X72978000Y-51822750D01*
X72981072Y-51446000D01*
X72968812Y-51321518D01*
X72932502Y-51201820D01*
X72873537Y-51091506D01*
X72794185Y-50994815D01*
X72697494Y-50915463D01*
X72587180Y-50856498D01*
X72501800Y-50830598D01*
X72687609Y-50678109D01*
X72985649Y-50314946D01*
X73207113Y-49900616D01*
X73343490Y-49451042D01*
X73378000Y-49100657D01*
X73378000Y-47977899D01*
X76517000Y-44838900D01*
X80133624Y-44838900D01*
X80260568Y-44891482D01*
X80750324Y-44988900D01*
X81249676Y-44988900D01*
X81739432Y-44891482D01*
X82200773Y-44700388D01*
X82615968Y-44422963D01*
X82969063Y-44069868D01*
X83246488Y-43654673D01*
X83356000Y-43390288D01*
X83356001Y-80273542D01*
X83312768Y-88249950D01*
X83269297Y-88389875D01*
X82552873Y-89177942D01*
X82514375Y-89198851D01*
X82257777Y-89278582D01*
X81947685Y-89309886D01*
X60996275Y-89309886D01*
X60882346Y-89298399D01*
X60178113Y-88786230D01*
X60128720Y-88627113D01*
X60107990Y-88421471D01*
X60107990Y-85966446D01*
X60108703Y-85946134D01*
X60107990Y-85934847D01*
X60107990Y-85923522D01*
X60105995Y-85903268D01*
X60084336Y-85560399D01*
X60085275Y-85551568D01*
X60080343Y-85497180D01*
X60078903Y-85474389D01*
X60077486Y-85465677D01*
X60076689Y-85456891D01*
X60072409Y-85434471D01*
X60063639Y-85380557D01*
X60060530Y-85372236D01*
X60005418Y-85083517D01*
X60005287Y-85075623D01*
X59993535Y-85021268D01*
X59989073Y-84997890D01*
X59986856Y-84990373D01*
X59985198Y-84982704D01*
X59977905Y-84960022D01*
X59963805Y-84912213D01*
X59943951Y-84197474D01*
X59940824Y-84172774D01*
X59932938Y-84149160D01*
X59920597Y-84127538D01*
X59904274Y-84108739D01*
X59892594Y-84098948D01*
X59396089Y-83731167D01*
X59159591Y-83382572D01*
X59142902Y-83352461D01*
X59103611Y-83306043D01*
X59064719Y-83259330D01*
X59037959Y-83237683D01*
X58473607Y-82690254D01*
X58455357Y-82668254D01*
X58428187Y-82646196D01*
X58425884Y-82643962D01*
X58403614Y-82626246D01*
X58381552Y-82608335D01*
X58378878Y-82606569D01*
X58351487Y-82584779D01*
X58326078Y-82571691D01*
X57862655Y-82265568D01*
X60865000Y-82265568D01*
X60865000Y-82942204D01*
X60997006Y-83605838D01*
X61255943Y-84230968D01*
X61631862Y-84793571D01*
X62110315Y-85272024D01*
X62672918Y-85647943D01*
X63298048Y-85906880D01*
X63961682Y-86038886D01*
X64638318Y-86038886D01*
X65301952Y-85906880D01*
X65927082Y-85647943D01*
X66489685Y-85272024D01*
X66968138Y-84793571D01*
X67344057Y-84230968D01*
X67602994Y-83605838D01*
X67735000Y-82942204D01*
X67735000Y-82265568D01*
X67602994Y-81601934D01*
X67344057Y-80976804D01*
X66968138Y-80414201D01*
X66489685Y-79935748D01*
X65927082Y-79559829D01*
X65301952Y-79300892D01*
X64638318Y-79168886D01*
X63961682Y-79168886D01*
X63298048Y-79300892D01*
X62672918Y-79559829D01*
X62110315Y-79935748D01*
X61631862Y-80414201D01*
X61255943Y-80976804D01*
X60997006Y-81601934D01*
X60865000Y-82265568D01*
X57862655Y-82265568D01*
X57648241Y-82123933D01*
X57629595Y-82108081D01*
X57595442Y-82089056D01*
X57589341Y-82085026D01*
X57567797Y-82073657D01*
X57546545Y-82061818D01*
X57539848Y-82058907D01*
X57505265Y-82040656D01*
X57481805Y-82033675D01*
X56706946Y-81696832D01*
X56687984Y-81685510D01*
X56648912Y-81671604D01*
X56640019Y-81667738D01*
X56619095Y-81660992D01*
X56598422Y-81653634D01*
X56589029Y-81651298D01*
X56587679Y-81650863D01*
X56463594Y-81558948D01*
X56442232Y-81546161D01*
X56418786Y-81537788D01*
X56388000Y-81534000D01*
X56117392Y-81534000D01*
X55671412Y-81423083D01*
X55651812Y-81415365D01*
X55609977Y-81407804D01*
X55599590Y-81405221D01*
X55578882Y-81402185D01*
X55558262Y-81398458D01*
X55547582Y-81397595D01*
X55505530Y-81391429D01*
X55484495Y-81392498D01*
X54563462Y-81318081D01*
X54543581Y-81313756D01*
X54500377Y-81312984D01*
X54488988Y-81312064D01*
X54468754Y-81312419D01*
X54448530Y-81312058D01*
X54437145Y-81312974D01*
X54393938Y-81313733D01*
X54374056Y-81318052D01*
X53457028Y-81391858D01*
X53436202Y-81390780D01*
X53393936Y-81396936D01*
X53383054Y-81397812D01*
X53362648Y-81401493D01*
X53342129Y-81404482D01*
X53331531Y-81407107D01*
X53289498Y-81414690D01*
X53270094Y-81422325D01*
X52819231Y-81534000D01*
X52324000Y-81534000D01*
X52299224Y-81536440D01*
X52275399Y-81543667D01*
X52246030Y-81560752D01*
X51869542Y-81853576D01*
X51466067Y-82028184D01*
X51442835Y-82035036D01*
X51407978Y-82053323D01*
X51401043Y-82056324D01*
X51379994Y-82068004D01*
X51358651Y-82079201D01*
X51352328Y-82083355D01*
X51317917Y-82102450D01*
X51299440Y-82118106D01*
X50623436Y-82562285D01*
X50598263Y-82575143D01*
X50570553Y-82597032D01*
X50567609Y-82598967D01*
X50545738Y-82616636D01*
X50523665Y-82634072D01*
X50521127Y-82636517D01*
X50493659Y-82658707D01*
X50475561Y-82680416D01*
X49911809Y-83223535D01*
X49885239Y-83244826D01*
X49845857Y-83291688D01*
X49806183Y-83338233D01*
X49789579Y-83367952D01*
X49637927Y-83589277D01*
X48817030Y-84227752D01*
X48798970Y-84244890D01*
X48784602Y-84265221D01*
X48774475Y-84287965D01*
X48768981Y-84312248D01*
X48768000Y-84328000D01*
X48768000Y-88800204D01*
X48763048Y-88816158D01*
X48689179Y-88952258D01*
X48607277Y-89051527D01*
X48235182Y-89274784D01*
X48185674Y-89290152D01*
X47989915Y-89309886D01*
X32085492Y-89309886D01*
X30644000Y-87868394D01*
X30644000Y-84392001D01*
X31355844Y-84392001D01*
X31355994Y-84453870D01*
X31355844Y-84515739D01*
X31362271Y-84548466D01*
X31427372Y-85193442D01*
X31427595Y-85226612D01*
X31440078Y-85287241D01*
X31452359Y-85348207D01*
X31465131Y-85378831D01*
X31650826Y-85976512D01*
X31657228Y-86007618D01*
X31669597Y-86036929D01*
X31669607Y-86036961D01*
X31679881Y-86061300D01*
X31694189Y-86095205D01*
X31694202Y-86095229D01*
X31706576Y-86124544D01*
X31724399Y-86150834D01*
X32016440Y-86688602D01*
X32028195Y-86716765D01*
X32046631Y-86744196D01*
X32047240Y-86745317D01*
X32064370Y-86770589D01*
X32081224Y-86795666D01*
X32082028Y-86796640D01*
X32100579Y-86824009D01*
X32122306Y-86845450D01*
X32507634Y-87312398D01*
X32524257Y-87337423D01*
X32547910Y-87361204D01*
X32549020Y-87362550D01*
X32570210Y-87383626D01*
X32591296Y-87404827D01*
X32592642Y-87405938D01*
X32616422Y-87429590D01*
X32641449Y-87446215D01*
X33108396Y-87831556D01*
X33129834Y-87853280D01*
X33157196Y-87871827D01*
X33158174Y-87872634D01*
X33183406Y-87889593D01*
X33208526Y-87906620D01*
X33209639Y-87907224D01*
X33237074Y-87925664D01*
X33265244Y-87937422D01*
X33803012Y-88229472D01*
X33829303Y-88247296D01*
X33858615Y-88259669D01*
X33858637Y-88259681D01*
X33887366Y-88271805D01*
X33916886Y-88284266D01*
X33916911Y-88284274D01*
X33946223Y-88296644D01*
X33977335Y-88303048D01*
X34575034Y-88488752D01*
X34605655Y-88501523D01*
X34666406Y-88513760D01*
X34727247Y-88526288D01*
X34760430Y-88526511D01*
X35405421Y-88591615D01*
X35438155Y-88598044D01*
X35500093Y-88597893D01*
X35561887Y-88598043D01*
X35594613Y-88591616D01*
X36239591Y-88526510D01*
X36272768Y-88526287D01*
X36333553Y-88513771D01*
X36394358Y-88501522D01*
X36424979Y-88488751D01*
X37022665Y-88303045D01*
X37053771Y-88296642D01*
X37083079Y-88284273D01*
X37083109Y-88284264D01*
X37114768Y-88270900D01*
X37141356Y-88259679D01*
X37141379Y-88259666D01*
X37170691Y-88247293D01*
X37196982Y-88229469D01*
X37734733Y-87937421D01*
X37762905Y-87925662D01*
X37790345Y-87907219D01*
X37791455Y-87906616D01*
X37816579Y-87889586D01*
X37841805Y-87872631D01*
X37842781Y-87871826D01*
X37870147Y-87853276D01*
X37891589Y-87831547D01*
X38358521Y-87446213D01*
X38383547Y-87429589D01*
X38407330Y-87405934D01*
X38408676Y-87404823D01*
X38429761Y-87383623D01*
X38450950Y-87362548D01*
X38452060Y-87361202D01*
X38475714Y-87337420D01*
X38492339Y-87312391D01*
X38877662Y-86845446D01*
X38899385Y-86824009D01*
X38917933Y-86796644D01*
X38918742Y-86795664D01*
X38935726Y-86770394D01*
X38952724Y-86745316D01*
X38953327Y-86744205D01*
X38971771Y-86716763D01*
X38983529Y-86688591D01*
X39275567Y-86150830D01*
X39293388Y-86124543D01*
X39305760Y-86095233D01*
X39305775Y-86095205D01*
X39320790Y-86059626D01*
X39330357Y-86036960D01*
X39330363Y-86036941D01*
X39342737Y-86007619D01*
X39349141Y-85976500D01*
X39534835Y-85378826D01*
X39547604Y-85348208D01*
X39559846Y-85287435D01*
X39572369Y-85226613D01*
X39572592Y-85193434D01*
X39637694Y-84548464D01*
X39644121Y-84515738D01*
X39643971Y-84453870D01*
X39644121Y-84392002D01*
X39637694Y-84359276D01*
X39572592Y-83714306D01*
X39572369Y-83681127D01*
X39559819Y-83620174D01*
X39547604Y-83559531D01*
X39534838Y-83528920D01*
X39349142Y-82931239D01*
X39342737Y-82900117D01*
X39330362Y-82870792D01*
X39330357Y-82870777D01*
X39321082Y-82848802D01*
X39305775Y-82812531D01*
X39305762Y-82812508D01*
X39293389Y-82783193D01*
X39275564Y-82756900D01*
X38983531Y-82219147D01*
X38971772Y-82190973D01*
X38953323Y-82163523D01*
X38952724Y-82162419D01*
X38935862Y-82137541D01*
X38918744Y-82112071D01*
X38917928Y-82111082D01*
X38899386Y-82083726D01*
X38877669Y-82062295D01*
X38492345Y-81595346D01*
X38475716Y-81570312D01*
X38452055Y-81546522D01*
X38450951Y-81545184D01*
X38429889Y-81524235D01*
X38408678Y-81502908D01*
X38407324Y-81501790D01*
X38383549Y-81478143D01*
X38358529Y-81461523D01*
X37891586Y-81076177D01*
X37870148Y-81054452D01*
X37842786Y-81035905D01*
X37841807Y-81035097D01*
X37816543Y-81018117D01*
X37791457Y-81001112D01*
X37790347Y-81000509D01*
X37762907Y-80982066D01*
X37734737Y-80970308D01*
X37196987Y-80678258D01*
X37170692Y-80660431D01*
X37141379Y-80648058D01*
X37141358Y-80648046D01*
X37110380Y-80634972D01*
X37083110Y-80623461D01*
X37083090Y-80623455D01*
X37053773Y-80611082D01*
X37022656Y-80604677D01*
X36424984Y-80418973D01*
X36394358Y-80406200D01*
X36333499Y-80393941D01*
X36272770Y-80381435D01*
X36239590Y-80381212D01*
X35627023Y-80319378D01*
X35626266Y-80319148D01*
X35593840Y-80315954D01*
X35561887Y-80309679D01*
X35500093Y-80309829D01*
X35438155Y-80309678D01*
X35406194Y-80315955D01*
X35373774Y-80319148D01*
X35373018Y-80319377D01*
X34760430Y-80381211D01*
X34727245Y-80381434D01*
X34666284Y-80393986D01*
X34605655Y-80406199D01*
X34575040Y-80418967D01*
X33977333Y-80604677D01*
X33946221Y-80611081D01*
X33916906Y-80623452D01*
X33916884Y-80623459D01*
X33893716Y-80633239D01*
X33858635Y-80648043D01*
X33858604Y-80648060D01*
X33829301Y-80660429D01*
X33803017Y-80678248D01*
X33265246Y-80970304D01*
X33237072Y-80982064D01*
X33209629Y-81000509D01*
X33208524Y-81001109D01*
X33183523Y-81018055D01*
X33158172Y-81035094D01*
X33157191Y-81035903D01*
X33129832Y-81054448D01*
X33108394Y-81076173D01*
X32641449Y-81461515D01*
X32616421Y-81478141D01*
X32592640Y-81501794D01*
X32591294Y-81502905D01*
X32570238Y-81524076D01*
X32549019Y-81545181D01*
X32547905Y-81546530D01*
X32524256Y-81570309D01*
X32507635Y-81595331D01*
X32122302Y-82062288D01*
X32100578Y-82083726D01*
X32082031Y-82111090D01*
X32081222Y-82112070D01*
X32064221Y-82137365D01*
X32047240Y-82162419D01*
X32046638Y-82163528D01*
X32028193Y-82190972D01*
X32016435Y-82219144D01*
X31724403Y-82756895D01*
X31706575Y-82783193D01*
X31694199Y-82812513D01*
X31694189Y-82812532D01*
X31682638Y-82839904D01*
X31669607Y-82870776D01*
X31669600Y-82870799D01*
X31657227Y-82900118D01*
X31650823Y-82931234D01*
X31465132Y-83528905D01*
X31452359Y-83559532D01*
X31440075Y-83620515D01*
X31427595Y-83681128D01*
X31427372Y-83714298D01*
X31362272Y-84359273D01*
X31355844Y-84392001D01*
X30644000Y-84392001D01*
X30644000Y-52419574D01*
X30717162Y-43566917D01*
X30753512Y-43654673D01*
X31030937Y-44069868D01*
X31384032Y-44422963D01*
X31799227Y-44700388D01*
X32260568Y-44891482D01*
X32750324Y-44988900D01*
X33249676Y-44988900D01*
X33739432Y-44891482D01*
X34200773Y-44700388D01*
X34615968Y-44422963D01*
X34969063Y-44069868D01*
X35246488Y-43654673D01*
X35437582Y-43193332D01*
X35535000Y-42703576D01*
X35535000Y-42204224D01*
X35437582Y-41714468D01*
X35426992Y-41688901D01*
X44900480Y-41688901D01*
X44782148Y-41910285D01*
%TA.AperFunction,Conductor*%
D25*
G36*
X44782148Y-41910285D02*
G01*
X44688657Y-42218484D01*
X44657089Y-42539000D01*
X44665000Y-42619323D01*
X44665001Y-43599116D01*
X44550061Y-43814153D01*
X44442275Y-44169477D01*
X44415000Y-44446404D01*
X44415001Y-48984394D01*
X44415000Y-48984404D01*
X44415001Y-51169241D01*
X37213582Y-58370661D01*
X37141655Y-58429690D01*
X36906097Y-58716718D01*
X36731061Y-59044188D01*
X36711518Y-59108614D01*
X36624181Y-59396526D01*
X36623275Y-59399512D01*
X36596000Y-59676439D01*
X36596000Y-59676446D01*
X36586881Y-59769035D01*
X36596000Y-59861624D01*
X36596001Y-72287878D01*
X35459877Y-73424002D01*
X35219546Y-73424002D01*
X34960979Y-73449469D01*
X34629218Y-73550107D01*
X34323465Y-73713536D01*
X34055470Y-73933474D01*
X33835534Y-74201469D01*
X33672105Y-74507222D01*
X33571467Y-74838983D01*
X33537486Y-75184002D01*
X33571468Y-75529022D01*
X33672106Y-75860783D01*
X33835535Y-76166536D01*
X34055037Y-76433999D01*
X33835534Y-76701465D01*
X33672105Y-77007218D01*
X33571467Y-77338979D01*
X33537485Y-77683999D01*
X33571467Y-78029019D01*
X33672105Y-78360780D01*
X33835534Y-78666533D01*
X34055471Y-78934528D01*
X34323466Y-79154465D01*
X34629219Y-79317894D01*
X34960980Y-79418532D01*
X35219547Y-79443999D01*
X38130321Y-79443999D01*
X38452475Y-79541724D01*
X38821999Y-79578118D01*
X39191523Y-79541724D01*
X39546847Y-79433937D01*
X39874316Y-79258901D01*
X40089419Y-79082371D01*
X42755055Y-76416735D01*
X42826982Y-76357706D01*
X43062540Y-76070678D01*
X43237576Y-75743209D01*
X43345362Y-75387885D01*
X43372637Y-75110958D01*
X43372637Y-75110949D01*
X43381756Y-75018362D01*
X43372637Y-74925775D01*
X43372637Y-64976330D01*
X43377725Y-64983990D01*
X43401375Y-65007768D01*
X43402489Y-65009118D01*
X43423718Y-65030233D01*
X43444765Y-65051393D01*
X43446111Y-65052504D01*
X43469893Y-65076157D01*
X43494919Y-65092781D01*
X43887853Y-65417037D01*
X43909291Y-65438762D01*
X43936652Y-65457307D01*
X43937632Y-65458116D01*
X43963027Y-65475185D01*
X43987984Y-65492100D01*
X43989085Y-65492698D01*
X44016533Y-65511146D01*
X44044712Y-65522907D01*
X44497538Y-65768823D01*
X44523826Y-65786645D01*
X44553136Y-65799017D01*
X44553162Y-65799031D01*
X44587091Y-65813349D01*
X44611409Y-65823614D01*
X44611430Y-65823620D01*
X44640748Y-65835993D01*
X44671865Y-65842397D01*
X45175714Y-65998940D01*
X45206331Y-66011709D01*
X45267074Y-66023944D01*
X45327926Y-66036474D01*
X45361106Y-66036697D01*
X45905365Y-66091634D01*
X45938092Y-66098061D01*
X45999960Y-66097911D01*
X46061828Y-66098061D01*
X46094556Y-66091634D01*
X46638815Y-66036697D01*
X46671991Y-66036474D01*
X46732753Y-66023963D01*
X46793588Y-66011709D01*
X46824208Y-65998939D01*
X47328053Y-65842397D01*
X47359170Y-65835993D01*
X47388488Y-65823620D01*
X47388509Y-65823614D01*
X47412827Y-65813349D01*
X47446756Y-65799031D01*
X47446782Y-65799017D01*
X47476092Y-65786645D01*
X47502381Y-65768823D01*
X47955208Y-65522907D01*
X47983385Y-65511146D01*
X48010829Y-65492701D01*
X48011935Y-65492100D01*
X48037010Y-65475104D01*
X48062286Y-65458116D01*
X48063262Y-65457311D01*
X48090628Y-65438762D01*
X48112071Y-65417032D01*
X48505001Y-65092780D01*
X48530026Y-65076157D01*
X48553806Y-65052505D01*
X48555154Y-65051393D01*
X48576264Y-65030169D01*
X48597429Y-65009118D01*
X48598538Y-65007774D01*
X48622194Y-64983990D01*
X48638820Y-64958961D01*
X48963078Y-64566031D01*
X48984802Y-64544593D01*
X49003347Y-64517233D01*
X49004155Y-64516254D01*
X49021131Y-64490997D01*
X49038141Y-64465901D01*
X49038744Y-64464790D01*
X49057185Y-64437353D01*
X49068943Y-64409184D01*
X49314869Y-63956343D01*
X49332689Y-63930058D01*
X49345059Y-63900753D01*
X49345075Y-63900723D01*
X49361281Y-63862322D01*
X49369658Y-63842475D01*
X49369663Y-63842458D01*
X49382037Y-63813137D01*
X49388441Y-63782020D01*
X49544987Y-63278168D01*
X49557758Y-63247547D01*
X49569995Y-63186796D01*
X49582523Y-63125955D01*
X49582746Y-63092773D01*
X49637684Y-62548506D01*
X49644111Y-62515780D01*
X49643961Y-62453911D01*
X49644111Y-62392042D01*
X49637684Y-62359317D01*
X49582746Y-61815021D01*
X49582524Y-61781849D01*
X49570005Y-61721046D01*
X49557759Y-61660249D01*
X49544992Y-61629636D01*
X49388443Y-61125745D01*
X49382042Y-61094642D01*
X49369672Y-61065327D01*
X49369662Y-61065295D01*
X49356020Y-61032974D01*
X49345083Y-61007055D01*
X49345067Y-61007025D01*
X49332694Y-60977712D01*
X49314876Y-60951428D01*
X49068952Y-60498560D01*
X49057197Y-60470395D01*
X49038756Y-60442956D01*
X49038151Y-60441841D01*
X49021124Y-60416719D01*
X49004170Y-60391492D01*
X49003362Y-60390512D01*
X48984814Y-60363147D01*
X48963092Y-60341710D01*
X48638833Y-59948747D01*
X48622211Y-59923722D01*
X48598559Y-59899940D01*
X48597446Y-59898591D01*
X48576239Y-59877497D01*
X48555174Y-59856316D01*
X48553827Y-59855204D01*
X48530045Y-59831549D01*
X48505021Y-59814925D01*
X48112087Y-59490641D01*
X48090647Y-59468913D01*
X48063284Y-59450365D01*
X48062308Y-59449559D01*
X48037127Y-59432633D01*
X48011956Y-59415571D01*
X48010841Y-59414965D01*
X47983409Y-59396527D01*
X47955245Y-59384770D01*
X47502406Y-59138826D01*
X47476110Y-59120998D01*
X47446795Y-59108623D01*
X47446778Y-59108614D01*
X47421714Y-59098036D01*
X47388528Y-59084027D01*
X47388503Y-59084019D01*
X47359193Y-59071649D01*
X47328081Y-59065244D01*
X46824224Y-58908682D01*
X46793593Y-58895907D01*
X46732642Y-58883629D01*
X46672011Y-58871143D01*
X46638833Y-58870919D01*
X46126964Y-58819248D01*
X46126206Y-58819018D01*
X46093780Y-58815824D01*
X46061822Y-58809548D01*
X45999960Y-58809698D01*
X45938098Y-58809548D01*
X45921388Y-58812830D01*
X52142432Y-52591786D01*
X52214354Y-52532761D01*
X52290243Y-52440291D01*
X52449912Y-52245733D01*
X52566259Y-52028063D01*
X52624948Y-51918264D01*
X52732734Y-51562940D01*
X52760009Y-51286013D01*
X52760009Y-51286012D01*
X52769129Y-51193416D01*
X52760009Y-51100819D01*
X52760009Y-46108028D01*
X52928715Y-46056852D01*
X53212752Y-45905031D01*
X53461714Y-45700714D01*
X53539265Y-45606217D01*
X53540000Y-45606709D01*
X53540001Y-53079278D01*
X53438795Y-53230744D01*
X53360774Y-53419102D01*
X53321000Y-53619061D01*
X53321000Y-53822939D01*
X53360774Y-54022898D01*
X53438795Y-54211256D01*
X53552063Y-54380774D01*
X53696226Y-54524937D01*
X53865744Y-54638205D01*
X54054102Y-54716226D01*
X54254061Y-54756000D01*
X54457939Y-54756000D01*
X54657898Y-54716226D01*
X54846256Y-54638205D01*
X55015774Y-54524937D01*
X55159937Y-54380774D01*
X55273205Y-54211256D01*
X55351226Y-54022898D01*
X55383690Y-53859690D01*
X55546898Y-53827226D01*
X55735256Y-53749205D01*
X55904774Y-53635937D01*
X56048937Y-53491774D01*
X56162205Y-53322256D01*
X56240226Y-53133898D01*
X56280000Y-52933939D01*
X56280000Y-52730061D01*
X56240226Y-52530102D01*
X56162205Y-52341744D01*
X56048937Y-52172226D01*
X56035001Y-52158290D01*
X56035001Y-45767555D01*
X56173000Y-45683224D01*
X56173000Y-44666000D01*
X56153000Y-44666000D01*
X56153000Y-44412000D01*
X56173000Y-44412000D01*
X56173000Y-44392000D01*
X56427000Y-44392000D01*
X56427000Y-44412000D01*
X56447000Y-44412000D01*
X56447000Y-44666000D01*
X56427000Y-44666000D01*
X56427000Y-45683224D01*
X56540001Y-45752279D01*
X56540002Y-54743273D01*
X56467102Y-54757774D01*
X56278744Y-54835795D01*
X56109226Y-54949063D01*
X55965063Y-55093226D01*
X55851795Y-55262744D01*
X55773774Y-55451102D01*
X55734000Y-55651061D01*
X55734000Y-55854939D01*
X55773774Y-56054898D01*
X55851795Y-56243256D01*
X55965063Y-56412774D01*
X56109226Y-56556937D01*
X56156958Y-56588830D01*
X56154774Y-56594102D01*
X56115000Y-56794061D01*
X56115000Y-56997939D01*
X56154774Y-57197898D01*
X56232795Y-57386256D01*
X56346063Y-57555774D01*
X56490226Y-57699937D01*
X56659744Y-57813205D01*
X56848102Y-57891226D01*
X57048061Y-57931000D01*
X57251939Y-57931000D01*
X57451898Y-57891226D01*
X57640256Y-57813205D01*
X57809774Y-57699937D01*
X57866211Y-57643500D01*
X58167797Y-57643500D01*
X58204502Y-57647115D01*
X58241207Y-57643500D01*
X58241217Y-57643500D01*
X58351037Y-57632684D01*
X58391497Y-57620411D01*
X54861003Y-61150905D01*
X54831999Y-61174708D01*
X54788701Y-61227467D01*
X54737026Y-61290433D01*
X54680751Y-61395715D01*
X54666454Y-61422463D01*
X54622997Y-61565724D01*
X54612000Y-61677377D01*
X54612000Y-61677387D01*
X54608324Y-61714709D01*
X54612000Y-61752031D01*
X54612001Y-72583197D01*
X44135199Y-83060000D01*
X43725321Y-83060000D01*
X43687999Y-83056324D01*
X43650676Y-83060000D01*
X43650666Y-83060000D01*
X43539013Y-83070997D01*
X43401228Y-83112793D01*
X43395752Y-83114454D01*
X43263722Y-83185026D01*
X43195339Y-83241147D01*
X43147998Y-83279999D01*
X43124200Y-83308997D01*
X42844764Y-83588433D01*
X42795832Y-83578700D01*
X42548166Y-83578700D01*
X42305258Y-83627017D01*
X42076444Y-83721795D01*
X41870517Y-83859391D01*
X41695390Y-84034518D01*
X41557794Y-84240445D01*
X41463016Y-84469259D01*
X41414699Y-84712167D01*
X41414699Y-84959833D01*
X41463016Y-85202741D01*
X41557794Y-85431555D01*
X41695390Y-85637482D01*
X41870517Y-85812609D01*
X42076444Y-85950205D01*
X42305258Y-86044983D01*
X42548166Y-86093300D01*
X42795832Y-86093300D01*
X43038740Y-86044983D01*
X43267554Y-85950205D01*
X43422000Y-85847007D01*
X43576446Y-85950205D01*
X43805260Y-86044983D01*
X44048168Y-86093300D01*
X44295834Y-86093300D01*
X44538742Y-86044983D01*
X44767556Y-85950205D01*
X44973483Y-85812609D01*
X45148610Y-85637482D01*
X45286206Y-85431555D01*
X45380984Y-85202741D01*
X45429301Y-84959833D01*
X45429301Y-84712167D01*
X45419568Y-84663234D01*
X56367005Y-73715798D01*
X56396002Y-73692001D01*
X56490975Y-73576276D01*
X56561547Y-73444247D01*
X56605004Y-73300986D01*
X56616001Y-73189333D01*
X56616001Y-73189324D01*
X56619677Y-73152001D01*
X56616001Y-73114678D01*
X56616001Y-63803802D01*
X56617922Y-63813136D01*
X56630294Y-63842453D01*
X56630301Y-63842475D01*
X56640544Y-63866742D01*
X56654884Y-63900721D01*
X56654896Y-63900744D01*
X56667270Y-63930058D01*
X56685095Y-63956350D01*
X56931013Y-64409177D01*
X56942773Y-64437352D01*
X56961218Y-64464795D01*
X56961818Y-64465900D01*
X56978789Y-64490938D01*
X56995803Y-64516252D01*
X56996610Y-64517230D01*
X57015157Y-64544593D01*
X57036884Y-64566033D01*
X57361143Y-64958967D01*
X57377765Y-64983990D01*
X57401415Y-65007768D01*
X57402529Y-65009118D01*
X57423758Y-65030233D01*
X57444805Y-65051393D01*
X57446151Y-65052504D01*
X57469933Y-65076157D01*
X57494959Y-65092781D01*
X57887893Y-65417037D01*
X57909331Y-65438762D01*
X57936692Y-65457307D01*
X57937672Y-65458116D01*
X57963067Y-65475185D01*
X57988024Y-65492100D01*
X57989125Y-65492698D01*
X58016573Y-65511146D01*
X58044752Y-65522907D01*
X58497578Y-65768823D01*
X58523866Y-65786645D01*
X58553176Y-65799017D01*
X58553202Y-65799031D01*
X58587131Y-65813349D01*
X58611449Y-65823614D01*
X58611470Y-65823620D01*
X58640788Y-65835993D01*
X58671905Y-65842397D01*
X59175754Y-65998940D01*
X59206371Y-66011709D01*
X59267114Y-66023944D01*
X59327966Y-66036474D01*
X59361146Y-66036697D01*
X59905407Y-66091634D01*
X59938133Y-66098061D01*
X60000001Y-66097911D01*
X60061868Y-66098061D01*
X60094596Y-66091634D01*
X60638847Y-66036697D01*
X60672025Y-66036474D01*
X60732832Y-66023954D01*
X60793621Y-66011709D01*
X60824241Y-65998939D01*
X61328079Y-65842398D01*
X61359198Y-65835993D01*
X61388520Y-65823619D01*
X61388539Y-65823613D01*
X61411205Y-65814046D01*
X61446784Y-65799031D01*
X61446812Y-65799016D01*
X61476122Y-65786644D01*
X61502412Y-65768821D01*
X61955243Y-65522903D01*
X61983411Y-65511146D01*
X62010850Y-65492705D01*
X62011963Y-65492100D01*
X62037116Y-65475051D01*
X62062312Y-65458117D01*
X62063288Y-65457311D01*
X62090655Y-65438762D01*
X62112096Y-65417035D01*
X62505032Y-65092779D01*
X62530053Y-65076159D01*
X62553831Y-65052509D01*
X62555183Y-65051394D01*
X62576292Y-65030171D01*
X62597457Y-65009120D01*
X62598569Y-65007772D01*
X62622222Y-64983991D01*
X62638844Y-64958968D01*
X62740000Y-64836390D01*
X62740001Y-72606668D01*
X62736324Y-72644000D01*
X62750998Y-72792985D01*
X62794454Y-72936246D01*
X62865026Y-73068276D01*
X62910957Y-73124242D01*
X62960000Y-73184001D01*
X62988998Y-73207799D01*
X74190433Y-84409235D01*
X74180700Y-84458167D01*
X74180700Y-84705833D01*
X74229017Y-84948741D01*
X74323795Y-85177555D01*
X74461391Y-85383482D01*
X74636518Y-85558609D01*
X74842445Y-85696205D01*
X75071259Y-85790983D01*
X75314167Y-85839300D01*
X75561833Y-85839300D01*
X75804741Y-85790983D01*
X76033555Y-85696205D01*
X76188000Y-85593008D01*
X76342445Y-85696205D01*
X76571259Y-85790983D01*
X76814167Y-85839300D01*
X77061833Y-85839300D01*
X77304741Y-85790983D01*
X77533555Y-85696205D01*
X77688001Y-85593007D01*
X77842447Y-85696205D01*
X78071261Y-85790983D01*
X78314169Y-85839300D01*
X78561835Y-85839300D01*
X78804743Y-85790983D01*
X79033557Y-85696205D01*
X79188002Y-85593009D01*
X79342446Y-85696205D01*
X79571260Y-85790983D01*
X79814168Y-85839300D01*
X80061834Y-85839300D01*
X80304742Y-85790983D01*
X80533556Y-85696205D01*
X80739483Y-85558609D01*
X80914610Y-85383482D01*
X81052206Y-85177555D01*
X81146984Y-84948741D01*
X81195301Y-84705833D01*
X81195301Y-84458167D01*
X81146984Y-84215259D01*
X81052206Y-83986445D01*
X80914610Y-83780518D01*
X80739483Y-83605391D01*
X80533556Y-83467795D01*
X80304742Y-83373017D01*
X80061834Y-83324700D01*
X79814168Y-83324700D01*
X79765236Y-83334433D01*
X75528520Y-79097717D01*
X78307888Y-79097717D01*
X78357908Y-79323571D01*
X78583085Y-79426692D01*
X78824054Y-79483901D01*
X79071553Y-79493001D01*
X79316073Y-79453642D01*
X79548215Y-79367335D01*
X79630092Y-79323571D01*
X79680112Y-79097717D01*
X78994000Y-78411605D01*
X78307888Y-79097717D01*
X75528520Y-79097717D01*
X67060000Y-70629198D01*
X67060000Y-64541061D01*
X67672000Y-64541061D01*
X67672000Y-64744939D01*
X67711774Y-64944898D01*
X67789795Y-65133256D01*
X67903063Y-65302774D01*
X67947001Y-65346712D01*
X67947000Y-69812677D01*
X67943324Y-69850000D01*
X67947000Y-69887322D01*
X67947000Y-69887332D01*
X67957997Y-69998985D01*
X67978251Y-70065754D01*
X68001454Y-70142246D01*
X68072026Y-70274276D01*
X68100544Y-70309025D01*
X68166999Y-70390001D01*
X68196003Y-70413804D01*
X75025201Y-77243003D01*
X75048999Y-77272001D01*
X75164724Y-77366974D01*
X75296753Y-77437546D01*
X75440014Y-77481003D01*
X75551667Y-77492000D01*
X75551675Y-77492000D01*
X75589000Y-77495676D01*
X75626325Y-77492000D01*
X77989674Y-77492000D01*
X78017391Y-77533482D01*
X78047654Y-77563745D01*
X77902429Y-77595908D01*
X77799308Y-77821085D01*
X77742099Y-78062054D01*
X77732999Y-78309553D01*
X77772358Y-78554073D01*
X77858665Y-78786215D01*
X77902429Y-78868092D01*
X78128283Y-78918112D01*
X78814395Y-78232000D01*
X78800253Y-78217858D01*
X78979858Y-78038253D01*
X78994000Y-78052395D01*
X79008143Y-78038253D01*
X79187748Y-78217858D01*
X79173605Y-78232000D01*
X79859717Y-78918112D01*
X80085571Y-78868092D01*
X80188692Y-78642915D01*
X80245901Y-78401946D01*
X80255001Y-78154447D01*
X80215642Y-77909927D01*
X80129335Y-77677785D01*
X80085571Y-77595908D01*
X79940346Y-77563745D01*
X79970609Y-77533482D01*
X80108205Y-77327555D01*
X80202983Y-77098741D01*
X80251300Y-76855833D01*
X80251300Y-76608167D01*
X80202983Y-76365259D01*
X80108205Y-76136445D01*
X80005009Y-75982001D01*
X80108205Y-75827556D01*
X80202983Y-75598742D01*
X80251300Y-75355834D01*
X80251300Y-75108168D01*
X80202983Y-74865260D01*
X80108205Y-74636446D01*
X79970609Y-74430519D01*
X79940346Y-74400256D01*
X80085571Y-74368093D01*
X80188692Y-74142916D01*
X80245901Y-73901947D01*
X80255001Y-73654448D01*
X80215642Y-73409928D01*
X80129335Y-73177786D01*
X80085571Y-73095909D01*
X79940347Y-73063746D01*
X79970609Y-73033484D01*
X80108205Y-72827557D01*
X80202983Y-72598743D01*
X80251300Y-72355835D01*
X80251300Y-72108169D01*
X80202983Y-71865261D01*
X80108205Y-71636447D01*
X79970609Y-71430520D01*
X79795482Y-71255393D01*
X79589555Y-71117797D01*
X79360741Y-71023019D01*
X79117833Y-70974702D01*
X78870167Y-70974702D01*
X78627259Y-71023019D01*
X78398445Y-71117797D01*
X78192518Y-71255393D01*
X78017391Y-71430520D01*
X77989674Y-71472002D01*
X73562804Y-71472002D01*
X72134000Y-70043199D01*
X72134000Y-66192061D01*
X72244000Y-66192061D01*
X72244000Y-66395939D01*
X72283774Y-66595898D01*
X72361795Y-66784256D01*
X72475063Y-66953774D01*
X72577289Y-67056000D01*
X72475063Y-67158226D01*
X72361795Y-67327744D01*
X72283774Y-67516102D01*
X72244000Y-67716061D01*
X72244000Y-67919939D01*
X72283774Y-68119898D01*
X72361795Y-68308256D01*
X72475063Y-68477774D01*
X72619226Y-68621937D01*
X72788744Y-68735205D01*
X72977102Y-68813226D01*
X73177061Y-68853000D01*
X73239198Y-68853000D01*
X73477201Y-69091002D01*
X73500999Y-69120001D01*
X73616724Y-69214974D01*
X73748753Y-69285546D01*
X73892014Y-69329003D01*
X74003667Y-69340000D01*
X74003675Y-69340000D01*
X74041000Y-69343676D01*
X74078325Y-69340000D01*
X77989673Y-69340000D01*
X78017391Y-69381483D01*
X78192518Y-69556610D01*
X78398445Y-69694206D01*
X78627259Y-69788984D01*
X78870167Y-69837301D01*
X79117833Y-69837301D01*
X79360741Y-69788984D01*
X79589555Y-69694206D01*
X79795482Y-69556610D01*
X79970609Y-69381483D01*
X80108205Y-69175556D01*
X80202983Y-68946742D01*
X80251300Y-68703834D01*
X80251300Y-68456168D01*
X80202983Y-68213260D01*
X80108205Y-67984446D01*
X80005007Y-67830000D01*
X80108205Y-67675554D01*
X80202983Y-67446740D01*
X80251300Y-67203832D01*
X80251300Y-66956166D01*
X80202983Y-66713258D01*
X80108205Y-66484444D01*
X79970609Y-66278517D01*
X79795482Y-66103390D01*
X79589555Y-65965794D01*
X79360741Y-65871016D01*
X79117833Y-65822699D01*
X78870167Y-65822699D01*
X78627259Y-65871016D01*
X78398445Y-65965794D01*
X78192518Y-66103390D01*
X78017391Y-66278517D01*
X77989674Y-66319999D01*
X74379801Y-66319999D01*
X74314000Y-66254198D01*
X74314000Y-66192061D01*
X74274226Y-65992102D01*
X74196205Y-65803744D01*
X74082937Y-65634226D01*
X73938774Y-65490063D01*
X73769256Y-65376795D01*
X73580898Y-65298774D01*
X73380939Y-65259000D01*
X73177061Y-65259000D01*
X72977102Y-65298774D01*
X72788744Y-65376795D01*
X72619226Y-65490063D01*
X72475063Y-65634226D01*
X72361795Y-65803744D01*
X72283774Y-65992102D01*
X72244000Y-66192061D01*
X72134000Y-66192061D01*
X72134000Y-65346711D01*
X72177937Y-65302774D01*
X72291205Y-65133256D01*
X72369226Y-64944898D01*
X72409000Y-64744939D01*
X72409000Y-64541061D01*
X72369226Y-64341102D01*
X72291205Y-64152744D01*
X72177937Y-63983226D01*
X72033774Y-63839063D01*
X71864256Y-63725795D01*
X71675898Y-63647774D01*
X71475939Y-63608000D01*
X71272061Y-63608000D01*
X71072102Y-63647774D01*
X70883744Y-63725795D01*
X70866000Y-63737651D01*
X70848256Y-63725795D01*
X70659898Y-63647774D01*
X70459939Y-63608000D01*
X70256061Y-63608000D01*
X70056102Y-63647774D01*
X69867744Y-63725795D01*
X69698226Y-63839063D01*
X69554063Y-63983226D01*
X69532500Y-64015497D01*
X69510937Y-63983226D01*
X69366774Y-63839063D01*
X69197256Y-63725795D01*
X69008898Y-63647774D01*
X68808939Y-63608000D01*
X68605061Y-63608000D01*
X68405102Y-63647774D01*
X68216744Y-63725795D01*
X68047226Y-63839063D01*
X67903063Y-63983226D01*
X67789795Y-64152744D01*
X67711774Y-64341102D01*
X67672000Y-64541061D01*
X67060000Y-64541061D01*
X67060000Y-61112061D01*
X72498000Y-61112061D01*
X72498000Y-61315939D01*
X72537774Y-61515898D01*
X72615795Y-61704256D01*
X72729063Y-61873774D01*
X72831289Y-61976000D01*
X72729063Y-62078226D01*
X72615795Y-62247744D01*
X72537774Y-62436102D01*
X72498000Y-62636061D01*
X72498000Y-62839939D01*
X72537774Y-63039898D01*
X72615795Y-63228256D01*
X72729063Y-63397774D01*
X72873226Y-63541937D01*
X73042744Y-63655205D01*
X73231102Y-63733226D01*
X73431061Y-63773000D01*
X73493198Y-63773000D01*
X73731202Y-64011003D01*
X73755000Y-64040002D01*
X73783998Y-64063800D01*
X73870724Y-64134975D01*
X73981009Y-64193924D01*
X74002754Y-64205547D01*
X74146015Y-64249004D01*
X74257668Y-64260001D01*
X74257677Y-64260001D01*
X74295000Y-64263677D01*
X74332323Y-64260001D01*
X77989674Y-64260001D01*
X78017391Y-64301483D01*
X78192518Y-64476610D01*
X78398445Y-64614206D01*
X78627259Y-64708984D01*
X78870167Y-64757301D01*
X79117833Y-64757301D01*
X79360741Y-64708984D01*
X79589555Y-64614206D01*
X79795482Y-64476610D01*
X79970609Y-64301483D01*
X80108205Y-64095556D01*
X80202983Y-63866742D01*
X80251300Y-63623834D01*
X80251300Y-63376168D01*
X80202983Y-63133260D01*
X80108205Y-62904446D01*
X80005007Y-62750000D01*
X80108205Y-62595554D01*
X80202983Y-62366740D01*
X80251300Y-62123832D01*
X80251300Y-61876166D01*
X80202983Y-61633258D01*
X80108205Y-61404444D01*
X79970609Y-61198517D01*
X79795482Y-61023390D01*
X79589555Y-60885794D01*
X79360741Y-60791016D01*
X79117833Y-60742699D01*
X78870167Y-60742699D01*
X78627259Y-60791016D01*
X78398445Y-60885794D01*
X78192518Y-61023390D01*
X78017391Y-61198517D01*
X77989674Y-61239999D01*
X74633801Y-61239999D01*
X74568000Y-61174198D01*
X74568000Y-61112061D01*
X74528226Y-60912102D01*
X74450205Y-60723744D01*
X74336937Y-60554226D01*
X74192774Y-60410063D01*
X74023256Y-60296795D01*
X73834898Y-60218774D01*
X73634939Y-60179000D01*
X73431061Y-60179000D01*
X73231102Y-60218774D01*
X73042744Y-60296795D01*
X72873226Y-60410063D01*
X72729063Y-60554226D01*
X72615795Y-60723744D01*
X72537774Y-60912102D01*
X72498000Y-61112061D01*
X67060000Y-61112061D01*
X67060000Y-52771000D01*
X69004928Y-52771000D01*
X69017188Y-52895482D01*
X69053498Y-53015180D01*
X69112463Y-53125494D01*
X69191815Y-53222185D01*
X69288506Y-53301537D01*
X69398820Y-53360502D01*
X69518518Y-53396812D01*
X69643000Y-53409072D01*
X70707250Y-53406000D01*
X70866000Y-53247250D01*
X70866000Y-52235500D01*
X71120000Y-52235500D01*
X71120000Y-53247250D01*
X71278750Y-53406000D01*
X72343000Y-53409072D01*
X72467482Y-53396812D01*
X72587180Y-53360502D01*
X72697494Y-53301537D01*
X72794185Y-53222185D01*
X72873537Y-53125494D01*
X72932502Y-53015180D01*
X72968812Y-52895482D01*
X72981072Y-52771000D01*
X72978000Y-52394250D01*
X72819250Y-52235500D01*
X71120000Y-52235500D01*
X70866000Y-52235500D01*
X69166750Y-52235500D01*
X69008000Y-52394250D01*
X69004928Y-52771000D01*
X67060000Y-52771000D01*
X67060000Y-47356821D01*
X67138287Y-47452214D01*
X67200682Y-47503420D01*
X68608000Y-48910739D01*
X68608000Y-49100656D01*
X68642510Y-49451041D01*
X68778887Y-49900615D01*
X69000351Y-50314945D01*
X69298391Y-50678109D01*
X69484200Y-50830598D01*
X69398820Y-50856498D01*
X69288506Y-50915463D01*
X69191815Y-50994815D01*
X69112463Y-51091506D01*
X69053498Y-51201820D01*
X69017188Y-51321518D01*
X69004928Y-51446000D01*
X69008000Y-51822750D01*
X69166750Y-51981500D01*
X70866000Y-51981500D01*
X70866000Y-51961500D01*
X71120000Y-51961500D01*
X71120000Y-51981500D01*
X72819250Y-51981500D01*
X72978000Y-51822750D01*
X72981072Y-51446000D01*
X72968812Y-51321518D01*
X72932502Y-51201820D01*
X72873537Y-51091506D01*
X72794185Y-50994815D01*
X72697494Y-50915463D01*
X72587180Y-50856498D01*
X72501800Y-50830598D01*
X72687609Y-50678109D01*
X72985649Y-50314946D01*
X73207113Y-49900616D01*
X73343490Y-49451042D01*
X73378000Y-49100657D01*
X73378000Y-47977899D01*
X76517000Y-44838900D01*
X80133624Y-44838900D01*
X80260568Y-44891482D01*
X80750324Y-44988900D01*
X81249676Y-44988900D01*
X81739432Y-44891482D01*
X82200773Y-44700388D01*
X82615968Y-44422963D01*
X82969063Y-44069868D01*
X83246488Y-43654673D01*
X83356000Y-43390288D01*
X83356001Y-80273542D01*
X83312768Y-88249950D01*
X83269297Y-88389875D01*
X82552873Y-89177942D01*
X82514375Y-89198851D01*
X82257777Y-89278582D01*
X81947685Y-89309886D01*
X60996275Y-89309886D01*
X60882346Y-89298399D01*
X60178113Y-88786230D01*
X60128720Y-88627113D01*
X60107990Y-88421471D01*
X60107990Y-85966446D01*
X60108703Y-85946134D01*
X60107990Y-85934847D01*
X60107990Y-85923522D01*
X60105995Y-85903268D01*
X60084336Y-85560399D01*
X60085275Y-85551568D01*
X60080343Y-85497180D01*
X60078903Y-85474389D01*
X60077486Y-85465677D01*
X60076689Y-85456891D01*
X60072409Y-85434471D01*
X60063639Y-85380557D01*
X60060530Y-85372236D01*
X60005418Y-85083517D01*
X60005287Y-85075623D01*
X59993535Y-85021268D01*
X59989073Y-84997890D01*
X59986856Y-84990373D01*
X59985198Y-84982704D01*
X59977905Y-84960022D01*
X59963805Y-84912213D01*
X59943951Y-84197474D01*
X59940824Y-84172774D01*
X59932938Y-84149160D01*
X59920597Y-84127538D01*
X59904274Y-84108739D01*
X59892594Y-84098948D01*
X59396089Y-83731167D01*
X59159591Y-83382572D01*
X59142902Y-83352461D01*
X59103611Y-83306043D01*
X59064719Y-83259330D01*
X59037959Y-83237683D01*
X58473607Y-82690254D01*
X58455357Y-82668254D01*
X58428187Y-82646196D01*
X58425884Y-82643962D01*
X58403614Y-82626246D01*
X58381552Y-82608335D01*
X58378878Y-82606569D01*
X58351487Y-82584779D01*
X58326078Y-82571691D01*
X57862655Y-82265568D01*
X60865000Y-82265568D01*
X60865000Y-82942204D01*
X60997006Y-83605838D01*
X61255943Y-84230968D01*
X61631862Y-84793571D01*
X62110315Y-85272024D01*
X62672918Y-85647943D01*
X63298048Y-85906880D01*
X63961682Y-86038886D01*
X64638318Y-86038886D01*
X65301952Y-85906880D01*
X65927082Y-85647943D01*
X66489685Y-85272024D01*
X66968138Y-84793571D01*
X67344057Y-84230968D01*
X67602994Y-83605838D01*
X67735000Y-82942204D01*
X67735000Y-82265568D01*
X67602994Y-81601934D01*
X67344057Y-80976804D01*
X66968138Y-80414201D01*
X66489685Y-79935748D01*
X65927082Y-79559829D01*
X65301952Y-79300892D01*
X64638318Y-79168886D01*
X63961682Y-79168886D01*
X63298048Y-79300892D01*
X62672918Y-79559829D01*
X62110315Y-79935748D01*
X61631862Y-80414201D01*
X61255943Y-80976804D01*
X60997006Y-81601934D01*
X60865000Y-82265568D01*
X57862655Y-82265568D01*
X57648241Y-82123933D01*
X57629595Y-82108081D01*
X57595442Y-82089056D01*
X57589341Y-82085026D01*
X57567797Y-82073657D01*
X57546545Y-82061818D01*
X57539848Y-82058907D01*
X57505265Y-82040656D01*
X57481805Y-82033675D01*
X56706946Y-81696832D01*
X56687984Y-81685510D01*
X56648912Y-81671604D01*
X56640019Y-81667738D01*
X56619095Y-81660992D01*
X56598422Y-81653634D01*
X56589029Y-81651298D01*
X56587679Y-81650863D01*
X56463594Y-81558948D01*
X56442232Y-81546161D01*
X56418786Y-81537788D01*
X56388000Y-81534000D01*
X56117392Y-81534000D01*
X55671412Y-81423083D01*
X55651812Y-81415365D01*
X55609977Y-81407804D01*
X55599590Y-81405221D01*
X55578882Y-81402185D01*
X55558262Y-81398458D01*
X55547582Y-81397595D01*
X55505530Y-81391429D01*
X55484495Y-81392498D01*
X54563462Y-81318081D01*
X54543581Y-81313756D01*
X54500377Y-81312984D01*
X54488988Y-81312064D01*
X54468754Y-81312419D01*
X54448530Y-81312058D01*
X54437145Y-81312974D01*
X54393938Y-81313733D01*
X54374056Y-81318052D01*
X53457028Y-81391858D01*
X53436202Y-81390780D01*
X53393936Y-81396936D01*
X53383054Y-81397812D01*
X53362648Y-81401493D01*
X53342129Y-81404482D01*
X53331531Y-81407107D01*
X53289498Y-81414690D01*
X53270094Y-81422325D01*
X52819231Y-81534000D01*
X52324000Y-81534000D01*
X52299224Y-81536440D01*
X52275399Y-81543667D01*
X52246030Y-81560752D01*
X51869542Y-81853576D01*
X51466067Y-82028184D01*
X51442835Y-82035036D01*
X51407978Y-82053323D01*
X51401043Y-82056324D01*
X51379994Y-82068004D01*
X51358651Y-82079201D01*
X51352328Y-82083355D01*
X51317917Y-82102450D01*
X51299440Y-82118106D01*
X50623436Y-82562285D01*
X50598263Y-82575143D01*
X50570553Y-82597032D01*
X50567609Y-82598967D01*
X50545738Y-82616636D01*
X50523665Y-82634072D01*
X50521127Y-82636517D01*
X50493659Y-82658707D01*
X50475561Y-82680416D01*
X49911809Y-83223535D01*
X49885239Y-83244826D01*
X49845857Y-83291688D01*
X49806183Y-83338233D01*
X49789579Y-83367952D01*
X49637927Y-83589277D01*
X48817030Y-84227752D01*
X48798970Y-84244890D01*
X48784602Y-84265221D01*
X48774475Y-84287965D01*
X48768981Y-84312248D01*
X48768000Y-84328000D01*
X48768000Y-88800204D01*
X48763048Y-88816158D01*
X48689179Y-88952258D01*
X48607277Y-89051527D01*
X48235182Y-89274784D01*
X48185674Y-89290152D01*
X47989915Y-89309886D01*
X32085492Y-89309886D01*
X30644000Y-87868394D01*
X30644000Y-84392001D01*
X31355844Y-84392001D01*
X31355994Y-84453870D01*
X31355844Y-84515739D01*
X31362271Y-84548466D01*
X31427372Y-85193442D01*
X31427595Y-85226612D01*
X31440078Y-85287241D01*
X31452359Y-85348207D01*
X31465131Y-85378831D01*
X31650826Y-85976512D01*
X31657228Y-86007618D01*
X31669597Y-86036929D01*
X31669607Y-86036961D01*
X31679881Y-86061300D01*
X31694189Y-86095205D01*
X31694202Y-86095229D01*
X31706576Y-86124544D01*
X31724399Y-86150834D01*
X32016440Y-86688602D01*
X32028195Y-86716765D01*
X32046631Y-86744196D01*
X32047240Y-86745317D01*
X32064370Y-86770589D01*
X32081224Y-86795666D01*
X32082028Y-86796640D01*
X32100579Y-86824009D01*
X32122306Y-86845450D01*
X32507634Y-87312398D01*
X32524257Y-87337423D01*
X32547910Y-87361204D01*
X32549020Y-87362550D01*
X32570210Y-87383626D01*
X32591296Y-87404827D01*
X32592642Y-87405938D01*
X32616422Y-87429590D01*
X32641449Y-87446215D01*
X33108396Y-87831556D01*
X33129834Y-87853280D01*
X33157196Y-87871827D01*
X33158174Y-87872634D01*
X33183406Y-87889593D01*
X33208526Y-87906620D01*
X33209639Y-87907224D01*
X33237074Y-87925664D01*
X33265244Y-87937422D01*
X33803012Y-88229472D01*
X33829303Y-88247296D01*
X33858615Y-88259669D01*
X33858637Y-88259681D01*
X33887366Y-88271805D01*
X33916886Y-88284266D01*
X33916911Y-88284274D01*
X33946223Y-88296644D01*
X33977335Y-88303048D01*
X34575034Y-88488752D01*
X34605655Y-88501523D01*
X34666406Y-88513760D01*
X34727247Y-88526288D01*
X34760430Y-88526511D01*
X35405421Y-88591615D01*
X35438155Y-88598044D01*
X35500093Y-88597893D01*
X35561887Y-88598043D01*
X35594613Y-88591616D01*
X36239591Y-88526510D01*
X36272768Y-88526287D01*
X36333553Y-88513771D01*
X36394358Y-88501522D01*
X36424979Y-88488751D01*
X37022665Y-88303045D01*
X37053771Y-88296642D01*
X37083079Y-88284273D01*
X37083109Y-88284264D01*
X37114768Y-88270900D01*
X37141356Y-88259679D01*
X37141379Y-88259666D01*
X37170691Y-88247293D01*
X37196982Y-88229469D01*
X37734733Y-87937421D01*
X37762905Y-87925662D01*
X37790345Y-87907219D01*
X37791455Y-87906616D01*
X37816579Y-87889586D01*
X37841805Y-87872631D01*
X37842781Y-87871826D01*
X37870147Y-87853276D01*
X37891589Y-87831547D01*
X38358521Y-87446213D01*
X38383547Y-87429589D01*
X38407330Y-87405934D01*
X38408676Y-87404823D01*
X38429761Y-87383623D01*
X38450950Y-87362548D01*
X38452060Y-87361202D01*
X38475714Y-87337420D01*
X38492339Y-87312391D01*
X38877662Y-86845446D01*
X38899385Y-86824009D01*
X38917933Y-86796644D01*
X38918742Y-86795664D01*
X38935726Y-86770394D01*
X38952724Y-86745316D01*
X38953327Y-86744205D01*
X38971771Y-86716763D01*
X38983529Y-86688591D01*
X39275567Y-86150830D01*
X39293388Y-86124543D01*
X39305760Y-86095233D01*
X39305775Y-86095205D01*
X39320790Y-86059626D01*
X39330357Y-86036960D01*
X39330363Y-86036941D01*
X39342737Y-86007619D01*
X39349141Y-85976500D01*
X39534835Y-85378826D01*
X39547604Y-85348208D01*
X39559846Y-85287435D01*
X39572369Y-85226613D01*
X39572592Y-85193434D01*
X39637694Y-84548464D01*
X39644121Y-84515738D01*
X39643971Y-84453870D01*
X39644121Y-84392002D01*
X39637694Y-84359276D01*
X39572592Y-83714306D01*
X39572369Y-83681127D01*
X39559819Y-83620174D01*
X39547604Y-83559531D01*
X39534838Y-83528920D01*
X39349142Y-82931239D01*
X39342737Y-82900117D01*
X39330362Y-82870792D01*
X39330357Y-82870777D01*
X39321082Y-82848802D01*
X39305775Y-82812531D01*
X39305762Y-82812508D01*
X39293389Y-82783193D01*
X39275564Y-82756900D01*
X38983531Y-82219147D01*
X38971772Y-82190973D01*
X38953323Y-82163523D01*
X38952724Y-82162419D01*
X38935862Y-82137541D01*
X38918744Y-82112071D01*
X38917928Y-82111082D01*
X38899386Y-82083726D01*
X38877669Y-82062295D01*
X38492345Y-81595346D01*
X38475716Y-81570312D01*
X38452055Y-81546522D01*
X38450951Y-81545184D01*
X38429889Y-81524235D01*
X38408678Y-81502908D01*
X38407324Y-81501790D01*
X38383549Y-81478143D01*
X38358529Y-81461523D01*
X37891586Y-81076177D01*
X37870148Y-81054452D01*
X37842786Y-81035905D01*
X37841807Y-81035097D01*
X37816543Y-81018117D01*
X37791457Y-81001112D01*
X37790347Y-81000509D01*
X37762907Y-80982066D01*
X37734737Y-80970308D01*
X37196987Y-80678258D01*
X37170692Y-80660431D01*
X37141379Y-80648058D01*
X37141358Y-80648046D01*
X37110380Y-80634972D01*
X37083110Y-80623461D01*
X37083090Y-80623455D01*
X37053773Y-80611082D01*
X37022656Y-80604677D01*
X36424984Y-80418973D01*
X36394358Y-80406200D01*
X36333499Y-80393941D01*
X36272770Y-80381435D01*
X36239590Y-80381212D01*
X35627023Y-80319378D01*
X35626266Y-80319148D01*
X35593840Y-80315954D01*
X35561887Y-80309679D01*
X35500093Y-80309829D01*
X35438155Y-80309678D01*
X35406194Y-80315955D01*
X35373774Y-80319148D01*
X35373018Y-80319377D01*
X34760430Y-80381211D01*
X34727245Y-80381434D01*
X34666284Y-80393986D01*
X34605655Y-80406199D01*
X34575040Y-80418967D01*
X33977333Y-80604677D01*
X33946221Y-80611081D01*
X33916906Y-80623452D01*
X33916884Y-80623459D01*
X33893716Y-80633239D01*
X33858635Y-80648043D01*
X33858604Y-80648060D01*
X33829301Y-80660429D01*
X33803017Y-80678248D01*
X33265246Y-80970304D01*
X33237072Y-80982064D01*
X33209629Y-81000509D01*
X33208524Y-81001109D01*
X33183523Y-81018055D01*
X33158172Y-81035094D01*
X33157191Y-81035903D01*
X33129832Y-81054448D01*
X33108394Y-81076173D01*
X32641449Y-81461515D01*
X32616421Y-81478141D01*
X32592640Y-81501794D01*
X32591294Y-81502905D01*
X32570238Y-81524076D01*
X32549019Y-81545181D01*
X32547905Y-81546530D01*
X32524256Y-81570309D01*
X32507635Y-81595331D01*
X32122302Y-82062288D01*
X32100578Y-82083726D01*
X32082031Y-82111090D01*
X32081222Y-82112070D01*
X32064221Y-82137365D01*
X32047240Y-82162419D01*
X32046638Y-82163528D01*
X32028193Y-82190972D01*
X32016435Y-82219144D01*
X31724403Y-82756895D01*
X31706575Y-82783193D01*
X31694199Y-82812513D01*
X31694189Y-82812532D01*
X31682638Y-82839904D01*
X31669607Y-82870776D01*
X31669600Y-82870799D01*
X31657227Y-82900118D01*
X31650823Y-82931234D01*
X31465132Y-83528905D01*
X31452359Y-83559532D01*
X31440075Y-83620515D01*
X31427595Y-83681128D01*
X31427372Y-83714298D01*
X31362272Y-84359273D01*
X31355844Y-84392001D01*
X30644000Y-84392001D01*
X30644000Y-52419574D01*
X30717162Y-43566917D01*
X30753512Y-43654673D01*
X31030937Y-44069868D01*
X31384032Y-44422963D01*
X31799227Y-44700388D01*
X32260568Y-44891482D01*
X32750324Y-44988900D01*
X33249676Y-44988900D01*
X33739432Y-44891482D01*
X34200773Y-44700388D01*
X34615968Y-44422963D01*
X34969063Y-44069868D01*
X35246488Y-43654673D01*
X35437582Y-43193332D01*
X35535000Y-42703576D01*
X35535000Y-42204224D01*
X35437582Y-41714468D01*
X35426992Y-41688901D01*
X44900480Y-41688901D01*
X44782148Y-41910285D01*
G37*
%TD.AperFunction*%
D24*
X79187748Y-73717859D02*
X79173605Y-73732001D01*
X79187748Y-73746144D01*
X79008143Y-73925749D01*
X78994000Y-73911606D01*
X78979858Y-73925749D01*
X78800253Y-73746144D01*
X78814395Y-73732001D01*
X78800253Y-73717859D01*
X78979858Y-73538254D01*
X78994000Y-73552396D01*
X79008143Y-73538254D01*
X79187748Y-73717859D01*
%TA.AperFunction,Conductor*%
D25*
G36*
X79187748Y-73717859D02*
G01*
X79173605Y-73732001D01*
X79187748Y-73746144D01*
X79008143Y-73925749D01*
X78994000Y-73911606D01*
X78979858Y-73925749D01*
X78800253Y-73746144D01*
X78814395Y-73732001D01*
X78800253Y-73717859D01*
X78979858Y-73538254D01*
X78994000Y-73552396D01*
X79008143Y-73538254D01*
X79187748Y-73717859D01*
G37*
%TD.AperFunction*%
D24*
X60427000Y-44412000D02*
X60447000Y-44412000D01*
X60447000Y-44666000D01*
X60427000Y-44666000D01*
X60427000Y-45683224D01*
X60540000Y-45752278D01*
X60540001Y-55471906D01*
X60011912Y-55999995D01*
X60024185Y-55959536D01*
X60035001Y-55849716D01*
X60035001Y-55849706D01*
X60038616Y-55813001D01*
X60035001Y-55776296D01*
X60035001Y-45767555D01*
X60173000Y-45683224D01*
X60173000Y-44666000D01*
X60153000Y-44666000D01*
X60153000Y-44412000D01*
X60173000Y-44412000D01*
X60173000Y-44392000D01*
X60427000Y-44392000D01*
X60427000Y-44412000D01*
%TA.AperFunction,Conductor*%
D25*
G36*
X60427000Y-44412000D02*
G01*
X60447000Y-44412000D01*
X60447000Y-44666000D01*
X60427000Y-44666000D01*
X60427000Y-45683224D01*
X60540000Y-45752278D01*
X60540001Y-55471906D01*
X60011912Y-55999995D01*
X60024185Y-55959536D01*
X60035001Y-55849716D01*
X60035001Y-55849706D01*
X60038616Y-55813001D01*
X60035001Y-55776296D01*
X60035001Y-45767555D01*
X60173000Y-45683224D01*
X60173000Y-44666000D01*
X60153000Y-44666000D01*
X60153000Y-44412000D01*
X60173000Y-44412000D01*
X60173000Y-44392000D01*
X60427000Y-44392000D01*
X60427000Y-44412000D01*
G37*
%TD.AperFunction*%
D24*
X62427000Y-42412000D02*
X62447000Y-42412000D01*
X62447000Y-42666000D01*
X62427000Y-42666000D01*
X62427000Y-42686000D01*
X62173000Y-42686000D01*
X62173000Y-42666000D01*
X62153000Y-42666000D01*
X62153000Y-42412000D01*
X62173000Y-42412000D01*
X62173000Y-42392000D01*
X62427000Y-42392000D01*
X62427000Y-42412000D01*
%TA.AperFunction,Conductor*%
D25*
G36*
X62427000Y-42412000D02*
G01*
X62447000Y-42412000D01*
X62447000Y-42666000D01*
X62427000Y-42666000D01*
X62427000Y-42686000D01*
X62173000Y-42686000D01*
X62173000Y-42666000D01*
X62153000Y-42666000D01*
X62153000Y-42412000D01*
X62173000Y-42412000D01*
X62173000Y-42392000D01*
X62427000Y-42392000D01*
X62427000Y-42412000D01*
G37*
%TD.AperFunction*%
%TD*%
M02*
