%TF.GenerationSoftware,KiCad,Pcbnew,(5.1.12)-1*%
%TF.CreationDate,2022-08-25T11:39:19-06:00*%
%TF.ProjectId,SpritePCB,53707269-7465-4504-9342-2e6b69636164,rev?*%
%TF.SameCoordinates,Original*%
%TF.FileFunction,Legend,Bot*%
%TF.FilePolarity,Positive*%
%FSLAX46Y46*%
G04 Gerber Fmt 4.6, Leading zero omitted, Abs format (unit mm)*
G04 Created by KiCad (PCBNEW (5.1.12)-1) date 2022-08-25 11:39:19*
%MOMM*%
%LPD*%
G01*
G04 APERTURE LIST*
%ADD10C,0.400000*%
%ADD11C,0.120000*%
G04 APERTURE END LIST*
D10*
X71816476Y-69816761D02*
X71816476Y-67816761D01*
X71149809Y-68483428D02*
X70387904Y-68483428D01*
X70864095Y-69816761D02*
X70864095Y-68102476D01*
X70768857Y-67912000D01*
X70578380Y-67816761D01*
X70387904Y-67816761D01*
X68387904Y-68483428D02*
X67911714Y-69816761D01*
X67435523Y-68483428D02*
X67911714Y-69816761D01*
X68102190Y-70292952D01*
X68197428Y-70388190D01*
X68387904Y-70483428D01*
X66387904Y-69816761D02*
X66578380Y-69721523D01*
X66673619Y-69626285D01*
X66768857Y-69435809D01*
X66768857Y-68864380D01*
X66673619Y-68673904D01*
X66578380Y-68578666D01*
X66387904Y-68483428D01*
X66102190Y-68483428D01*
X65911714Y-68578666D01*
X65816476Y-68673904D01*
X65721238Y-68864380D01*
X65721238Y-69435809D01*
X65816476Y-69626285D01*
X65911714Y-69721523D01*
X66102190Y-69816761D01*
X66387904Y-69816761D01*
X64006952Y-68483428D02*
X64006952Y-69816761D01*
X64864095Y-68483428D02*
X64864095Y-69531047D01*
X64768857Y-69721523D01*
X64578380Y-69816761D01*
X64292666Y-69816761D01*
X64102190Y-69721523D01*
X64006952Y-69626285D01*
X62959333Y-67816761D02*
X63149809Y-68197714D01*
X62102190Y-69816761D02*
X62102190Y-68483428D01*
X62102190Y-68864380D02*
X62006952Y-68673904D01*
X61911714Y-68578666D01*
X61721238Y-68483428D01*
X61530761Y-68483428D01*
X60102190Y-69721523D02*
X60292666Y-69816761D01*
X60673619Y-69816761D01*
X60864095Y-69721523D01*
X60959333Y-69531047D01*
X60959333Y-68769142D01*
X60864095Y-68578666D01*
X60673619Y-68483428D01*
X60292666Y-68483428D01*
X60102190Y-68578666D01*
X60006952Y-68769142D01*
X60006952Y-68959619D01*
X60959333Y-69150095D01*
X57626000Y-69816761D02*
X57626000Y-68483428D01*
X57626000Y-68864380D02*
X57530761Y-68673904D01*
X57435523Y-68578666D01*
X57245047Y-68483428D01*
X57054571Y-68483428D01*
X55626000Y-69721523D02*
X55816476Y-69816761D01*
X56197428Y-69816761D01*
X56387904Y-69721523D01*
X56483142Y-69531047D01*
X56483142Y-68769142D01*
X56387904Y-68578666D01*
X56197428Y-68483428D01*
X55816476Y-68483428D01*
X55626000Y-68578666D01*
X55530761Y-68769142D01*
X55530761Y-68959619D01*
X56483142Y-69150095D01*
X53816476Y-69816761D02*
X53816476Y-68769142D01*
X53911714Y-68578666D01*
X54102190Y-68483428D01*
X54483142Y-68483428D01*
X54673619Y-68578666D01*
X53816476Y-69721523D02*
X54006952Y-69816761D01*
X54483142Y-69816761D01*
X54673619Y-69721523D01*
X54768857Y-69531047D01*
X54768857Y-69340571D01*
X54673619Y-69150095D01*
X54483142Y-69054857D01*
X54006952Y-69054857D01*
X53816476Y-68959619D01*
X52006952Y-69816761D02*
X52006952Y-67816761D01*
X52006952Y-69721523D02*
X52197428Y-69816761D01*
X52578380Y-69816761D01*
X52768857Y-69721523D01*
X52864095Y-69626285D01*
X52959333Y-69435809D01*
X52959333Y-68864380D01*
X52864095Y-68673904D01*
X52768857Y-68578666D01*
X52578380Y-68483428D01*
X52197428Y-68483428D01*
X52006952Y-68578666D01*
X51054571Y-69816761D02*
X51054571Y-68483428D01*
X51054571Y-67816761D02*
X51149809Y-67912000D01*
X51054571Y-68007238D01*
X50959333Y-67912000D01*
X51054571Y-67816761D01*
X51054571Y-68007238D01*
X50102190Y-68483428D02*
X50102190Y-69816761D01*
X50102190Y-68673904D02*
X50006952Y-68578666D01*
X49816476Y-68483428D01*
X49530761Y-68483428D01*
X49340285Y-68578666D01*
X49245047Y-68769142D01*
X49245047Y-69816761D01*
X47435523Y-68483428D02*
X47435523Y-70102476D01*
X47530761Y-70292952D01*
X47626000Y-70388190D01*
X47816476Y-70483428D01*
X48102190Y-70483428D01*
X48292666Y-70388190D01*
X47435523Y-69721523D02*
X47626000Y-69816761D01*
X48006952Y-69816761D01*
X48197428Y-69721523D01*
X48292666Y-69626285D01*
X48387904Y-69435809D01*
X48387904Y-68864380D01*
X48292666Y-68673904D01*
X48197428Y-68578666D01*
X48006952Y-68483428D01*
X47626000Y-68483428D01*
X47435523Y-68578666D01*
X45245047Y-68483428D02*
X44483142Y-68483428D01*
X44959333Y-67816761D02*
X44959333Y-69531047D01*
X44864095Y-69721523D01*
X44673619Y-69816761D01*
X44483142Y-69816761D01*
X43816476Y-69816761D02*
X43816476Y-67816761D01*
X42959333Y-69816761D02*
X42959333Y-68769142D01*
X43054571Y-68578666D01*
X43245047Y-68483428D01*
X43530761Y-68483428D01*
X43721238Y-68578666D01*
X43816476Y-68673904D01*
X42006952Y-69816761D02*
X42006952Y-68483428D01*
X42006952Y-67816761D02*
X42102190Y-67912000D01*
X42006952Y-68007238D01*
X41911714Y-67912000D01*
X42006952Y-67816761D01*
X42006952Y-68007238D01*
X41149809Y-69721523D02*
X40959333Y-69816761D01*
X40578380Y-69816761D01*
X40387904Y-69721523D01*
X40292666Y-69531047D01*
X40292666Y-69435809D01*
X40387904Y-69245333D01*
X40578380Y-69150095D01*
X40864095Y-69150095D01*
X41054571Y-69054857D01*
X41149809Y-68864380D01*
X41149809Y-68769142D01*
X41054571Y-68578666D01*
X40864095Y-68483428D01*
X40578380Y-68483428D01*
X40387904Y-68578666D01*
X39340285Y-69721523D02*
X39340285Y-69816761D01*
X39435523Y-70007238D01*
X39530761Y-70102476D01*
X66626000Y-71883428D02*
X66149809Y-73216761D01*
X65673619Y-71883428D02*
X66149809Y-73216761D01*
X66340285Y-73692952D01*
X66435523Y-73788190D01*
X66626000Y-73883428D01*
X64626000Y-73216761D02*
X64816476Y-73121523D01*
X64911714Y-73026285D01*
X65006952Y-72835809D01*
X65006952Y-72264380D01*
X64911714Y-72073904D01*
X64816476Y-71978666D01*
X64626000Y-71883428D01*
X64340285Y-71883428D01*
X64149809Y-71978666D01*
X64054571Y-72073904D01*
X63959333Y-72264380D01*
X63959333Y-72835809D01*
X64054571Y-73026285D01*
X64149809Y-73121523D01*
X64340285Y-73216761D01*
X64626000Y-73216761D01*
X62245047Y-71883428D02*
X62245047Y-73216761D01*
X63102190Y-71883428D02*
X63102190Y-72931047D01*
X63006952Y-73121523D01*
X62816476Y-73216761D01*
X62530761Y-73216761D01*
X62340285Y-73121523D01*
X62245047Y-73026285D01*
X60054571Y-71883428D02*
X59292666Y-71883428D01*
X59768857Y-73216761D02*
X59768857Y-71502476D01*
X59673619Y-71312000D01*
X59483142Y-71216761D01*
X59292666Y-71216761D01*
X57768857Y-71883428D02*
X57768857Y-73216761D01*
X58626000Y-71883428D02*
X58626000Y-72931047D01*
X58530761Y-73121523D01*
X58340285Y-73216761D01*
X58054571Y-73216761D01*
X57864095Y-73121523D01*
X57768857Y-73026285D01*
X55959333Y-73121523D02*
X56149809Y-73216761D01*
X56530761Y-73216761D01*
X56721238Y-73121523D01*
X56816476Y-73026285D01*
X56911714Y-72835809D01*
X56911714Y-72264380D01*
X56816476Y-72073904D01*
X56721238Y-71978666D01*
X56530761Y-71883428D01*
X56149809Y-71883428D01*
X55959333Y-71978666D01*
X55102190Y-73216761D02*
X55102190Y-71216761D01*
X54911714Y-72454857D02*
X54340285Y-73216761D01*
X54340285Y-71883428D02*
X55102190Y-72645333D01*
X52721238Y-73121523D02*
X52911714Y-73216761D01*
X53292666Y-73216761D01*
X53483142Y-73121523D01*
X53578380Y-72931047D01*
X53578380Y-72169142D01*
X53483142Y-71978666D01*
X53292666Y-71883428D01*
X52911714Y-71883428D01*
X52721238Y-71978666D01*
X52626000Y-72169142D01*
X52626000Y-72359619D01*
X53578380Y-72550095D01*
X50911714Y-73216761D02*
X50911714Y-71216761D01*
X50911714Y-73121523D02*
X51102190Y-73216761D01*
X51483142Y-73216761D01*
X51673619Y-73121523D01*
X51768857Y-73026285D01*
X51864095Y-72835809D01*
X51864095Y-72264380D01*
X51768857Y-72073904D01*
X51673619Y-71978666D01*
X51483142Y-71883428D01*
X51102190Y-71883428D01*
X50911714Y-71978666D01*
X47578380Y-71883428D02*
X47578380Y-73216761D01*
X48435523Y-71883428D02*
X48435523Y-72931047D01*
X48340285Y-73121523D01*
X48149809Y-73216761D01*
X47864095Y-73216761D01*
X47673619Y-73121523D01*
X47578380Y-73026285D01*
X46626000Y-71883428D02*
X46626000Y-73883428D01*
X46626000Y-71978666D02*
X46435523Y-71883428D01*
X46054571Y-71883428D01*
X45864095Y-71978666D01*
X45768857Y-72073904D01*
X45673619Y-72264380D01*
X45673619Y-72835809D01*
X45768857Y-73026285D01*
X45864095Y-73121523D01*
X46054571Y-73216761D01*
X46435523Y-73216761D01*
X46626000Y-73121523D01*
X44816476Y-73026285D02*
X44721238Y-73121523D01*
X44816476Y-73216761D01*
X44911714Y-73121523D01*
X44816476Y-73026285D01*
X44816476Y-73216761D01*
D11*
%TO.C,J6*%
X36957000Y-75184000D02*
G75*
G03*
X36957000Y-75184000I-381000J0D01*
G01*
%TO.C,J7*%
X78105000Y-68580001D02*
G75*
G03*
X78105000Y-68580001I-381000J0D01*
G01*
%TO.C,J5*%
X43052999Y-83566000D02*
G75*
G03*
X43052999Y-83566000I-381000J0D01*
G01*
%TO.C,J4*%
X78105000Y-63500001D02*
G75*
G03*
X78105000Y-63500001I-381000J0D01*
G01*
%TO.C,J3*%
X78105000Y-78242000D02*
G75*
G03*
X78105000Y-78242000I-381000J0D01*
G01*
%TO.C,J2*%
X75819000Y-83312000D02*
G75*
G03*
X75819000Y-83312000I-381000J0D01*
G01*
%TD*%
M02*
