<?xml version="1.0" encoding="UTF-8" standalone="no"?>
<!DOCTYPE svg PUBLIC "-//W3C//DTD SVG 1.1//EN" "http://www.w3.org/Graphics/SVG/1.1/DTD/svg11.dtd">
<svg width="100%" height="100%" viewBox="0 0 638 597" version="1.1" xmlns="http://www.w3.org/2000/svg" xmlns:xlink="http://www.w3.org/1999/xlink" xml:space="preserve" xmlns:serif="http://www.serif.com/" style="fill-rule:evenodd;clip-rule:evenodd;stroke-linejoin:round;stroke-miterlimit:2;">
    <path d="M230,579.318C230,588.784 222.327,596.457 212.862,596.457L23.858,596.457C10.691,596.457 0,585.766 0,572.598L0,23.858C0,10.691 10.691,0 23.858,0L613.937,0C627.105,0 637.795,10.691 637.795,23.858L637.795,572.598C637.795,585.766 627.105,596.457 613.937,596.457L365.717,596.457C355.932,596.457 348,588.525 348,578.74L348,549.228C348,523.162 321.563,502 289,502C256.564,502 230.206,522.998 230.001,548.923L230,549.228L230,579.318ZM64.961,490.157C87.776,490.157 106.299,508.681 106.299,531.496C106.299,554.311 87.776,572.835 64.961,572.835C42.145,572.835 23.622,554.311 23.622,531.496C23.622,508.681 42.145,490.157 64.961,490.157ZM354.331,236.22C373.887,236.22 389.764,252.097 389.764,271.654C389.764,291.21 373.887,307.087 354.331,307.087C334.775,307.087 318.898,291.21 318.898,271.654C318.898,252.097 334.775,236.22 354.331,236.22ZM188.976,236.22C208.532,236.22 224.409,252.097 224.409,271.654C224.409,291.21 208.532,307.087 188.976,307.087C169.42,307.087 153.543,291.21 153.543,271.654C153.543,252.097 169.42,236.22 188.976,236.22Z" style="fill:rgb(235,235,235);"/>
</svg>
