999
"DXF R12 Output" (www.mydxf.blogspot.com)
 0 
SECTION
 2 
HEADER
 9 
$ACADVER
 1 
AC1009
 9 
$EXTMIN
 10 
 0 
 20 
 0 
 9 
$EXTMAX
 10 
 8.5 
 20 
 11 
 0 
ENDSEC
 0 
SECTION
 2 
ENTITIES
0
LINE
8
Layer 1
10
64.911100
20
4.990720
11
64.812834
21
4.015861
0
LINE
8
Layer 1
10
64.812834
20
4.015861
11
64.531002
21
3.107890
0
LINE
8
Layer 1
10
64.531002
20
3.107890
11
64.085053
21
2.286253
0
LINE
8
Layer 1
10
64.085053
20
2.286253
11
63.494438
21
1.570396
0
LINE
8
Layer 1
10
63.494438
20
1.570396
11
62.778605
21
0.979768
0
LINE
8
Layer 1
10
62.778605
20
0.979768
11
61.957005
21
0.533813
0
LINE
8
Layer 1
10
61.957005
20
0.533813
11
61.049087
21
0.251979
0
LINE
8
Layer 1
10
61.049087
20
0.251979
11
60.074300
21
0.153713
0
LINE
8
Layer 1
10
60.074300
20
0.153713
11
6.733250
21
0.153713
0
LINE
8
Layer 1
10
6.733250
20
0.153713
11
5.377029
21
0.290618
0
LINE
8
Layer 1
10
5.377029
20
0.290618
11
4.113488
21
0.683223
0
LINE
8
Layer 1
10
4.113488
20
0.683223
11
2.969795
21
1.304362
0
LINE
8
Layer 1
10
2.969795
20
1.304362
11
1.973121
21
2.126869
0
LINE
8
Layer 1
10
1.973121
20
2.126869
11
1.150635
21
3.123577
0
LINE
8
Layer 1
10
1.150635
20
3.123577
11
0.529506
21
4.267321
0
LINE
8
Layer 1
10
0.529506
20
4.267321
11
0.136905
21
5.530934
0
LINE
8
Layer 1
10
0.136905
20
5.530934
11
0.000000
21
6.887250
0
LINE
8
Layer 1
10
0.000000
20
6.887250
11
0.000000
21
161.754000
0
LINE
8
Layer 1
10
0.000000
20
161.754000
11
0.136905
21
163.110207
0
LINE
8
Layer 1
10
0.136905
20
163.110207
11
0.529506
21
164.373719
0
LINE
8
Layer 1
10
0.529506
20
164.373719
11
1.150635
21
165.517371
0
LINE
8
Layer 1
10
1.150635
20
165.517371
11
1.973121
21
166.514000
0
LINE
8
Layer 1
10
1.973121
20
166.514000
11
2.969795
21
167.336441
0
LINE
8
Layer 1
10
2.969795
20
167.336441
11
4.113488
21
167.957531
0
LINE
8
Layer 1
10
4.113488
20
167.957531
11
5.377029
21
168.350105
0
LINE
8
Layer 1
10
5.377029
20
168.350105
11
6.733250
21
168.487000
0
LINE
8
Layer 1
10
6.733250
20
168.487000
11
173.267000
21
168.487000
0
LINE
8
Layer 1
10
173.267000
20
168.487000
11
174.623207
21
168.350105
0
LINE
8
Layer 1
10
174.623207
20
168.350105
11
175.886719
21
167.957531
0
LINE
8
Layer 1
10
175.886719
20
167.957531
11
177.030371
21
167.336441
0
LINE
8
Layer 1
10
177.030371
20
167.336441
11
178.027000
21
166.514000
0
LINE
8
Layer 1
10
178.027000
20
166.514000
11
178.849441
21
165.517371
0
LINE
8
Layer 1
10
178.849441
20
165.517371
11
179.470531
21
164.373719
0
LINE
8
Layer 1
10
179.470531
20
164.373719
11
179.863105
21
163.110207
0
LINE
8
Layer 1
10
179.863105
20
163.110207
11
180.000000
21
161.754000
0
LINE
8
Layer 1
10
180.000000
20
161.754000
11
180.000000
21
6.887250
0
LINE
8
Layer 1
10
180.000000
20
6.887250
11
179.863105
21
5.530934
0
LINE
8
Layer 1
10
179.863105
20
5.530934
11
179.470531
21
4.267321
0
LINE
8
Layer 1
10
179.470531
20
4.267321
11
178.849441
21
3.123577
0
LINE
8
Layer 1
10
178.849441
20
3.123577
11
178.027000
21
2.126869
0
LINE
8
Layer 1
10
178.027000
20
2.126869
11
177.030371
21
1.304362
0
LINE
8
Layer 1
10
177.030371
20
1.304362
11
175.886719
21
0.683223
0
LINE
8
Layer 1
10
175.886719
20
0.683223
11
174.623207
21
0.290618
0
LINE
8
Layer 1
10
174.623207
20
0.290618
11
173.267000
21
0.153713
0
LINE
8
Layer 1
10
173.267000
20
0.153713
11
103.213000
21
0.153713
0
LINE
8
Layer 1
10
103.213000
20
0.153713
11
102.205460
21
0.255296
0
LINE
8
Layer 1
10
102.205460
20
0.255296
11
101.267000
21
0.546641
0
LINE
8
Layer 1
10
101.267000
20
0.546641
11
100.417734
21
1.007644
0
LINE
8
Layer 1
10
100.417734
20
1.007644
11
99.677775
21
1.618199
0
LINE
8
Layer 1
10
99.677775
20
1.618199
11
99.067238
21
2.358201
0
LINE
8
Layer 1
10
99.067238
20
2.358201
11
98.606237
21
3.207545
0
LINE
8
Layer 1
10
98.606237
20
3.207545
11
98.314887
21
4.146127
0
LINE
8
Layer 1
10
98.314887
20
4.146127
11
98.213300
21
5.153840
0
LINE
8
Layer 1
10
98.213300
20
5.153840
11
98.213300
21
13.482800
0
LINE
8
Layer 1
10
98.213300
20
13.482800
11
98.127265
21
14.844786
0
LINE
8
Layer 1
10
98.127265
20
14.844786
11
97.874757
21
16.167613
0
LINE
8
Layer 1
10
97.874757
20
16.167613
11
97.464173
21
17.444560
0
LINE
8
Layer 1
10
97.464173
20
17.444560
11
96.903909
21
18.668906
0
LINE
8
Layer 1
10
96.903909
20
18.668906
11
95.367932
21
20.932909
0
LINE
8
Layer 1
10
95.367932
20
20.932909
11
93.334000
21
22.905850
0
LINE
8
Layer 1
10
93.334000
20
22.905850
11
90.869286
21
24.533960
0
LINE
8
Layer 1
10
90.869286
20
24.533960
11
88.040966
21
25.763469
0
LINE
8
Layer 1
10
88.040966
20
25.763469
11
84.916212
21
26.540605
0
LINE
8
Layer 1
10
84.916212
20
26.540605
11
81.562200
21
26.811600
0
LINE
8
Layer 1
10
81.562200
20
26.811600
11
78.220850
21
26.542673
0
LINE
8
Layer 1
10
78.220850
20
26.542673
11
75.106711
21
25.771325
0
LINE
8
Layer 1
10
75.106711
20
25.771325
11
72.286176
21
24.550709
0
LINE
8
Layer 1
10
72.286176
20
24.550709
11
69.825637
21
22.933975
0
LINE
8
Layer 1
10
69.825637
20
22.933975
11
67.791488
21
20.974276
0
LINE
8
Layer 1
10
67.791488
20
20.974276
11
66.250120
21
18.724762
0
LINE
8
Layer 1
10
66.250120
20
18.724762
11
65.684977
21
17.507935
0
LINE
8
Layer 1
10
65.684977
20
17.507935
11
65.267927
21
16.238587
0
LINE
8
Layer 1
10
65.267927
20
16.238587
11
65.007268
21
14.923360
0
LINE
8
Layer 1
10
65.007268
20
14.923360
11
64.911300
21
13.568900
0
LINE
8
Layer 1
10
64.911300
20
13.568900
11
64.911100
21
13.482800
0
LINE
8
Layer 1
10
64.911100
20
13.482800
11
64.911100
21
4.990720
0
LINE
8
Layer 1
10
64.911100
20
4.990720
11
64.911100
21
4.990720
0
LINE
8
Layer 1
10
18.333400
20
30.153900
11
20.683363
21
29.916688
0
LINE
8
Layer 1
10
20.683363
20
29.916688
11
22.872702
21
29.236433
0
LINE
8
Layer 1
10
22.872702
20
29.236433
11
24.854348
21
28.160208
0
LINE
8
Layer 1
10
24.854348
20
28.160208
11
26.581238
21
26.735087
0
LINE
8
Layer 1
10
26.581238
20
26.735087
11
28.006303
21
25.008143
0
LINE
8
Layer 1
10
28.006303
20
25.008143
11
29.082480
21
23.026448
0
LINE
8
Layer 1
10
29.082480
20
23.026448
11
29.762701
21
20.837076
0
LINE
8
Layer 1
10
29.762701
20
20.837076
11
29.999900
21
18.487100
0
LINE
8
Layer 1
10
29.999900
20
18.487100
11
29.762701
21
16.137126
0
LINE
8
Layer 1
10
29.762701
20
16.137126
11
29.082480
21
13.947761
0
LINE
8
Layer 1
10
29.082480
20
13.947761
11
28.006303
21
11.966076
0
LINE
8
Layer 1
10
28.006303
20
11.966076
11
26.581238
21
10.239142
0
LINE
8
Layer 1
10
26.581238
20
10.239142
11
24.854348
21
8.814033
0
LINE
8
Layer 1
10
24.854348
20
8.814033
11
22.872702
21
7.737818
0
LINE
8
Layer 1
10
22.872702
20
7.737818
11
20.683363
21
7.057570
0
LINE
8
Layer 1
10
20.683363
20
7.057570
11
18.333400
21
6.820360
0
LINE
8
Layer 1
10
18.333400
20
6.820360
11
15.983340
21
7.057570
0
LINE
8
Layer 1
10
15.983340
20
7.057570
11
13.793933
21
7.737818
0
LINE
8
Layer 1
10
13.793933
20
7.737818
11
11.812241
21
8.814033
0
LINE
8
Layer 1
10
11.812241
20
8.814033
11
10.085325
21
10.239142
0
LINE
8
Layer 1
10
10.085325
20
10.239142
11
8.660247
21
11.966076
0
LINE
8
Layer 1
10
8.660247
20
11.966076
11
7.584067
21
13.947761
0
LINE
8
Layer 1
10
7.584067
20
13.947761
11
6.903848
21
16.137126
0
LINE
8
Layer 1
10
6.903848
20
16.137126
11
6.666650
21
18.487100
0
LINE
8
Layer 1
10
6.666650
20
18.487100
11
6.903848
21
20.837076
0
LINE
8
Layer 1
10
6.903848
20
20.837076
11
7.584067
21
23.026448
0
LINE
8
Layer 1
10
7.584067
20
23.026448
11
8.660247
21
25.008143
0
LINE
8
Layer 1
10
8.660247
20
25.008143
11
10.085325
21
26.735087
0
LINE
8
Layer 1
10
10.085325
20
26.735087
11
11.812241
21
28.160208
0
LINE
8
Layer 1
10
11.812241
20
28.160208
11
13.793933
21
29.236433
0
LINE
8
Layer 1
10
13.793933
20
29.236433
11
15.983340
21
29.916688
0
LINE
8
Layer 1
10
15.983340
20
29.916688
11
18.333400
21
30.153900
0
LINE
8
Layer 1
10
18.333400
20
30.153900
11
18.333400
21
30.153900
0
LINE
8
Layer 1
10
100.000000
20
101.821000
11
102.014244
21
101.617664
0
LINE
8
Layer 1
10
102.014244
20
101.617664
11
103.890828
21
101.034556
0
LINE
8
Layer 1
10
103.890828
20
101.034556
11
105.589404
21
100.112027
0
LINE
8
Layer 1
10
105.589404
20
100.112027
11
107.069625
21
98.890425
0
LINE
8
Layer 1
10
107.069625
20
98.890425
11
108.291143
21
97.410102
0
LINE
8
Layer 1
10
108.291143
20
97.410102
11
109.213609
21
95.711406
0
LINE
8
Layer 1
10
109.213609
20
95.711406
11
109.796678
21
93.834689
0
LINE
8
Layer 1
10
109.796678
20
93.834689
11
110.000000
21
91.820300
0
LINE
8
Layer 1
10
110.000000
20
91.820300
11
109.796678
21
89.805998
0
LINE
8
Layer 1
10
109.796678
20
89.805998
11
109.213609
21
87.929387
0
LINE
8
Layer 1
10
109.213609
20
87.929387
11
108.291143
21
86.230808
0
LINE
8
Layer 1
10
108.291143
20
86.230808
11
107.069625
21
84.750600
0
LINE
8
Layer 1
10
107.069625
20
84.750600
11
105.589404
21
83.529105
0
LINE
8
Layer 1
10
105.589404
20
83.529105
11
103.890828
21
82.606662
0
LINE
8
Layer 1
10
103.890828
20
82.606662
11
102.014244
21
82.023614
0
LINE
8
Layer 1
10
102.014244
20
82.023614
11
100.000000
21
81.820300
0
LINE
8
Layer 1
10
100.000000
20
81.820300
11
97.985727
21
82.023614
0
LINE
8
Layer 1
10
97.985727
20
82.023614
11
96.109130
21
82.606662
0
LINE
8
Layer 1
10
96.109130
20
82.606662
11
94.410552
21
83.529105
0
LINE
8
Layer 1
10
94.410552
20
83.529105
11
92.930338
21
84.750600
0
LINE
8
Layer 1
10
92.930338
20
84.750600
11
91.708831
21
86.230808
0
LINE
8
Layer 1
10
91.708831
20
86.230808
11
90.786377
21
87.929387
0
LINE
8
Layer 1
10
90.786377
20
87.929387
11
90.203318
21
89.805998
0
LINE
8
Layer 1
10
90.203318
20
89.805998
11
90.000000
21
91.820300
0
LINE
8
Layer 1
10
90.000000
20
91.820300
11
90.203318
21
93.834689
0
LINE
8
Layer 1
10
90.203318
20
93.834689
11
90.786377
21
95.711406
0
LINE
8
Layer 1
10
90.786377
20
95.711406
11
91.708831
21
97.410102
0
LINE
8
Layer 1
10
91.708831
20
97.410102
11
92.930338
21
98.890425
0
LINE
8
Layer 1
10
92.930338
20
98.890425
11
94.410552
21
100.112027
0
LINE
8
Layer 1
10
94.410552
20
100.112027
11
96.109130
21
101.034556
0
LINE
8
Layer 1
10
96.109130
20
101.034556
11
97.985727
21
101.617664
0
LINE
8
Layer 1
10
97.985727
20
101.617664
11
100.000000
21
101.821000
0
LINE
8
Layer 1
10
100.000000
20
101.821000
11
100.000000
21
101.821000
0
LINE
8
Layer 1
10
53.333200
20
101.821000
11
55.347473
21
101.617664
0
LINE
8
Layer 1
10
55.347473
20
101.617664
11
57.224070
21
101.034556
0
LINE
8
Layer 1
10
57.224070
20
101.034556
11
58.922648
21
100.112027
0
LINE
8
Layer 1
10
58.922648
20
100.112027
11
60.402862
21
98.890425
0
LINE
8
Layer 1
10
60.402862
20
98.890425
11
61.624369
21
97.410102
0
LINE
8
Layer 1
10
61.624369
20
97.410102
11
62.546823
21
95.711406
0
LINE
8
Layer 1
10
62.546823
20
95.711406
11
63.129882
21
93.834689
0
LINE
8
Layer 1
10
63.129882
20
93.834689
11
63.333200
21
91.820300
0
LINE
8
Layer 1
10
63.333200
20
91.820300
11
63.129882
21
89.805998
0
LINE
8
Layer 1
10
63.129882
20
89.805998
11
62.546823
21
87.929387
0
LINE
8
Layer 1
10
62.546823
20
87.929387
11
61.624369
21
86.230808
0
LINE
8
Layer 1
10
61.624369
20
86.230808
11
60.402862
21
84.750600
0
LINE
8
Layer 1
10
60.402862
20
84.750600
11
58.922648
21
83.529105
0
LINE
8
Layer 1
10
58.922648
20
83.529105
11
57.224070
21
82.606662
0
LINE
8
Layer 1
10
57.224070
20
82.606662
11
55.347473
21
82.023614
0
LINE
8
Layer 1
10
55.347473
20
82.023614
11
53.333200
21
81.820300
0
LINE
8
Layer 1
10
53.333200
20
81.820300
11
51.318927
21
82.023614
0
LINE
8
Layer 1
10
51.318927
20
82.023614
11
49.442330
21
82.606662
0
LINE
8
Layer 1
10
49.442330
20
82.606662
11
47.743752
21
83.529105
0
LINE
8
Layer 1
10
47.743752
20
83.529105
11
46.263537
21
84.750600
0
LINE
8
Layer 1
10
46.263537
20
84.750600
11
45.042031
21
86.230808
0
LINE
8
Layer 1
10
45.042031
20
86.230808
11
44.119577
21
87.929387
0
LINE
8
Layer 1
10
44.119577
20
87.929387
11
43.536518
21
89.805998
0
LINE
8
Layer 1
10
43.536518
20
89.805998
11
43.333200
21
91.820300
0
LINE
8
Layer 1
10
43.333200
20
91.820300
11
43.536518
21
93.834689
0
LINE
8
Layer 1
10
43.536518
20
93.834689
11
44.119577
21
95.711406
0
LINE
8
Layer 1
10
44.119577
20
95.711406
11
45.042031
21
97.410102
0
LINE
8
Layer 1
10
45.042031
20
97.410102
11
46.263537
21
98.890425
0
LINE
8
Layer 1
10
46.263537
20
98.890425
11
47.743752
21
100.112027
0
LINE
8
Layer 1
10
47.743752
20
100.112027
11
49.442330
21
101.034556
0
LINE
8
Layer 1
10
49.442330
20
101.034556
11
51.318927
21
101.617664
0
LINE
8
Layer 1
10
51.318927
20
101.617664
11
53.333200
21
101.821000
0
LINE
8
Layer 1
10
53.333200
20
101.821000
11
53.333200
21
101.821000
 0 
ENDSEC
 0 
EOF